<svg xmlns="http://www.w3.org/2000/svg" viewBox="0 0 32 32"><title>Artboard-4</title><g id="Give_Key" data-name="Give Key"><path d="M28.14,17.51l-1.18-1.9a.6087.6087,0,0,0-.16-.16l-8.09-4.99.26-.42a.4994.4994,0,0,0-.16-.69L16.03,7.64a.5806.5806,0,0,1-.23-.41,4.97,4.97,0,0,0-2.57-3.66,5.0675,5.0675,0,0,0-4.45-.11A4.71,4.71,0,0,0,5.9,7.66a5.075,5.075,0,0,0,2.53,4.68,4.9731,4.9731,0,0,0,3.99.38.529.529,0,0,1,.47.03l2.77,1.71a.5032.5032,0,0,0,.38.06.48.48,0,0,0,.31-.23l.26-.42,2.13,1.31a.5032.5032,0,0,0,.38.06l.89-.21.21.89a.5006.5006,0,0,0,.22.31l.85.53a.5032.5032,0,0,0,.38.06l.89-.21.21.89a.529.529,0,0,0,.22.31l1.71,1.05a.594.594,0,0,0,.26.07.375.375,0,0,0,.11-.01l2.76-.66a.4726.4726,0,0,0,.34-.29A.531.531,0,0,0,28.14,17.51ZM12.7,9.05A1.9892,1.9892,0,0,1,11,10a2.0191,2.0191,0,0,1-1.05-.3A1.9968,1.9968,0,0,1,9.3,6.95a2.0315,2.0315,0,0,1,1.24-.9,2.0035,2.0035,0,0,1,2.16,3Z"></path><path d="M26.72,21H20.01a2.1954,2.1954,0,0,1-.38,1.33,2.3107,2.3107,0,0,1-3.12.71l-3.52-2.11a.5025.5025,0,1,1,.52-.86l3.51,2.11a1.3249,1.3249,0,0,0,1.78-.4,1.5064,1.5064,0,0,0,.16-1.22,2.3112,2.3112,0,0,0-1.03-1.48l-6.41-4a.53.53,0,0,0-.27-.08H3.5a.4951.4951,0,0,0-.5.5v9a.4951.4951,0,0,0,.5.5H7.11l4.29,2.6a9.7605,9.7605,0,0,0,8.47.76l7.67-2.95A2.3117,2.3117,0,0,0,29,23.28,2.279,2.279,0,0,0,26.72,21Z"></path></g></svg>