<svg xmlns="http://www.w3.org/2000/svg" viewBox="0 0 32 32"><title>Artboard-33</title><g id="Home_Rotate" data-name="Home Rotate"><path d="M25.3662,6.9844A12.992,12.992,0,0,0,5.3246,8.5929L4.9863,6.8818a.5.5,0,0,0-.9814.1934l.582,2.9434a.5131.5131,0,0,0,.5879.3935L8.1177,9.83a.5.5,0,1,0-.1944-.98l-1.7865.3529a11.9911,11.9911,0,1,1,10.331,18.7887A11.9992,11.9992,0,0,1,4,16a.5.5,0,0,0-1,0A13,13,0,0,0,15.9946,29.001c.17,0,.34-.0039.5113-.01A13.0475,13.0475,0,0,0,28.9912,16.5059,12.9086,12.9086,0,0,0,25.3662,6.9844Z"></path><path d="M23.5,15a.5.5,0,0,0,.2773-.916l-7.5-5a.5023.5023,0,0,0-.5546,0l-7.5,5a.5.5,0,1,0,.5546.832L16,10.1006l7.2227,4.8154A.4982.4982,0,0,0,23.5,15Z"></path><path d="M15,20v3h2V20a1,1,0,0,0-2,0Z"></path><path d="M20.5,23A1.498,1.498,0,0,0,22,21.5V15.3l-6-4-6,4v6.2A1.498,1.498,0,0,0,11.5,23H14V20a2,2,0,0,1,4,0v3Z"></path></g></svg>