<svg xmlns="http://www.w3.org/2000/svg" viewBox="0 0 48 48"><title>cctv, hotel, security, camera</title><g><path d="M43,30.0842a1,1,0,0,0-1,1v5.001H33.533L26.0847,24.9128l10.4031-6.0062A1,1,0,0,0,36.854,17.54L29.8526,5.4133a1,1,0,0,0-1.3664-.366L7.6973,17.05a1,1,0,0,0-.3661,1.3662l7.0014,12.1269a1,1,0,0,0,1.3664.3662l8.65-4.994L32.1655,37.64a1.003,1.003,0,0,0,.8322.4454H42v5.0011a1,1,0,1,0,2,0V31.0844A1,1,0,0,0,43,30.0842Z" fill="#646464"></path><path d="M4.5005,23.5152a1,1,0,0,0-.3661,1.3663L7.135,30.0787a1,1,0,0,0,1.3663.3662l2.5986-1.5-4.0008-6.93Z" fill="#646464"></path></g></svg>