<svg xmlns="http://www.w3.org/2000/svg" viewBox="0 0 64 64"><defs><style>.cls-1{fill:#231f20;}</style></defs><title>construction</title><g id="construction"><path class="cls-1" d="M56,36H55V27a1,1,0,0,0-2,0v5H50V30a1,1,0,0,0-2,0v2H45V29a1,1,0,0,0-2,0v9H40V36a1,1,0,0,0-2,0v2H35V34a1,1,0,0,0-2,0v8H32a1,1,0,0,0-1,1V56a1,1,0,0,0,1,1H56a1,1,0,0,0,1-1V37A1,1,0,0,0,56,36ZM38,42H35V40h3Zm5,0H40V40h3Zm5-6H45V34h3Zm5,0H50V34h3Z"></path><path class="cls-1" d="M41,31V27a1,1,0,0,0-1-1H34V20H53a1,1,0,0,0,1-1c0-2.08.14-2.54-.54-2.89C47.17,12.87,47.52,13,47.17,13H21.46L17.84,7.45C17.45,6.87,17,7,15,7a1,1,0,0,0-1,1v5c-3.36,0-3.41-.09-3.8.3C6.42,17.18,7,16,7,19a1,1,0,0,0,1,1h6V50H12a1,1,0,0,0-1,1v5a1,1,0,0,0,1,1H24a1,1,0,0,0,1-1V51a1,1,0,0,0-1-1H22V20H32v6H26a1,1,0,0,0-1,1v4a1,1,0,0,0,1,1H40A1,1,0,0,0,41,31ZM19.59,20,16,23.59V20Zm0,12L16,35.59V28.41ZM16,9c.64,0,.07-.6,3.07,4H16Zm0,31.41L19.59,44,16,47.59ZM20,50H16.41L20,46.41Zm0-8.41L16.41,38,20,34.41Zm0-12L16.41,26,20,22.41Z"></path></g></svg>