<svg xmlns="http://www.w3.org/2000/svg" viewBox="0 0 48 48"><title>Eco House</title><g id="Eco_House" data-name="Eco House"><path d="M35,31H28a1,1,0,0,0-1,1v7a1,1,0,0,0,1,1h7a1,1,0,0,0,1-1V32A1,1,0,0,0,35,31Zm-1,7H29V33h5Z"></path><path d="M47,46H41V27c6.36,0,6.65.23,7-.69a1,1,0,0,0-.36-1.11l-23-17a1,1,0,0,0-1.18,0L15,14.41V9a1,1,0,0,0-1-1H12V7h2a4,4,0,0,0,4-4V2a1,1,0,0,0-1-1c-2.8,0-4.16-.24-5.58,1C10-.4,7.81,0,5,0A1,1,0,0,0,4,1V2A4,4,0,0,0,8,6h2V8H8A1,1,0,0,0,7,9V20.32L.41,25.2A1,1,0,0,0,1,27H7V46H1a1,1,0,0,0,0,2H47A1,1,0,0,0,47,46ZM14,3h2a2,2,0,0,1-2,2H12A2,2,0,0,1,14,3ZM8,4A2,2,0,0,1,6,2H8a2,2,0,0,1,2,2Zm1,6h4v5.89L9,18.84Zm15,.24L44,25H40.57l-16-11.8a1,1,0,0,0-1.18,0L7.43,25H4ZM14,46V33h8V46Zm10,0V32a1,1,0,0,0-1-1H13a1,1,0,0,0-1,1V46H9V26.33L24,15.24,39,26.33V46Z"></path></g></svg>