<svg xmlns="http://www.w3.org/2000/svg" viewBox="0 0 64 64"><defs><style>.cls-1{fill:#231f20;}</style></defs><title>ecology</title><g id="ecology"><path class="cls-1" d="M14,33.61V53H50V33.61l-18-12ZM32,48a6.71,6.71,0,0,1-6.71-6.71C25.29,35.71,32,29,32,29s6.71,6.71,6.71,12.29A6.71,6.71,0,0,1,32,48Z"></path><rect class="cls-1" x="9" y="55" width="46" height="3"></rect><path class="cls-1" d="M8.28,32.62l1.11,1.65,22.06-14.7c.77-.53-.73-1.22,23.16,14.7l1.11-1.65C30.52,15.81,33,17.67,33,17a2,2,0,0,1,2-2h2a8,8,0,0,0,8-8H40a8,8,0,0,0-7.48,5.17.83.83,0,0,0-.59-.16A8,8,0,0,0,24,5H19a8,8,0,0,0,8,8h2a2,2,0,0,1,2,2v2.47Z"></path><path class="cls-1" d="M31,45c0,2.28,6,.65,6-4a1,1,0,0,0-2,0,3,3,0,0,1-3,3A1,1,0,0,0,31,45Z"></path></g></svg>