<svg xmlns="http://www.w3.org/2000/svg" viewBox="0 0 48 48"><title>free, wifi, internet</title><g><path d="M30.6563,19.582a10.1142,10.1142,0,0,0-13.3125,0l-.8067.7246L24,27.377l7.4629-7.07Z" fill="#646464"></path><path d="M35.0605,15.4551a15.9573,15.9573,0,0,0-22.121,0l-.7569.7265,2.8975,2.745.9267-.8328a12.1188,12.1188,0,0,1,15.9864,0l.9267.8328,2.8975-2.745Z" fill="#646464"></path><path d="M10.7289,14.8044l.8258-.7927a17.957,17.957,0,0,1,24.89,0l.8265.7931L39.4189,12.77a1.0013,1.0013,0,0,0,.0147-1.4394,21.98,21.98,0,0,0-30.8672,0A1.0013,1.0013,0,0,0,8.5811,12.77Z" fill="#646464"></path><path d="M13,35a1,1,0,0,0,0-2H9a1,1,0,0,0-1,1v8a1,1,0,0,0,2,0V39h3a1,1,0,0,0,0-2H10V35Z" fill="#646464"></path><path d="M24,36a3.0033,3.0033,0,0,0-3-3H17a1,1,0,0,0-1,1v8a1,1,0,0,0,2,0V39h1.5l2.7,3.6A1,1,0,1,0,23.8,41.4l-1.9122-2.55A2.9939,2.9939,0,0,0,24,36Zm-3,1H18V35h3a1,1,0,0,1,0,2Z" fill="#646464"></path><path d="M31,35a1,1,0,0,0,0-2H27a1,1,0,0,0-1,1v8a1,1,0,0,0,1,1h4a1,1,0,0,0,0-2H28V39h3a1,1,0,0,0,0-2H28V35Z" fill="#646464"></path><path d="M39,39a1,1,0,0,0,0-2H36V35h3a1,1,0,0,0,0-2H35a1,1,0,0,0-1,1v8a1,1,0,0,0,1,1h4a1,1,0,0,0,0-2H36V39Z" fill="#646464"></path></g></svg>