<svg xmlns="http://www.w3.org/2000/svg" xmlns:xlink="http://www.w3.org/1999/xlink" id="&#x421;&#x43B;&#x43E;&#x439;_1" x="0px" y="0px" viewBox="0 0 126 64" style="enable-background:new 0 0 126 64;" xml:space="preserve">
<style type="text/css">
	.st0{fill:#284E9C;}
	.st1{fill:#5FC4EB;}
</style>
<g>
	<path class="st0" d="M100.6,53.9h-4v-1h4V53.9z M100.6,51.9h-4v-1h4V51.9z M100.6,49.8h-4v-1h4V49.8z M100.6,47.8h-4v-1h4V47.8z    M100.6,45.8h-4v-1h4V45.8z M100.6,43.8h-4v-1h4V43.8z M100.6,41.8h-4v-1h4V41.8z M100.6,39.7h-4v-1h4V39.7z M100.6,37.7h-4v-1h4   V37.7z M100.6,35.7h-4v-1h4V35.7z M100.6,33.7h-4v-1h4V33.7z M100.6,31.7h-4v-1h4V31.7z M100.6,29.7h-4v-1h4V29.7z M100.6,27.6h-4   v-1h4V27.6z M100.6,25.6h-4v-1h4V25.6z M100.6,23.6h-4v-1h4V23.6z M100.6,21.6h-4v-1h4V21.6z M100.6,19.6h-4v-1h4V19.6z    M100.6,17.6h-4v-1h4V17.6z M100.6,15.5h-4v-1h4V15.5z M100.6,13.5h-4v-1h4V13.5z"></path>
</g>
<g>
	<path class="st0" d="M79.6,24.8c-0.7-2.4-1.9-4.5-3.4-6.4s-3.5-3.3-5.6-4.3c-2.2-1-4.8-1.5-7.6-1.5c-2.1,0-4.2,0.4-6.1,1.1   l-8.7,32.2c0.5,0.7,1,1.4,1.6,2c1.7,1.8,3.8,3.3,6,4.3c2.4,1,4.9,1.6,7.5,1.5h0.1v-9.2c-1.1,0-2.2-0.2-3.3-0.5   c-1.1-0.4-2.1-0.9-3-1.7s-1.7-1.8-2.2-2.8c-0.6-1.3-1.1-2.6-1.2-4.1h26.9c0-0.3,0-0.6,0.1-0.9c0-0.3,0-0.6,0.1-0.9v-1   C80.8,30.1,80.4,27.4,79.6,24.8z M54.3,28.2L54.3,28.2c0.6-2.3,1.7-4,3.3-5.3c1.5-1.3,3.5-1.9,5.4-1.9c1.3,0,2.6,0.2,3.7,0.7   c1,0.4,1.9,1,2.6,1.8c0.7,0.7,1.2,1.5,1.6,2.4c0.3,0.7,0.5,1.5,0.6,2.3H54.3z"></path>
</g>
<g>
	<polygon class="st1" points="57.1,12.6 56.8,13.7 48.2,45.9 46.1,53.8 36.1,53.8 29.2,27.8 28.7,27.8 21.8,53.8 12,53.8 1,12.6    11.3,12.6 17,38.4 17.5,38.4 24.4,12.6 33.9,12.6 40.8,38.4 41.3,38.4 46.9,12.6  "></polygon>
</g>
<g>
	<path class="st0" d="M80.8,48.5c0,3.2-2.4,5.9-5.5,5.9c-3,0-5.5-2.6-5.5-5.9c0-3.2,2.4-5.9,5.5-5.9C78.4,42.7,80.8,45.3,80.8,48.5   L80.8,48.5z"></path>
</g>
</svg>