<svg xmlns="http://www.w3.org/2000/svg" viewBox="0 0 48 48"><title>minibar. drink, hotel</title><g><rect x="6" y="22" width="16" height="6" fill="#646464"></rect><path d="M22,19a5.0085,5.0085,0,0,0-4-4.8994V7a1,1,0,0,0-1-1H11a1,1,0,0,0-1,1v7.1006A5.0085,5.0085,0,0,0,6,19v1H22Z" fill="#646464"></path><path d="M7,36H21a1,1,0,0,0,1-1V30H6v5A1,1,0,0,0,7,36Z" fill="#646464"></path><path d="M29,36H39a1,1,0,0,0,.99-.8584l2-14A1,1,0,0,0,41,20H27a1,1,0,0,0-.99,1.1416l2,14A1,1,0,0,0,29,36Z" fill="#646464"></path><path d="M43,40H5a1,1,0,0,0,0,2H43a1,1,0,0,0,0-2Z" fill="#646464"></path></g></svg>