<svg xmlns="http://www.w3.org/2000/svg" xmlns:xlink="http://www.w3.org/1999/xlink" width="128" height="128" viewBox="0 0 128 128"><defs><linearGradient id="a" x1="115.736" y1="132.491" x2="12.264" y2="29.019" gradientUnits="userSpaceOnUse"><stop offset="0" stop-color="#0d70b2"></stop><stop offset="1" stop-color="#00ddc1"></stop></linearGradient></defs><title>RECEPTIONIST</title><path d="M61.648,52.208a3.433,3.433,0,0,1-.791-2.751l.71-4.687a1.75,1.75,0,0,1,3.461.524l-.7,4.608h1.877a1.75,1.75,0,0,1,0,3.5H64.25A3.429,3.429,0,0,1,61.648,52.208ZM53,44.585a4.167,4.167,0,1,0-4.167-4.167A4.171,4.171,0,0,0,53,44.585Zm22,0a4.167,4.167,0,1,0-4.167-4.167A4.171,4.171,0,0,0,75,44.585ZM56.086,57.692a1.75,1.75,0,0,0-.238,2.464A10.37,10.37,0,0,0,63.875,63.5,10.371,10.371,0,0,0,71.9,60.158a1.75,1.75,0,1,0-2.7-2.226A6.988,6.988,0,0,1,63.875,60a6.987,6.987,0,0,1-5.326-2.071A1.752,1.752,0,0,0,56.086,57.692ZM26.062,106.5a1.75,1.75,0,0,0-3.5,0v3.815a1.75,1.75,0,0,0,3.5,0Zm95.188,4.335v15.418A1.75,1.75,0,0,1,119.5,128H8.5a1.75,1.75,0,0,1-1.75-1.75V110.834A24.032,24.032,0,0,1,23.694,87.8a1.312,1.312,0,0,1,.135-.068A54.508,54.508,0,0,1,36.1,85.983c1.834-.119,3.731-.242,5.554-.452a1.583,1.583,0,0,1,.17-.011,8.634,8.634,0,0,0,1.748-.2h0a6.169,6.169,0,0,0,3.188-1.784h0l0,0,.181-.183c.037-.035.074-.07.108-.108a5.107,5.107,0,0,0,1.112-2.508l.963-7.534a23.625,23.625,0,0,1-7.059-9.5,46.8,46.8,0,0,1-2.258-8.545c-.05-.255-.1-.5-.155-.758a8.541,8.541,0,0,1-8.787-13.045v-23.6A17.771,17.771,0,0,1,48.625,0h30.75a17.771,17.771,0,0,1,17.75,17.75v24.01a8.545,8.545,0,0,1-7.425,12.8,8.3,8.3,0,0,1-1.371-.126c-.047.241-.1.477-.146.719a46.781,46.781,0,0,1-2.257,8.542,23.646,23.646,0,0,1-7.06,9.5l.966,7.551a4.948,4.948,0,0,0,.573,1.725,6.041,6.041,0,0,0,.533.818c.037.047.076.089.115.132l.085.1,0,0h0a5.4,5.4,0,0,0,3.248,1.726h0c.613.126,1.261.211,1.889.293l.763.1c1.26.138,2.62.239,3.935.337.81.061,1.615.12,2.411.19.524.046,1.049.088,1.576.13a42.445,42.445,0,0,1,9.221,1.44c.045.014.08.044.123.061A24.033,24.033,0,0,1,121.25,110.834Zm-39-22.505V88.3a8.678,8.678,0,0,1-2.7-1.46L73.1,90.511l-5.886,3.353,10.857,7.19a25.725,25.725,0,0,0,3.766-9.309c.009-.051.019-.1.029-.153.09-.491.164-.985.226-1.481.007-.056.016-.113.023-.17Q82.209,89.137,82.251,88.329ZM52.943,104.8c.085.088.167.177.254.264.373.373.754.737,1.148,1.084l2.623,2.315,2.393-3.039-3.6-4.2-3.8,2.514c.038.045.077.089.116.134C52.361,104.189,52.649,104.5,52.943,104.8Zm22.937-.885.062-.072-3.955-2.62-3.468,4.048,2.513,3.192,2.623-2.315c.384-.339.758-.693,1.123-1.058.066-.067.129-.136.195-.2C75.282,104.572,75.586,104.248,75.88,103.915ZM58.7,99.276l3.728,4.351h2.889l3.728-4.351-5.173-3.425Zm.9,11.506,4.4,3.885,4.4-3.885-2.878-3.655h-3.05ZM45.748,88.306v.022q.042.809.137,1.613c.006.05.014.1.02.149.061.5.135.99.225,1.482.01.049.019.1.029.149a25.775,25.775,0,0,0,2.8,7.738l.036.066q.4.72.854,1.414l5.4-3.575,5.285-3.5L48.276,86.88A9.7,9.7,0,0,1,45.748,88.306ZM94.76,46a5.065,5.065,0,0,0-4.071-4.959,23.327,23.327,0,0,1-.457,4.572L89.053,51a4.858,4.858,0,0,0,.647.057A5.066,5.066,0,0,0,94.76,46Zm-56.71,5.06a5.011,5.011,0,0,0,.891-.088l-1.172-5.352a24,24,0,0,1-.529-4.6,5.051,5.051,0,0,0,.81,10.037Zm13.776,19.8a1.706,1.706,0,0,1,.378.274,20.21,20.21,0,0,0,23.593,0,1.78,1.78,0,0,1,.375-.272,20.118,20.118,0,0,0,6.511-8.478,44.138,44.138,0,0,0,2.066-7.9c.173-.88.347-1.754.534-2.615v-.008l0-.011c0-.026.01-.053.016-.079l1.508-6.892c.287-1.33.461-2.758.461-11.306V25.939a65.869,65.869,0,0,1-12.765,5.813,1.75,1.75,0,0,1-1.1-3.323,62.251,62.251,0,0,0,13.048-6.084L88.1,21.327a1.75,1.75,0,0,1,2.668,1.49V33.564c0,1.523-.005,2.82-.016,3.948a8.492,8.492,0,0,1,2.869.889V17.748A14.267,14.267,0,0,0,79.375,3.5H48.625a14.267,14.267,0,0,0-14.25,14.25V38.281a8.47,8.47,0,0,1,2.852-.8V31.606a1.752,1.752,0,0,1,2.155-1.7,62.111,62.111,0,0,0,21.654,1.27,1.75,1.75,0,1,1,.406,3.476,65.62,65.62,0,0,1-20.715-.866v6.786a20.556,20.556,0,0,0,.462,4.307L42.7,51.76c.2.9.374,1.8.554,2.715a44.153,44.153,0,0,0,2.067,7.905A20.121,20.121,0,0,0,51.826,70.855Zm.555,4.544-.74,5.791a8.511,8.511,0,0,1-1.014,3l13.247,7.547L77.3,84.089a8.456,8.456,0,0,1-.942-2.9l-.74-5.789a23.8,23.8,0,0,1-23.238,0ZM26.062,120v4.5H62.25v-6.711l-3.32-2.929-2.89-2.55h0l-4.011-3.539q-.558-.492-1.086-1.011l0,0a28.934,28.934,0,0,1-2.935-3.355l-.012-.015-.016-.025a29.013,29.013,0,0,1-5.648-14.852c-.007-.086-.017-.171-.024-.256s-.017-.166-.023-.25c-.1,0-.2.009-.3.011-1.882.214-3.794.338-5.644.459a57.914,57.914,0,0,0-10.271,1.272v6.065a1.75,1.75,0,0,1-3.5,0V91.97A20.522,20.522,0,0,0,10.25,110.834V124.5H22.562V120a1.75,1.75,0,0,1,3.5,0Zm39.688,4.5h36.187V90.75a46.613,46.613,0,0,0-7.253-.961c-.535-.043-1.068-.086-1.6-.133-.78-.068-1.57-.126-2.364-.185-1.347-.1-2.74-.2-4.116-.356l-.776-.1L85.716,89c-.006.082-.017.164-.023.247s-.016.155-.022.233a29.321,29.321,0,0,1-.741,4.483l-.006.021a29.04,29.04,0,0,1-2.487,6.546l-.013.025q-.543,1.032-1.167,2.02l0,0a28.945,28.945,0,0,1-5.282,6.2l-4.011,3.539h0l-2.89,2.55-3.32,2.929Zm52-13.668a20.532,20.532,0,0,0-12.313-18.882V124.5H117.75ZM98.6,112.652v6a1.75,1.75,0,0,1-1.75,1.75H79.393a1.75,1.75,0,0,1-1.75-1.75v-6a1.749,1.749,0,0,1,1.75-1.75h17.46A1.749,1.749,0,0,1,98.6,112.652Zm-3.5,1.75H81.143v2.5H95.1Z" fill="url(#a)"></path></svg>