<svg xmlns="http://www.w3.org/2000/svg" viewBox="0 0 48 48"><title>swimming pool, leisure</title><path d="M43.585,32.1934a.9857.9857,0,0,0-.9014-.1368A32.0617,32.0617,0,0,1,32,33.9514V10.0049a2,2,0,0,1,4,0,1,1,0,0,0,2,0,4,4,0,0,0-8,0v4H16v-4a2,2,0,0,1,4,0,1,1,0,0,0,2,0,4,4,0,0,0-8,0v21.05a37.3684,37.3684,0,0,0-9.2168.973A1,1,0,0,0,4,33.0049v6a1,1,0,0,0,1.2168.9765c8.2978-1.8447,13.1025-.63,17.75.545a36.0077,36.0077,0,0,0,9.2978,1.459,34.5752,34.5752,0,0,0,11.0518-2.0323A.9989.9989,0,0,0,44,39.0049v-6A1.0012,1.0012,0,0,0,43.585,32.1934ZM16,22.0049H30v4H16Zm14-6v4H16v-4Zm-14,15.16v-3.16H30v5.84a42.0272,42.0272,0,0,1-6.543-1.2584A46.8264,46.8264,0,0,0,16,31.1646Z" fill="#646464"></path></svg>