<svg xmlns="http://www.w3.org/2000/svg" xmlns:xlink="http://www.w3.org/1999/xlink" id="massage_x5F_yoga" x="0px" y="0px" viewBox="0 0 128 128" style="enable-background:new 0 0 128 128;" xml:space="preserve">
<style type="text/css">
	.st0{display:none;fill:#232323;}
	.st1{fill:#232323;}
</style>
<g id="row3">
	<path id="icon:5_2_" class="st0" d="M78.5,66.7c-2.2-1.3-4.4-2.3-6.3-2.7c2-0.4,4.2-1.4,6.3-2.7c5.5-3.4,8.6-8.1,7.1-10.7   c-1.6-2.5-7.2-1.8-12.7,1.5c-1.6,1-3,2.1-4.2,3.3c0.4-1.6,0.6-3.4,0.6-5.3c0-6.4-2.4-11.6-5.3-11.6c-2.9,0-5.3,5.2-5.3,11.6   c0,1.9,0.2,3.7,0.6,5.3c-1.2-1.2-2.6-2.3-4.2-3.3c-5.4-3.4-11.1-4.1-12.7-1.5c-1.6,2.5,1.6,7.3,7.1,10.7c2.2,1.3,4.4,2.2,6.3,2.7   c-2,0.4-4.2,1.4-6.3,2.7c-5.4,3.4-8.6,8.1-7.1,10.7c1.5,2.5,7.2,1.8,12.7-1.5c1.6-1,3-2.1,4.2-3.3c-0.4,1.6-0.6,3.4-0.6,5.3   c0,6.4,2.4,11.6,5.3,11.6c3,0,5.3-5.2,5.3-11.6c0-1.9-0.2-3.7-0.6-5.3c1.2,1.2,2.6,2.3,4.2,3.3c5.5,3.4,11.1,4.1,12.7,1.5   C87.1,74.8,84,70.1,78.5,66.7z M64,68.4c-1,0-2,0.3-2.9,0.9c0-1.1-0.2-2.1-0.8-3c-0.7-1-1.7-1.8-2.9-2.3c1.3-0.5,2.3-1.3,2.9-2.3   c0.5-0.9,0.8-1.9,0.8-3c0.9,0.6,1.9,0.9,2.9,0.9c1,0,2-0.3,3-0.9c0,1.1,0.2,2.1,0.8,3c0.7,1,1.7,1.8,2.9,2.3   c-1.3,0.5-2.3,1.3-2.9,2.3c-0.5,0.9-0.8,1.9-0.8,3C66,68.7,65,68.4,64,68.4z M60.8,64c0-1.8,1.4-3.2,3.1-3.2s3.2,1.4,3.3,3.1   c0,1.8-1.4,3.2-3.1,3.2C62.3,67.2,60.8,65.8,60.8,64z"></path>
	<path id="icon:4_2_" class="st0" d="M96.5,47.2L86.1,58.9h10.2C94,75.1,80.1,87.5,63.4,87.5S32.8,75.1,30.5,58.9h44.8l15.2-17   c1.5-1.7,4-1.8,5.7-0.3c0.9,0.8,1.3,1.9,1.3,3C97.5,45.5,97.2,46.4,96.5,47.2z"></path>
	<path id="icon:3_2_" class="st0" d="M84.8,77.5c1.3-8.5-0.3-11.3-0.8-12.5c-0.4-0.9-0.6-3.6-0.5-6.1c0.1-1.8-1.1-3-1.4-3.2   c0.1-0.7,0.1-1.5,0.1-2.4c0-0.6,0-1.2-0.1-1.9c-0.4-5.8-2.3-8.5-3.3-9.5c0.2-6.4-0.8-10.5-3-12.4c-1.2-1.1-2.8-1.4-4.6-1.1   c-1.2,0.2-2.7,1-3.5,3.1c-0.6-0.2-1.2-0.2-1.9-0.1c-1.4,0.3-2.4,1.4-2.7,3.2c-0.4-0.1-0.9-0.1-1.4,0c-1.8,0.3-2.6,2-2.8,3.8   c-0.2,0-0.5,0-0.7,0.1c-1.5,0.3-2.5,1.7-2.8,3.9h0c-0.8,0-1.6,0.3-2.1,0.9c-2,2.1-1.7,7.2-1.2,13.2c0,0.5,0.1,1,0.1,1.5   c-0.4,0.4-1,0.9-1.6,1.5c-3.2,2.8-3.2,6-3.6,12.6c-0.4,6.5-6.9,8.7-6.9,8.7v18.9c0,0,11.5-5.5,16.7-14.7c0.3,4.8,2,8.2,4.8,10.3   c2.3,1.6,5,2.1,7.3,2.1c2.4,0,4.5-0.5,5.6-0.8c0.3,1.9,0.4,3.1,0.4,3.1L88,98.4C88,98.4,83.5,86,84.8,77.5z M79,58.8l-4.2,12.6   c0,0-1-1-1.6-7.3c-0.6-6.3-5-4.9-5.9-0.5c-0.9,4.4-0.2,14.6,3.4,20c1.9,2.9,2.4,6.8,3.2,10.2c-0.1,0.2-0.1,0.3-0.2,0.4   c-1.7,0.5-7.1,1.7-10.8-0.9c-2.6-1.9-3.9-5.5-3.8-10.7c0-1.9,0-3.6-0.1-5.2c0.3-2,0.6-4.5,0.7-7c0.2-5.6,2.1-11.1,3.1-13.7   c1.2-3-2.9-6.9-4.9-2.3c-1.1,2.7-2.4,4.9-3.3,6.4c0-0.2-0.1-0.4,0-0.6c0-0.8-0.1-2.2-0.2-3.8c-0.3-3.4-0.9-9.9,0.5-11.3   C55,45,55.1,45,55.2,45h0c0.1,0,0.2,0,0.4,0c0.4,0.8,0.4,1.9,0.3,2.3l1.2,0.2l1.2,0.2c0-0.2,0.3-2.4-0.7-4.1   c0.1-1.5,0.4-2.4,0.8-2.5c0.3,0,0.5-0.1,0.7,0c0.4,0.7,0.8,1.8,0.8,3l2.5,0c0-1.7-0.5-3.4-1.3-4.6c0-0.9,0.2-2.2,0.8-2.3   c0.6-0.1,0.9,0.1,1.1,0.3c0.4,0.7,1.6,2.7,1.5,5.5l2.5,0.1c0.1-3.2-1.1-5.7-1.8-6.8c0-1,0.2-2.2,0.8-2.3c0.6-0.1,0.9,0,1.1,0.3   c0.4,0.7,1.6,2.7,1.5,5.5l2.5,0.1c0.1-3-1-5.4-1.6-6.5c0.3-1.5,1-2.3,1.9-2.5c1.1-0.2,1.9,0,2.5,0.5c1.1,1,2.4,3.7,2.1,11V43   l0.5,0.4c0,0,0.6,0.5,1.3,1.8c0.6,1.3,1.4,3.3,1.5,6.4c0.2,2.9-0.1,4.8-0.5,7C79.1,58.6,79.1,58.7,79,58.8L79,58.8z"></path>
	<path id="icon:2_2_" class="st1" d="M90.8,86.8l0.3,0c0,0-5.4-15.8-6.9-19.4c-1.2-3.1-2-10.7-8.2-13.2c-5.6-2.2-7.8-4.5-7.6-6.2   c2.1-1.9,3.5-5.1,3.5-8.7c0-5.8-3.5-10.5-7.9-10.5c-1.5,0-3,0.6-4.2,1.6c-0.2,0.1-0.3,0.2-0.4,0.4c-0.1,0.1-0.3,0.3-0.4,0.4   c-0.1,0.1-0.2,0.2-0.3,0.3c-1.6,1.9-2.6,4.7-2.6,7.8c0,3.4,1.2,6.3,3,8.2v0c0.7,1.7-1.4,4.2-7.5,6.6c-6.1,2.4-7.1,9.2-8.1,12.5   c-1.2,3.9-6.9,20.1-6.9,20.1h0.3c-0.8,0.3-1.6,0.8-2.2,1.4c-1.3,1.2-2.1,2.8-2.1,4.6c0,3.6,3.2,6.5,7.1,6.5h48.8c2,0,3.7-0.7,5-1.9   c1.3-1.2,2.1-2.8,2.1-4.6C95.5,90.7,93.5,87.9,90.8,86.8z M53.2,86.2H44l9.2-20.7V86.2z M74.8,86.2V65.6c0,0,8.4,19.8,9.3,20.7   H74.8z"></path>
	<path id="icon:1_2_" class="st0" d="M68.5,97.5c-10.7,0-18.6-7-22.1-19.7L40,58.6c-1.2-2.7-0.1-5.9,2.6-7.2   c1.3-0.6,2.8-0.7,4.1-0.2c1.3,0.5,2.4,1.4,3,2.7l4.6,6.9V41.5c0-3,2.4-5.4,5.4-5.4c0.9,0,1.7,0.2,2.4,0.6v-0.8c0-3,2.4-5.4,5.4-5.4   c2.9,0,5.2,2.2,5.4,5.1c0.7-0.4,1.5-0.6,2.4-0.6c3,0,5.4,2.4,5.4,5.4v3c0.7-0.4,1.5-0.6,2.4-0.6c3,0,5.4,2.4,5.4,5.4v29.1   C88.5,88.5,79.5,97.5,68.5,97.5z M44.9,54c-0.4,0-0.7,0.1-1,0.2c-1.2,0.6-1.7,2-1.1,3.2l0.1,0.2l6.4,19.3   C53.3,91.5,62,94.5,68.5,94.5c9.4,0,17-7.7,17-17.1V48.3c0-1.3-1.1-2.4-2.4-2.4c-1.3,0-2.4,1.1-2.4,2.4v15.2h-3V48.3   c0-0.3,0-0.5,0.1-0.7h-0.1v-7.1c0-1.3-1.1-2.4-2.4-2.4s-2.4,1.1-2.4,2.4v20.8h-3V35.9c0-1.3-1.1-2.4-2.4-2.4   c-1.3,0-2.4,1.1-2.4,2.4v26.4h-3V41.5c0-1.3-1.1-2.4-2.4-2.4c-1.3,0-2.4,1.1-2.4,2.4v29.1L47.1,55.3c-0.3-0.6-0.8-1-1.4-1.2   C45.4,54,45.2,54,44.9,54z M73.8,86.4l-1.3-2.7l0.7,1.3l-0.7-1.3c0,0,1.8-0.9,3-3c1.2-2,1.4-6.7-1.1-9.2c-1.3-1.3-3.4-2.1-5.4-2.1   c-1.4,0-3.3,0.5-4.9,2.4c-1.4,1.7-1.7,4-0.8,5.9c0.8,1.5,2.2,2.4,3.9,2.3c1.7-0.1,2.5-1,2.9-1.7c0.5-0.9,0.5-2.1,0-2.8   c-0.3-0.4-0.6-0.6-1.1-0.5c-0.2,0-0.3,0.1-0.3,0.1c-0.1,0.2,0,0.9,0.2,1.3l-2.8,1.1c-0.2-0.4-0.9-2.5,0.1-4   c0.4-0.6,1.1-1.3,2.6-1.4c1.6-0.1,2.9,0.6,3.8,1.9c1.1,1.6,1.1,4,0.2,5.9c-1,2-3,3.2-5.4,3.4c-2.9,0.2-5.4-1.3-6.8-3.9   c-1.5-2.9-1-6.5,1.1-9.2c1.8-2.1,4.3-3.4,7.1-3.5c2.9-0.1,5.8,1,7.7,3c3.5,3.7,3.2,10,1.5,12.9C76.3,85.2,73.9,86.4,73.8,86.4z"></path>
</g>
<g id="row2">
	<path id="icon:5_3_" class="st0" d="M41.5,91.9v2.2h45v-2.2H41.5z M41.5,95.9v3h45v-3H41.5z M94.4,63.5l-0.1-0.1L65.5,48.1v-2.4   c3.9-0.7,6.9-4.1,6.9-8.2c0-4.6-3.8-8.4-8.4-8.4s-8.4,3.8-8.4,8.4h3c0-3,2.4-5.4,5.4-5.4s5.4,2.4,5.4,5.4c0,3-2.4,5.4-5.4,5.4h-1.5   v5.3L33.9,63.3l-0.3,0.2c-1.8,1.5-2.4,3.9-1.6,6.1s2.8,3.6,5.2,3.6h4.3v16.7h45V73.2h4.3c2.3,0,4.4-1.4,5.2-3.6S96.2,65,94.4,63.5z    M93.2,68.6c-0.3,0.8-1,1.7-2.3,1.7h-4.3v-1.3c0-1.1-0.9-2-2-2h-41c-1.1,0-2,0.9-2,2v1.3h-4.3c-1.3,0-2.1-0.9-2.3-1.7   c-0.3-0.8-0.2-1.9,0.6-2.7L64,50.7l28.5,15.2C93.4,66.7,93.5,67.8,93.2,68.6z"></path>
	<path id="icon:4_3_" class="st0" d="M71.7,55.8c0,0.1,0,0.3-0.1,0.5c-0.1,0.5-0.5,1.2-1.5,1.3c-0.1,0-0.2,0-0.2,0   c-1.8,0-1.9-1.7-1.9-1.9l-1,0c0,1,0.7,2.8,2.8,2.8c0.2,0,0.5,0,0.7-0.1c0.8-0.2,1.3-0.6,1.6-1.1c0.4-0.6,0.5-1.2,0.5-1.7H71.7z    M60.1,55.8c0,0.2,0,1.9-1.8,1.9c0,0-0.1,0-0.1,0c-0.9,0-1.4-0.6-1.6-1c-0.2-0.4-0.2-0.7-0.2-0.8l-1,0c0,0.5,0.2,1.2,0.7,1.8   c0.4,0.4,0.9,0.8,1.6,0.9c0.2,0,0.3,0.1,0.5,0.1c2.2,0,2.7-1.8,2.7-2.8H60.1z M60.1,55.8c0,0.2,0,1.9-1.8,1.9c0,0-0.1,0-0.1,0   c-0.9,0-1.4-0.6-1.6-1c-0.2-0.4-0.2-0.7-0.2-0.8l-1,0c0,0.5,0.2,1.2,0.7,1.8c0.4,0.4,0.9,0.8,1.6,0.9c0.2,0,0.3,0.1,0.5,0.1   c2.2,0,2.7-1.8,2.7-2.8H60.1z M71.7,55.8c0,0.1,0,0.3-0.1,0.5c-0.1,0.5-0.5,1.2-1.5,1.3c-0.1,0-0.2,0-0.2,0c-1.8,0-1.9-1.7-1.9-1.9   l-1,0c0,1,0.7,2.8,2.8,2.8c0.2,0,0.5,0,0.7-0.1c0.8-0.2,1.3-0.6,1.6-1.1c0.4-0.6,0.5-1.2,0.5-1.7H71.7z M56.4,55.8l-1,0   c0,0.5,0.2,1.2,0.7,1.8l0.5-1C56.4,56.3,56.4,55.9,56.4,55.8z M71.7,55.8c0,0.1,0,0.3-0.1,0.5c-0.1,0.5-0.5,1.2-1.5,1.3l0.4,0.9   c0.8-0.2,1.3-0.6,1.6-1.1c0.4-0.6,0.5-1.2,0.5-1.7H71.7z M71.7,55.8c0,0.1,0,0.3-0.1,0.5c-0.1,0.5-0.5,1.2-1.5,1.3l0.4,0.9   c0.8-0.2,1.3-0.6,1.6-1.1c0.4-0.6,0.5-1.2,0.5-1.7H71.7z M71.7,55.8c0,0.1,0,0.3-0.1,0.5c-0.1,0.5-0.5,1.2-1.5,1.3   c-0.1,0-0.2,0-0.2,0c-1.8,0-1.9-1.7-1.9-1.9l-1,0c0,1,0.7,2.8,2.8,2.8c0.2,0,0.5,0,0.7-0.1c0.8-0.2,1.3-0.6,1.6-1.1   c0.4-0.6,0.5-1.2,0.5-1.7H71.7z M67.8,67.5c0,0-1.1,1.1-3.5,1.2c-2.5,0.1-4-1-4-1.1l-0.5,0.8c0.1,0,1.7,1.2,4.4,1.2h0.2   c2.8-0.1,4.1-1.4,4.2-1.5L67.8,67.5z M60.1,55.8c0,0.2,0,1.9-1.8,1.9c0,0-0.1,0-0.1,0c-0.9,0-1.4-0.6-1.6-1   c-0.2-0.4-0.2-0.7-0.2-0.8l-1,0c0,0.5,0.2,1.2,0.7,1.8c0.4,0.4,0.9,0.8,1.6,0.9c0.2,0,0.3,0.1,0.5,0.1c2.2,0,2.7-1.8,2.7-2.8H60.1z    M60.1,55.8c0,0.2,0,1.9-1.8,1.9c0,0-0.1,0-0.1,0c-0.9,0-1.4-0.6-1.6-1c-0.2-0.4-0.2-0.7-0.2-0.8l-1,0c0,0.5,0.2,1.2,0.7,1.8   c0.4,0.4,0.9,0.8,1.6,0.9c0.2,0,0.3,0.1,0.5,0.1c2.2,0,2.7-1.8,2.7-2.8H60.1z M67.8,67.5c0,0-1.1,1.1-3.5,1.2c-2.5,0.1-4-1-4-1.1   l-0.5,0.8c0.1,0,1.7,1.2,4.4,1.2h0.2c2.8-0.1,4.1-1.4,4.2-1.5L67.8,67.5z M71.7,55.8c0,0.1,0,0.3-0.1,0.5c-0.1,0.5-0.5,1.2-1.5,1.3   c-0.1,0-0.2,0-0.2,0c-1.8,0-1.9-1.7-1.9-1.9l-1,0c0,1,0.7,2.8,2.8,2.8c0.2,0,0.5,0,0.7-0.1c0.8-0.2,1.3-0.6,1.6-1.1   c0.4-0.6,0.5-1.2,0.5-1.7H71.7z M71.7,55.8c0,0.1,0,0.3-0.1,0.5c-0.1,0.5-0.5,1.2-1.5,1.3c-0.1,0-0.2,0-0.2,0   c-1.8,0-1.9-1.7-1.9-1.9l-1,0c0,1,0.7,2.8,2.8,2.8c0.2,0,0.5,0,0.7-0.1c0.8-0.2,1.3-0.6,1.6-1.1c0.4-0.6,0.5-1.2,0.5-1.7H71.7z    M60.1,55.8c0,0.2,0,1.9-1.8,1.9c0,0-0.1,0-0.1,0c-0.9,0-1.4-0.6-1.6-1c-0.2-0.4-0.2-0.7-0.2-0.8l-1,0c0,0.5,0.2,1.2,0.7,1.8   c0.4,0.4,0.9,0.8,1.6,0.9c0.2,0,0.3,0.1,0.5,0.1c2.2,0,2.7-1.8,2.7-2.8H60.1z M67.8,67.5c0,0-1.1,1.1-3.5,1.2c-2.5,0.1-4-1-4-1.1   l-0.5,0.8c0.1,0,1.7,1.2,4.4,1.2h0.2c2.8-0.1,4.1-1.4,4.2-1.5L67.8,67.5z M89.8,85c-6.6-3-17.7-6.5-19.5-8.2   c2.6-1.6,4.7-4.1,6.1-7.2c2,2.1,6.2,5.9,9.6,5.9c0.6,0,1.1-0.1,1.7-0.3c3.1-1.4,4.1-6.8,2.8-16.5C89.2,48.4,85.3,39.9,79,35.1   c-5.3-4-11-4.7-12.9-4.4c-0.9,0.2-1.5,0.9-1.9,2.1c-0.4-1.1-1-1.9-1.9-2.1c-1.9-0.3-7.5,0.4-12.9,4.4c-6.3,4.7-10.2,13.3-11.5,23.5   c-1.3,9.7-0.4,15.1,2.8,16.5c0.5,0.2,1.1,0.3,1.7,0.3c3.3,0,7.3-3.5,9.4-5.6c1.4,3,3.5,5.4,6,7c-1.8,1.7-12.9,5.2-19.5,8.2   c-9,4-5.9,12.3-5.9,12.3h63.3C95.7,97.3,98.8,89.1,89.8,85z M82,72c-1.7-1.2-3.4-2.8-4.8-4.2c0.8-2.2,1.2-4.7,1.2-7.3   c0-9.3-5.5-17-12.6-18.1c-0.1-0.9-0.2-1.8-0.2-2.7c2.5,0.4,10.4,2.3,13.6,11C83.1,61,82.3,69.7,82,72z M66.4,32.6   c1-0.2,6.2,0.1,11.5,4c5.9,4.4,9.5,12.6,10.8,22.3c1.5,11.4-0.4,14-1.7,14.6c-0.1,0.1-0.3,0.1-0.4,0.1c0.4-3.2,1.1-13.3-3.3-25.3   C78.9,36.7,68,34.9,65.7,34.7C65.9,33.5,66.1,32.7,66.4,32.6z M65.7,35.7c2.1,0.2,12.5,2,16.6,13c4.4,11.9,3.6,22,3.2,24.9   c-0.8-0.1-1.7-0.5-2.6-1.1c0.2-1.4,1.5-10.8-2.7-22.2c-3.5-9.4-12-11.3-14.5-11.6C65.6,37.6,65.6,36.5,65.7,35.7z M67.4,51.9   c0.5-0.3,1.1-0.6,1.8-0.6c0.2,0,0.4-0.1,0.7-0.1c2.6,0,4.6,2.1,4.6,4.6c0,1.4-0.6,2.6-1.5,3.5c-0.5,0.4-1,0.7-1.6,1   c-0.5,0.1-1,0.2-1.5,0.2c-2.6,0-4.6-2.1-4.6-4.6C65.3,54.2,66.1,52.7,67.4,51.9z M41.7,73.6c-0.1,0-0.2-0.1-0.3-0.1   c-1.3-0.6-3.2-3.2-1.7-14.6C41,49.2,44.6,41,50.5,36.6c4.6-3.4,9.1-4.1,10.9-4.1c0.3,0,0.5,0,0.6,0c0.3,0.1,0.5,0.9,0.6,2   c-2,0.2-13.2,1.9-17.6,13.7C40.6,60.2,41.3,70.3,41.7,73.6z M42.7,73.7c-0.4-2.9-1.2-13,3.2-25c4.2-11.3,15-12.9,16.8-13.1   c0.1,0.9,0.1,1.9,0,3c-2.3,0.3-11.1,2.1-14.7,11.7c-4.3,11.7-2.9,21.3-2.7,22.3C44.4,73.2,43.5,73.6,42.7,73.7z M50.9,68   C50.9,68,50.9,68,50.9,68c-1.3,1.4-3,2.9-4.6,4C46,69.9,45.1,61.1,49,50.7c3.3-8.9,11.3-10.7,13.7-11c0,0.9-0.1,1.7-0.2,2.6   c-7.2,0.9-12.9,8.7-12.9,18.2C49.6,63.2,50.1,65.7,50.9,68z M53.7,55.8c0-2.6,2.1-4.6,4.6-4.6c0.3,0,0.6,0,0.8,0.1   c0.6,0.1,1.2,0.4,1.7,0.7c1.2,0.8,2.1,2.2,2.1,3.8c0,2.6-2.1,4.6-4.6,4.6c-0.5,0-0.9-0.1-1.4-0.2c-0.6-0.2-1.2-0.5-1.6-0.9   C54.3,58.5,53.7,57.2,53.7,55.8z M56.9,67.5c0,0,3.1-2.5,5-1.8c1.9,0.6,2.8,0.3,4.1-0.1c1.3-0.4,5,2.2,5,2.2s-3.7,3.3-7,3.3   C60.8,71.1,56.9,67.5,56.9,67.5z"></path>
	<path id="icon:3_3_" class="st0" d="M100.9,40.6c-4.1,9.7,3.4,25.1-19.2,37.2c-5.5,2.3-10.4,3.1-14.2,3.4c-4,3.4-9.2,6.5-9.5,6.7   l-1.5-2.6c0,0,2.3-1.4,4.9-3.2c0.2-0.1,0.5-0.3,0.7-0.5c4.2-2.9,15.6-11.9,23.5-27.6L83.8,53C75.4,69.7,62.7,78.7,60,80.6   C59.2,77,51.1,35.8,100.9,40.6z M27.1,50.6c2.8,6.8-2.4,17.5,13.4,26c3.9,1.6,7.3,2.2,9.9,2.4c2.1,1.7,4.6,3.4,5.9,4.2l1.9-1.3   c0,0-1.6-1-3.4-2.2c-0.1-0.1-0.3-0.2-0.5-0.3c-2.9-2-10.9-8.3-16.4-19.3l1.2-0.6C44.9,71,53.8,77.3,55.7,78.6   C56.3,76.1,61.9,47.3,27.1,50.6z"></path>
	<path id="icon:2_3_" class="st0" d="M70.6,48.9V43h-4.6v-4.6h5.4v-3.6H53.4l-6.5,5.9l2.4,2.7l5.4-4.9h8.4V43h-4.6v5.9H48.1v40.2   c0,2.2,1.8,4,4,4h25c2.2,0,4-1.8,4-4V48.9H70.6z M64.7,82.6c-6.3,0-11.4-5.1-11.4-11.4c0-6.3,5.1-11.4,11.4-11.4   s11.4,5.1,11.4,11.4C76.1,77.5,71,82.6,64.7,82.6z M70,76.4c-2.6-0.8-4.6-2.3-5.3-4c-0.7,1.7-2.6,3.2-5.3,4c0.8-2.6,2.3-4.6,4-5.3   c-1.7-0.7-3.2-2.6-4-5.3c2.6,0.8,4.6,2.3,5.3,4c0.7-1.7,2.6-3.2,5.3-4c-0.8,2.6-2.3,4.6-4,5.3C67.7,71.8,69.1,73.8,70,76.4z    M65.6,72.1c1.7,0.7,4.1,0.4,6.5-0.9c-2.4-1.3-4.8-1.7-6.5-0.9c0.7-1.7,0.4-4.1-0.9-6.5c-1.3,2.4-1.7,4.8-0.9,6.5   c-1.7-0.7-4.1-0.4-6.5,0.9c2.4,1.3,4.8,1.7,6.5,0.9c-0.7,1.7-0.4,4.1,0.9,6.5C66,76.1,66.4,73.7,65.6,72.1z"></path>
	<path id="icon:1_3_" class="st0" d="M65.9,59.5h-7.1v-1.2c3.1-0.8,5.4-4.9,5.4-10.1c0-4.6-2.3-13.6-6.5-13.6s-6.5,9-6.5,13.6   c0,5.1,2.3,9.2,5.4,10.1v1.2H46.3v33.8h16V65.6h6.1C67,64.2,66.1,62,65.9,59.5z M56.5,55.9c-1.6-0.9-3.1-3.8-3.1-7.6   c0-5.4,2.5-11.3,4.2-11.3s4.2,6,4.2,11.3c0,3.9-1.5,6.7-3.1,7.6v-5.4h-2.3V55.9z M74.2,68.5v-2.8c2.3-0.6,3.9-3.6,3.9-7.4   c0-3.4-1.7-10-4.8-10c-3.1,0-4.8,6.6-4.8,10c0,3.8,1.7,6.8,3.9,7.4v2.8h-7.4v24.8h16.5V68.5H74.2z"></path>
</g>
<g id="row1">
	<path id="icon:5" class="st0" d="M88.4,76.2c0,6.9-10.9,12.4-24.4,12.4s-24.4-5.6-24.4-12.4c0-2.4,1.4-4.7,3.7-6.6   c4.2,2.5,10.7,4.1,18,4.1c9,0,16.7-2.4,20.6-6C85.9,70,88.4,72.9,88.4,76.2z M77.5,54.9c-3.4,3.2-9.7,5.3-17.1,5.3   c-6.9,0-12.9-1.8-16.4-4.6c-2.8,1.6-4.4,3.7-4.4,5.9c0,5.4,9.7,9.8,21.7,9.8s21.7-4.4,21.7-9.8C83.1,58.9,81,56.6,77.5,54.9z    M60.4,39.4c-10.1,0-18.2,4.1-18.2,9.1s8.2,9.1,18.2,9.1s18.2-4.1,18.2-9.1S70.5,39.4,60.4,39.4z"></path>
	<path id="icon:4" class="st0" d="M97,66.3c0-0.2-0.1-0.5-0.1-0.7c0-0.1,0-0.1,0-0.2c0-0.2-0.1-0.4-0.1-0.5l0-0.2l-0.1-0.2   c-2.7-5-18.8-7.3-32.6-7.3c-13.4,0-29.3,2.2-32.4,7l-0.2,0.2c0,0.4-0.1,0.9-0.2,1.4c0,0.3-0.1,0.5-0.1,0.8l0,0.3   c0,13.7,15.1,25.7,33,25.7s33-12.3,33-26L97,66.3z M34.2,65.5c2.2-2.7,14-5.5,29.8-5.5c17.2,0,28.2,3.2,29.9,5.6   c0.2,0.2,0.2,0.5,0.1,0.7c-1,2.2-11.4,5.7-30,5.7c-17.4,0-28.5-3.2-29.9-5.6C34,66.2,34,65.8,34.2,65.5z M72,47.3   c0,5.3-3.2,7.3-7.1,7.3c-3.9,0-7.1-2-7.1-7.3s7.1-11.9,7.1-11.9S72,42,72,47.3z M64,70.6c-4,0-24-0.2-24-4.5s20-4.5,24-4.5   s24,0.2,24,4.5S68,70.6,64,70.6z M42.2,66.1c1.6,1.1,9.7,2.5,21.8,2.5s20.2-1.4,21.8-2.5c-1.6-1.1-9.7-2.5-21.8-2.5   S43.8,65,42.2,66.1z"></path>
	<path id="icon:3" class="st0" d="M66.9,52.5H55.8c0,0,1.2-6.1,1.2-9.8S55.8,33,55.8,33h11.2c0,0-1.2,5.9-1.2,9.8   S66.9,52.5,66.9,52.5z M65.7,65c0-3.8,1.2-9.8,1.2-9.8H55.8c0,0,1.2,6.1,1.2,9.8c0,3.7-1.2,9.8-1.2,9.8h11.2   C66.9,74.8,65.7,68.8,65.7,65z M65.7,87.2c0-3.8,1.2-9.8,1.2-9.8H55.8c0,0,1.2,6.1,1.2,9.8c0,3.7-1.2,9.8-1.2,9.8h11.2   C66.9,97,65.7,91.1,65.7,87.2z M81.2,31.1c-0.6-0.7-4.2,1.3-8,4.5c-3.8,3.2-6.4,6.4-5.8,7.1c0.6,0.7,4.2-1.3,8-4.5   C79.2,35.1,81.8,31.9,81.2,31.1z M75.1,52c-4.5-2.1-7.8-4.5-7.4-5.4c0.4-0.9,4.4,0.2,8.9,2.3c4.5,2.1,7.8,4.5,7.4,5.4   C83.6,55.1,79.6,54.1,75.1,52z M75.1,45.2c-3.5,0.6-6.4,0.3-6.5-0.5c-0.1-0.9,2.6-2,6-2.6c3.5-0.6,6.4-0.3,6.5,0.5   S78.6,44.7,75.1,45.2z M49.8,58.2c2.6,2.2,5,3.5,5.4,3s-1.3-2.7-3.9-4.8s-5-3.5-5.4-3C45.5,53.9,47.2,56.1,49.8,58.2z M44,69   c-0.3-0.6,2-2.2,5-3.6c3-1.4,5.7-2.1,6-1.5c0.3,0.6-2,2.2-5,3.6C47,68.9,44.3,69.6,44,69z M45.9,61.2c0.1-0.6,2.1-0.7,4.4-0.4   c2.3,0.4,4.2,1.1,4.1,1.7s-2.1,0.7-4.4,0.4C47.7,62.5,45.8,61.8,45.9,61.2z"></path>
	<path id="icon:2" class="st0" d="M41.9,70.5c-1.7-3.9-2-8.7-1.7-12.9H29.5c1.6,10,8,16.9,16.9,20.3h0.8   C45.4,76.5,43.5,74.1,41.9,70.5z M86.1,57.6c0.3,4.2,0,9-1.7,12.9c-1.6,3.7-3.5,6-5.3,7.5l2.1,0.1c9-3.4,15.6-10.3,17.2-20.5H86.1z    M72.4,67.7c0,4.8-1.1,8.1-2.8,10.2c-1.6,2-3.8,2.9-6.1,2.9S59,79.9,57.4,78c-1.7-2.1-2.8-5.5-2.8-10.2c0-9.2,8.9-20.1,8.9-20.1   S72.4,58.6,72.4,67.7z M81.9,68.6c-1.6,4.4-3.8,7.1-6.1,8.5c-0.9,0.5-1.8,0.9-2.8,1c1.6-2.7,2.5-6.6,2.3-10.9   c-0.2-5.3-2.1-9.9-4.7-12.3c4.5-4.6,9.8-7.7,9.8-7.7S85,60.2,81.9,68.6z M46.2,47.1c0,0,5.3,3.1,9.8,7.7c-2.6,2.4-4.4,6.9-4.7,12.3   c-0.2,4.3,0.7,8.2,2.3,10.9c-0.9-0.1-1.9-0.5-2.8-1c-2.3-1.4-4.4-4.1-6.1-8.5C41.7,60.2,46.2,47.1,46.2,47.1z"></path>
	<path id="icon:1" class="st0" d="M74,53.2v2h2v8.2h-2v2.3h2v8.2h-2v1.9h2v8.2h-2v2.3h2v10.3c0,2.2-1.8,4-4,4H56c-2.2,0-4-1.8-4-4   V86.2h2v-2.3h-2v-8.2h2v-1.9h-2v-8.2h2v-2.3h-2v-8.2h2v-2h-2V42.1l5.7-5.6h12.1l6.1,5.6v11.1H74z M69.8,27.5h-12v6.6h12V27.5z"></path>
</g>
</svg>