<svg xmlns="http://www.w3.org/2000/svg" xmlns:xlink="http://www.w3.org/1999/xlink" xml:space="preserve" width="2048px" height="2048px" style="shape-rendering:geometricPrecision; text-rendering:geometricPrecision; image-rendering:optimizeQuality; fill-rule:evenodd; clip-rule:evenodd" viewBox="0 0 2048 2048">
 <defs>
  <style type="text/css">
   <![CDATA[
    .fil1 {fill:none}
    .fil0 {fill:#212121;fill-rule:nonzero}
   ]]>
  </style>
 </defs>
 <g id="Layer_x0020_1">
  <metadata id="CorelCorpID_0Corel-Layer"></metadata>
  <g id="_247137176">
   <path class="fil0" d="M843 851c9,1 15,8 15,17 -1,9 -8,15 -17,15 -9,2 -30,48 -50,102 -22,59 -41,124 -43,154 0,1 0,2 0,3 11,33 41,146 63,232 15,56 26,100 27,102 4,8 0,17 -8,21 -8,4 -17,0 -21,-8 -2,-4 -14,-50 -29,-107 -23,-88 -54,-203 -63,-232l0 0c-1,-2 -1,-3 -1,-5 0,-3 0,-6 0,-8 3,-32 22,-101 45,-162 25,-65 55,-122 80,-122 1,0 2,0 2,0zm-2 32c0,0 0,0 0,0l0 0zm30 645c1,-9 8,-15 17,-15 9,1 15,8 15,17 -1,17 -7,31 -16,41 -8,9 -18,15 -30,19 -11,3 -22,4 -34,4 -24,-2 -48,-11 -64,-25 -17,-15 -27,-26 -33,-39 -6,-13 -8,-26 -10,-48 0,-3 -18,-84 -38,-172 -23,-106 -48,-220 -47,-225 2,-12 3,-17 4,-22 24,-131 53,-293 165,-369 3,-2 11,-6 20,-9 7,-3 14,-5 20,-6 9,-2 17,4 19,13 2,9 -4,17 -13,19 -4,1 -9,3 -15,5 -6,2 -12,5 -13,6 -101,69 -129,224 -152,348 -2,10 -4,20 -4,22 0,2 25,110 47,212 19,88 38,171 38,176 2,18 3,29 8,37 4,8 11,16 25,29 11,9 28,16 45,17 8,1 16,0 22,-2 6,-2 11,-5 15,-9 4,-5 7,-12 8,-22z"></path>
   <path class="fil0" d="M1205 883c-9,1 -16,-6 -17,-15 -1,-9 6,-17 15,-17 0,0 1,0 2,0 24,0 55,57 80,122 23,61 42,130 45,162 0,3 0,5 0,8 0,1 0,3 -1,4l0 0c-6,22 -16,61 -27,106 -24,99 -55,222 -68,238 -6,7 -16,7 -23,2 -7,-6 -7,-16 -2,-23 9,-10 38,-129 61,-224 11,-44 21,-84 27,-105 0,-1 0,-2 0,-3 -2,-29 -21,-95 -43,-154 -20,-53 -41,-100 -50,-102zm0 0c0,0 0,0 0,0l0 0zm-62 648c-1,-9 6,-16 15,-17 9,-1 16,6 17,15 1,10 4,17 8,22 4,4 9,8 15,9 7,2 15,3 22,2 17,-1 34,-8 45,-17 14,-12 21,-20 25,-29 4,-9 6,-20 8,-37 1,-5 21,-92 42,-183 24,-102 49,-206 49,-208 -12,-65 -26,-140 -50,-207 -24,-66 -58,-125 -111,-161 -2,-1 -7,-4 -13,-6 -4,-2 -9,-3 -14,-4 -9,-2 -14,-10 -13,-19 2,-9 10,-14 19,-13 6,1 13,3 19,6 9,3 16,7 19,10 59,41 97,105 123,177 25,70 39,146 52,212 1,5 -25,116 -49,221 -21,90 -41,176 -41,179 -2,21 -4,35 -10,48 -6,13 -16,24 -33,39 -15,14 -40,23 -64,25 -12,1 -23,0 -34,-4 -11,-4 -22,-10 -30,-19 -9,-10 -15,-24 -16,-41z"></path>
   <path class="fil0" d="M559 1338c-9,-2 -14,-10 -13,-19 2,-9 10,-14 19,-13 56,11 86,38 123,70 11,9 22,19 35,29 7,5 8,15 3,22 -5,7 -15,8 -22,3 -13,-10 -25,-21 -36,-30 -33,-29 -60,-53 -108,-62zm262 160c-8,-4 -11,-13 -7,-21 4,-8 13,-11 21,-7 10,5 20,10 32,14l16 -5c43,-13 127,-38 140,-38 16,0 82,19 127,32 15,4 28,8 34,10 11,-5 21,-10 31,-16 8,-4 17,-1 22,6 4,8 1,17 -6,22 -20,11 -40,20 -63,29 -23,8 -48,15 -80,21l0 0c-2,0 -4,0 -6,0 -2,0 -5,0 -7,0 -2,1 -4,2 -6,3 -2,2 -3,3 -4,6 -1,2 -1,4 -1,7l18 136c3,17 5,29 8,37 4,-13 7,-33 6,-50 -1,-16 0,-33 3,-46 4,-19 12,-33 22,-35 23,-4 73,-24 125,-44 50,-20 102,-40 140,-51 34,-10 193,-73 289,-139 27,-18 48,-37 59,-53 8,-12 10,-23 3,-32 -7,-9 -22,-17 -47,-24 -37,-11 -89,-14 -145,-13 -56,0 -116,4 -168,8 -9,1 -16,-6 -17,-15 -1,-9 6,-16 15,-17 52,-4 112,-8 170,-8 58,0 114,3 154,14 31,9 51,20 62,34 18,21 16,45 -1,70 -14,20 -38,41 -68,62 -98,68 -263,133 -298,143 -36,10 -88,30 -137,50 -53,21 -104,41 -130,46 -3,1 4,3 3,9 -2,11 -3,25 -2,38 2,26 -4,58 -13,75 0,0 0,1 -1,1 -4,8 -9,13 -16,16 -10,4 -19,2 -27,-8 -8,-9 -15,-29 -21,-65l0 0 0 0 -18 -137c-1,-7 0,-15 2,-21 2,-7 6,-13 12,-18 5,-5 12,-9 19,-11 6,-2 12,-2 18,-2 18,-4 34,-7 48,-12 -43,-12 -100,-28 -110,-28 -7,0 -61,16 -104,28 15,4 30,8 46,11 6,-1 12,0 18,2 7,2 13,6 19,11 5,5 9,11 12,18 2,7 3,14 2,21l-18 137 0 1c-6,36 -13,56 -21,65 -8,10 -18,12 -27,8 -7,-3 -12,-9 -16,-17 -9,-17 -14,-48 -13,-75 1,-13 0,-27 -2,-38 -1,-6 6,-9 3,-9 -27,-5 -77,-25 -130,-46 -49,-19 -101,-40 -137,-50 -36,-10 -145,-43 -235,-89 -42,-21 -80,-45 -106,-71 -29,-29 -44,-60 -34,-93 1,-5 3,-10 6,-15 19,-38 84,-53 162,-57 74,-3 161,3 233,10 9,1 15,9 14,17 -1,9 -9,15 -17,14 -70,-7 -156,-13 -228,-10 -67,3 -122,13 -135,39 -1,3 -3,6 -3,9 -6,20 5,41 26,62 24,23 59,45 98,65 88,44 194,77 229,86 38,10 90,31 140,51 52,20 101,40 125,44 11,2 19,16 22,35 3,13 4,30 3,46 -1,17 2,36 6,50 3,-8 5,-20 8,-37l18 -136c0,-2 0,-4 -1,-7 -1,-2 -2,-4 -4,-6 -2,-2 -4,-3 -6,-3 -2,-1 -4,-1 -6,0 -2,0 -4,1 -7,0 -25,-5 -48,-11 -70,-19 -26,-9 -49,-19 -69,-28zm175 204l0 0m-233 -434c-9,-1 -15,-8 -15,-17 1,-9 8,-15 17,-15 7,1 15,1 22,1 3,0 6,0 8,0 3,0 6,1 8,3l0 0c59,41 130,58 201,58 82,0 166,-23 236,-59 2,-1 5,-2 7,-2 2,0 4,0 6,0l0 0c5,0 9,0 28,-3 9,-1 17,5 18,14 1,9 -5,17 -14,18 -20,3 -26,3 -32,3l0 0 -1 0c-74,37 -161,61 -247,61 -76,0 -151,-18 -215,-61l-3 0c-7,0 -15,0 -23,-1zm579 154c-7,5 -17,4 -22,-3 -5,-7 -4,-17 3,-22 6,-5 9,-8 13,-10 46,-37 83,-67 147,-79 9,-2 17,4 19,13 2,9 -4,17 -13,19 -56,11 -90,39 -133,73 -5,4 -10,8 -13,10z"></path>
   <path class="fil0" d="M914 695c-9,2 -17,-4 -19,-13 -2,-9 4,-17 13,-19 5,-1 9,-2 10,-2 2,0 4,-1 4,-1l0 0c13,-4 23,-10 30,-17 6,-8 10,-19 11,-36 0,-9 8,-16 17,-15 9,0 16,8 15,17 -1,24 -8,42 -18,55 -11,13 -25,21 -44,27l0 0 0 0c-2,1 -4,1 -8,2 -4,1 -8,2 -11,2zm138 -84c-1,-9 6,-16 15,-17 9,-1 16,6 17,15 1,16 5,27 11,35 6,8 16,13 29,17 0,0 2,1 6,1 6,1 11,2 14,3 9,2 14,10 12,19 -2,9 -10,14 -19,12 -7,-1 -13,-3 -14,-3 -4,-1 -8,-2 -9,-2 -18,-6 -33,-14 -44,-26 -11,-13 -17,-29 -19,-53z"></path>
   <path class="fil0" d="M1026 272c48,0 88,15 116,43 28,28 44,67 44,114 0,53 -18,103 -46,140 -29,39 -69,63 -111,63 -43,0 -85,-25 -115,-64 -30,-38 -49,-88 -49,-140l0 0c0,-47 16,-87 44,-114 28,-27 68,-43 116,-43zm94 66c-22,-22 -55,-34 -94,-34 -40,0 -72,12 -94,34 -22,22 -35,53 -35,91l0 0c0,45 17,88 42,120 25,31 57,52 90,52 32,0 63,-20 86,-51 24,-32 40,-75 40,-121 0,-38 -12,-70 -35,-91z"></path>
   <path class="fil0" d="M824 1258c-4,8 -14,10 -22,6 -8,-4 -10,-14 -6,-22 7,-12 22,-45 32,-82 6,-22 10,-46 8,-65l-3 -26 0 0c-5,-49 -7,-69 -7,-85 0,-11 2,-20 5,-33 3,-14 7,-34 13,-72 5,-37 -1,-85 -6,-126 -3,-23 -6,-45 -6,-63 0,-8 6,-15 14,-16l0 0c1,0 16,-2 30,-5 11,-2 21,-3 24,-4 9,-1 17,5 18,14 0,0 0,1 0,1l0 0c3,73 16,137 36,182 17,38 40,60 67,60 27,0 50,-22 67,-60 21,-44 33,-108 36,-182 0,-9 8,-16 17,-15 1,0 1,0 2,0 4,1 14,2 25,4 15,2 33,5 34,5 9,1 15,9 14,18 0,4 0,7 0,12 -1,41 -4,123 4,179 14,96 13,98 4,137 -4,16 -9,38 -16,78 -3,19 0,41 6,63 10,36 26,70 33,83 4,8 2,17 -6,22 -8,4 -17,2 -22,-6 -8,-14 -26,-51 -36,-91 -7,-25 -10,-52 -6,-76 7,-41 12,-64 16,-80 8,-33 8,-34 -5,-125 -8,-58 -6,-140 -5,-183 -6,-1 -14,-2 -21,-3l-8 -1c-4,70 -17,132 -38,176 -23,49 -55,79 -96,79 -41,0 -73,-29 -96,-79 -21,-44 -34,-106 -38,-176l-7 1 -16 2c1,13 3,29 5,46 5,44 12,94 6,135 -6,38 -10,59 -13,74 -3,12 -4,19 -4,28 -1,13 2,33 7,80l0 0c0,5 1,11 3,27 2,24 -2,51 -9,77 -10,39 -27,76 -35,89z"></path>
  </g>
 </g>
 <polygon class="fil1" points="0,0 2048,0 2048,2048 0,2048 "></polygon>
</svg>