<svg xmlns="http://www.w3.org/2000/svg" viewBox="0 0 32 32"><title>Artboard-15</title><g id="Stairs"><path d="M6.5,16a.4981.4981,0,0,0,.3535-.1465L15,7.707V9.5a.5.5,0,0,0,1,0v-3a.5006.5006,0,0,0-.5-.5h-3a.5.5,0,0,0,0,1h1.793L6.1465,15.1465A.5.5,0,0,0,6.5,16Z"></path><path d="M25.5,7h-4a.5.5,0,0,0-.5.5V10H18.5a.5.5,0,0,0-.5.5V13H15.5a.5.5,0,0,0-.5.5V16H12.5a.5.5,0,0,0-.5.5V19H9.5a.5.5,0,0,0-.5.5V22H6.5a.5.5,0,0,0-.5.5v3a.5.5,0,0,0,.5.5h19a.5.5,0,0,0,.5-.5V7.5A.5.5,0,0,0,25.5,7Z"></path></g></svg>