<svg xmlns="http://www.w3.org/2000/svg" viewBox="0 0 32 32"><title>Artboard-27</title><g id="Garage"><circle cx="12.5" cy="27.5" r="1.5"></circle><circle cx="20.5" cy="27.5" r="1.5"></circle><path d="M25,22.5a.4951.4951,0,0,0-.5-.5H10.74a3.4815,3.4815,0,0,0-2.47,1.03L7.15,24.15a.4825.4825,0,0,0-.12.51l1,3A.4863.4863,0,0,0,8.5,28h1.55a2.7341,2.7341,0,0,1-.05-.5,2.5,2.5,0,0,1,5,0,2.7341,2.7341,0,0,1-.05.5h3.1a2.7341,2.7341,0,0,1-.05-.5,2.5,2.5,0,0,1,5,0,2.7341,2.7341,0,0,1-.05.5h.55a.4691.4691,0,0,0,.35-.15l1-1A.4691.4691,0,0,0,25,26.5ZM17.5,24h-1a.5.5,0,0,1,0-1h1a.5.5,0,0,1,0,1Z"></path><path d="M12.3,21H18V18h-.84a4.4955,4.4955,0,0,0-3.18,1.32Z"></path><path d="M20.26,18H19v3h5.5a.4869.4869,0,0,1,.12.01,2.5393,2.5393,0,0,0-.36-.45l-1.53-1.53A3.4815,3.4815,0,0,0,20.26,18Z"></path><path d="M25,29h4.5a.4951.4951,0,0,0,.5-.5V12H27V28H25Z"></path><rect x="6" y="12" width="20" height="1"></rect><rect x="6" y="14" width="20" height="1"></rect><rect x="6" y="16" width="20" height="1"></rect><path d="M7,29H2.5a.4951.4951,0,0,1-.5-.5V12H5V28H7Z"></path><path d="M29.5,3H2.5a.5.5,0,0,0-.5.5V11H30V3.5A.5.5,0,0,0,29.5,3Z"></path></g></svg>