<svg xmlns="http://www.w3.org/2000/svg" viewBox="0 0 48 48"><title>call, hotel, support</title><g><path d="M36.2673,27.3838a3.0837,3.0837,0,0,0-4.2595,0L29.351,30.0406c-1.5792.3113-4.5913-1.3606-7.3125-4.078-2.7173-2.7192-4.3864-5.7332-4.08-7.3144L20.6154,15.99a3.0162,3.0162,0,0,0,0-4.2585L17.7692,8.8848a3.019,3.019,0,0,0-4.2594.0009l-2.8462,2.8462c-5.6181,5.6191-1.54,14.8144,4.6265,20.98,4.1111,4.11,9.5672,7.292,14.4123,7.292a8.9785,8.9785,0,0,0,6.5649-2.6685L39.1134,34.49a3.0126,3.0126,0,0,0,0-4.26Z" fill="#646464"></path><path d="M27.0026,21.996h3.9979a.9995.9995,0,1,0,0-1.9989H28.0021v-1.999h2.9984a.9989.9989,0,0,0,1-1V13.0008a.9989.9989,0,0,0-1-.9995H27.0026a.9995.9995,0,0,0,0,1.9989h2.9985v1.999H27.0026a.9988.9988,0,0,0-.9994.9994v3.9979A.9989.9989,0,0,0,27.0026,21.996Z" fill="#646464"></path><path d="M38.9963,12.0013a.9989.9989,0,0,0-.9995.9995v2.9984H35.9979V13.0008a1,1,0,0,0-1.999,0v3.9978a.9989.9989,0,0,0,.9995,1h2.9984v2.9984a1,1,0,0,0,1.999,0V13.0008A.9989.9989,0,0,0,38.9963,12.0013Z" fill="#646464"></path></g></svg>