<svg xmlns="http://www.w3.org/2000/svg" viewBox="0 0 48 48"><title>fitness, gym, hotel</title><g><path d="M12,21v6a1.0006,1.0006,0,0,0,1,1h1V20H13A1.0006,1.0006,0,0,0,12,21Z" fill="#646464"></path><path d="M17,16a1.0006,1.0006,0,0,0-1,1V31a1,1,0,0,0,2,0V17A1.0006,1.0006,0,0,0,17,16Z" fill="#646464"></path><rect x="20" y="23" width="8" height="2" fill="#646464"></rect><path d="M24,4A20,20,0,1,0,44,24,20.0223,20.0223,0,0,0,24,4ZM38,27a3.0033,3.0033,0,0,1-3,3H34v1a3,3,0,0,1-6,0V27H20v4a3,3,0,0,1-6,0V30H13a3.0033,3.0033,0,0,1-3-3V21a3.0033,3.0033,0,0,1,3-3h1V17a3,3,0,0,1,6,0v4h8V17a3,3,0,0,1,6,0v1h1a3.0033,3.0033,0,0,1,3,3Z" fill="#646464"></path><path d="M31,16a1.0013,1.0013,0,0,0-1,1V31a1,1,0,0,0,2,0V17A1.0013,1.0013,0,0,0,31,16Z" fill="#646464"></path><path d="M35,20H34v8h1a1.0013,1.0013,0,0,0,1-1V21A1.0013,1.0013,0,0,0,35,20Z" fill="#646464"></path></g></svg>