<svg xmlns="http://www.w3.org/2000/svg" viewBox="0 0 48 48"><title>five, stars, hotel</title><g><path d="M13.09,23.3682a1.0013,1.0013,0,0,0,.9863-1.169l-.5019-2.9228,2.123-2.07a.9989.9989,0,0,0-.5527-1.705l-2.9356-.4268L10.8964,12.416a1.04,1.04,0,0,0-1.7929,0L7.791,15.0742l-2.9356.4268a.9989.9989,0,0,0-.5527,1.705l2.123,2.07-.5019,2.9228a1,1,0,0,0,1.4511,1.0537L10,21.874l2.625,1.3789A.9918.9918,0,0,0,13.09,23.3682Z" fill="#646464"></path><path d="M27.09,23.3682a1.0014,1.0014,0,0,0,.9863-1.169l-.502-2.9228,2.1231-2.07a.9988.9988,0,0,0-.5528-1.705l-2.9355-.4268L24.8965,12.416a1.04,1.04,0,0,0-1.793,0L21.791,15.0742l-2.9355.4268a.9988.9988,0,0,0-.5528,1.705l2.1231,2.07-.502,2.9228a1,1,0,0,0,1.4512,1.0537L24,21.874l2.625,1.3789A.9922.9922,0,0,0,27.09,23.3682Z" fill="#646464"></path><path d="M43.9512,16.1806a1.0007,1.0007,0,0,0-.8066-.68l-2.9356-.4268L38.8965,12.416a1.04,1.04,0,0,0-1.7929,0l-1.3125,2.6582-2.9356.4268a.9989.9989,0,0,0-.5527,1.705l2.123,2.07-.5019,2.9228a1,1,0,0,0,1.4511,1.0537L38,21.874l2.6251,1.3789a1,1,0,0,0,1.4511-1.0537l-.5019-2.9228,2.123-2.07A1,1,0,0,0,43.9512,16.1806Z" fill="#646464"></path><path d="M36.1446,29.5l-2.9356-.4258-1.3125-2.66a1.0432,1.0432,0,0,0-1.793,0l-1.3125,2.66L25.8555,29.5a1.0007,1.0007,0,0,0-.5528,1.7071l2.1231,2.07-.502,2.9238A1,1,0,0,0,28.375,37.254L31,35.8731l2.625,1.3809a.9815.9815,0,0,0,.4649.1152,1.0011,1.0011,0,0,0,.9863-1.168l-.5019-2.9238,2.123-2.07A1.0007,1.0007,0,0,0,36.1446,29.5Z" fill="#646464"></path><path d="M22.1445,29.5l-2.9355-.4258-1.3125-2.66a1.0432,1.0432,0,0,0-1.793,0l-1.3125,2.66L11.8554,29.5a1.0007,1.0007,0,0,0-.5527,1.7071l2.123,2.07-.5019,2.9238A1,1,0,0,0,14.375,37.254L17,35.8731l2.625,1.3809a.9814.9814,0,0,0,.4648.1152,1.0012,1.0012,0,0,0,.9864-1.168l-.502-2.9238,2.1231-2.07A1.0007,1.0007,0,0,0,22.1445,29.5Z" fill="#646464"></path></g></svg>