<svg xmlns="http://www.w3.org/2000/svg" xmlns:xlink="http://www.w3.org/1999/xlink" x="0px" y="0px" viewBox="0 0 64 64" style="enable-background:new 0 0 64 64;" xml:space="preserve">
<g id="bucket">
</g>
<g id="lamp">
</g>
<g id="hand">
</g>
<g id="seeds">
</g>
<g id="cactus">
</g>
<g id="bonsai">
</g>
<g id="bug">
</g>
<g id="calendar">
</g>
<g id="plant">
</g>
<g id="green_house">
</g>
<g id="female_gardener">
</g>
<g id="male_gardener">
</g>
<g id="watering_can">
</g>
<g id="flower_decor">
</g>
<g id="flourist">
</g>
<g id="axe">
</g>
<g id="fertilizer_spray">
</g>
<g id="house">
</g>
<g id="tulip">
</g>
<g id="hose">
</g>
<g id="wheelbarrow">
</g>
<g id="bench">
</g>
<g id="mower">
</g>
<g id="fertilizer">
</g>
<g id="tree">
</g>
<g id="hand_shovel">
</g>
<g id="shovel">
</g>
<g id="fence">
</g>
<g id="growth">
	<g>
		<path d="M62.9404,56.0635c-0.6509-4.2513-3.9615-8.5247-9.9868-10.0762v-4.0828l2.4741-3.2633    c0.3335-0.4399,0.2476-1.0674-0.1929-1.4009c-0.4399-0.334-1.0664-0.2476-1.4009,0.1929l-1.8809,2.481l-1.8837-2.4814    c-0.334-0.4399-0.9609-0.5254-1.4009-0.1919c-0.4399,0.334-0.5259,0.9609-0.1919,1.4009l2.4771,3.263v3.6832    c-0.9657-0.1379-1.9841-0.2177-3.0669-0.2177c-2.8438,0-4.4741-0.627-6.3618-1.353c-1.9431-0.7469-4.1128-1.577-7.8511-1.8047    V30.0695l3.1721-3.0595c1.4999,1.1611,3.2862,1.7464,5.1628,1.7464c2.3994,0,4.9399-0.9453,7.1914-2.8232    c4.708-3.9263,7.3262-11.6968,1.9497-19.478c-0.2188-0.3184-0.5547-0.5107-0.9209-0.5288    c-0.6763-0.0244-1.0664,0.4375-1.6147,1.0879c-0.8628,1.0239-2.3032,2.7339-5.2236,3.7739    c-4.7764,1.1016-8.0381,3.6191-9.1875,7.0938c-0.8553,2.5834-0.373,5.3958,1.259,7.684l-2.783,2.6841l-3.5867-3.5109    c0.968-1.2596,1.6359-2.7444,1.8631-4.3441c0.5044-3.5474-1.1968-6.9717-4.6665-9.395c-2.3398-1.6343-4.6782-2.0679-6.9395-2.4868    c-2.5825-0.479-5.022-0.9312-7.3945-3.1855c-0.292-0.2773-0.5376-0.5342-0.7529-0.7578    c-0.7607-0.7925-1.8037-1.8779-3.1216-0.7783c-0.9644,0.7983-1.519,2.3076-1.6045,4.3643    c-0.1895,4.5649,2.0229,11.5254,7.394,16.7852c2.3652,2.3174,5.1006,3.5317,7.8105,3.5317c0.9824,0,1.9619-0.1597,2.9185-0.4844    c1.1622-0.3945,2.2099-1.0197,3.1178-1.7962l3.9569,3.8734v12.0853c-0.0219-0.0001-0.042-0.0008-0.064-0.0008    c-5.124,0-7.7173,1.0366-10.0054,1.9512c-1.7036,0.6812-3.1748,1.269-5.4912,1.269c-0.8222,0-1.5984,0.0562-2.353,0.1369v-3.7349    l2.4775-3.2599c0.334-0.4395,0.2485-1.0669-0.1914-1.4014c-0.4399-0.334-1.0674-0.2476-1.4014,0.1914l-1.8844,2.4794    l-1.8812-2.4789c-0.333-0.4399-0.9609-0.5264-1.4009-0.1919c-0.4399,0.3335-0.5259,0.9609-0.1919,1.4009l2.4736,3.2595v4.0501    C5.2822,47.209,1.7356,51.6475,1.0591,56.064c-0.2021,1.3262,0.1143,2.5903,0.8682,3.4678    c0.6265,0.729,1.5146,1.1304,2.5005,1.1304h55.1445c0.9858,0,1.874-0.4014,2.5005-1.1304    C62.8267,58.6543,63.1431,57.3901,62.9404,56.0635z M36.1016,18.5098c0.283-0.8549,0.7379-1.6405,1.3504-2.3458    c1.3911-1.6023,3.6939-2.7056,6.5495-3.4706c3.3506-1.1768,5.0864-3.1406,6.043-4.2725    c3.9731,6.4858,1.8721,12.6426-2.125,15.9761c-2.6207,2.186-6.5885,3.3456-9.614,1.2054l5.1591-4.9759l3.6575,0.3027    c0.0283,0.0024,0.0562,0.0034,0.0835,0.0034c0.5151,0,0.9521-0.395,0.9956-0.9175c0.0454-0.5503-0.3638-1.0337-0.9141-1.0791    l-1.9063-0.1578l1.0762-1.038c0.3975-0.3833,0.4087-1.0166,0.0254-1.4141c-0.3838-0.397-1.0161-0.4072-1.4141-0.0254    l-2.6144,2.5216c-0.006,0.0051-0.0109,0.0109-0.0168,0.0162l-1.8695,1.8031l0.097-1.7531    c0.0303-0.5513-0.3921-1.0229-0.9434-1.0537c-0.5459-0.0234-1.0234,0.3921-1.0537,0.9434l-0.216,3.9044l-1.5388,1.4841    C35.7874,22.4446,35.4793,20.3901,36.1016,18.5098z M23.9561,26.0942c-2.8979,0.9844-5.9824,0.0669-8.6865-2.582    c-4.9316-4.8296-6.9663-11.1509-6.7949-15.2734c0.061-1.4712,0.4063-2.3687,0.7764-2.7944    c0.146,0.1328,0.3413,0.3364,0.5088,0.5107c0.2334,0.2427,0.5005,0.521,0.8174,0.8223c2.8027,2.6631,5.6523,3.1914,8.4077,3.7021    c2.1465,0.3979,4.1743,0.7734,6.1587,2.1602c2.8711,2.0049,4.2319,4.6592,3.832,7.4736    c-0.1644,1.1572-0.6455,2.2521-1.3337,3.2058l-2.9787-2.9157l0.2401-2.8653c0.0459-0.5503-0.3628-1.0337-0.9131-1.0801    c-0.5513-0.0474-1.0337,0.3628-1.0801,0.9131l-0.1019,1.2164l-4.6691-4.5704c-0.394-0.3853-1.0264-0.3784-1.4146,0.0151    c-0.3862,0.395-0.3794,1.0278,0.0151,1.4146l1.1849,1.1599l-2.3973-0.1057c-0.5371-0.0112-1.0186,0.4033-1.043,0.9551    s0.4033,1.0186,0.9551,1.043l4.6267,0.2039l6.2063,6.0753C25.584,25.3443,24.8071,25.8055,23.9561,26.0942z M60.5557,58.228    c-0.2476,0.2881-0.5781,0.4341-0.9834,0.4341H4.4277c-0.4053,0-0.7358-0.146-0.9834-0.4341    c-0.3677-0.4282-0.5205-1.1245-0.4082-1.8618c0.6357-4.1499,4.4414-8.9961,13.0771-8.9961c2.7017,0,4.417-0.6855,6.2334-1.4116    c2.1206-0.8477,4.5244-1.8086,9.2632-1.8086c4.688,0,6.98,0.8813,9.1973,1.7339c1.9873,0.7646,3.8643,1.4863,7.0796,1.4863    c8.6357,0,12.4414,4.8462,13.0767,8.9956C61.0762,57.1035,60.9233,57.7998,60.5557,58.228z"></path>
		<path d="M14.5454,51.2813h-0.5952c-0.5522,0-1,0.4478-1,1s0.4478,1,1,1h0.5952c0.5522,0,1-0.4478,1-1    S15.0977,51.2813,14.5454,51.2813z"></path>
		<path d="M29.6147,47.918H29.02c-0.5522,0-1,0.4478-1,1s0.4478,1,1,1h0.5947c0.5522,0,1-0.4478,1-1S30.167,47.918,29.6147,47.918z"></path>
		<path d="M43.0815,50.0073h-0.5947c-0.5522,0-1,0.4478-1,1s0.4478,1,1,1h0.5947c0.5522,0,1-0.4478,1-1    S43.6338,50.0073,43.0815,50.0073z"></path>
		<path d="M35.1411,53.0938h-0.5952c-0.5522,0-1,0.4478-1,1s0.4478,1,1,1h0.5952c0.5522,0,1-0.4478,1-1    S35.6934,53.0938,35.1411,53.0938z"></path>
		<path d="M50.627,53.0938h-0.5947c-0.5522,0-1,0.4478-1,1s0.4478,1,1,1h0.5947c0.5522,0,1-0.4478,1-1    S51.1792,53.0938,50.627,53.0938z"></path>
		<path d="M22.4438,53.5977h-0.5947c-0.5522,0-1,0.4478-1,1s0.4478,1,1,1h0.5947c0.5522,0,1-0.4478,1-1    S22.9961,53.5977,22.4438,53.5977z"></path>
	</g>
</g>
<g id="flower">
</g>
</svg>