<svg xmlns="http://www.w3.org/2000/svg" xmlns:xlink="http://www.w3.org/1999/xlink" id="&#x421;&#x43B;&#x43E;&#x439;_1" x="0px" y="0px" viewBox="0 0 244 64" xml:space="preserve">
<g>
	<image width="106" height="42" xlink:href="BA88D6B064A546AD.png" transform="matrix(1 0 0 1 10 12)">
	</image>
	<g>
		<polygon fill="#5FC4EB" points="56.8,12.1 51.2,37.9 50.7,37.9 43.8,12.1 34.2,12.1 27.4,37.9 26.9,37.9 21.2,12.1 10.8,12.1     21.9,53.2 31.7,53.2 38.6,27.3 39.1,27.3 46,53.2 55.9,53.2 67,12.1   "></polygon>
	</g>
	<image width="106" height="42" xlink:href="BA88D6B064A546AF.png" transform="matrix(1 0 0 1 10 12)">
	</image>
</g>
<g>
	<path fill="#284E9C" d="M132.3,22.3h-2.8l-1.4-7.3l-1.2,7.3h-2.8l-2.2-8.6h2.2l1.3,7.4h0.5l1.1-7.4h2.7L131,21h0.4   c0.4-2.3,0.9-5,1.3-7.4h1.6L132.3,22.3z"></path>
	<path fill="#284E9C" d="M135.1,22.3v-8.6h5.3v1h-3.3v2.7h2.6v1h-2.6v3h3.3v1H135.1z"></path>
	<path fill="#284E9C" d="M149.2,22.3l-0.4-2v0.1h-3.1v-0.1c-0.1,0.6-0.3,1.4-0.5,2h-1.5l2.2-8.6h3.1l2.4,8.6H149.2z M147.5,14.6   h-0.7l-1,4.8h2.7L147.5,14.6z"></path>
	<path fill="#284E9C" d="M157.2,22.3l-2.5-4v-0.6c2,0,2.3-0.5,2.3-1.1v-0.6c0-0.8-0.2-1.3-1.6-1.3h-1.1c0,2.5,0,5.1,0,7.6h-2v-8.6   h3.7c2,0,3.2,0.7,3.2,2.3v0.5c0,1.5-0.8,2.1-2.4,2.1c0.9,1.2,2,2.6,2.9,3.8H157.2z"></path>
	<path fill="#284E9C" d="M160.3,22.3v-8.6h5.3v1h-3.3v2.7h2.6v1h-2.6v3h3.3v1H160.3z"></path>
	<path fill="#284E9C" d="M126.1,38c-1.7,0-3.5-0.2-3.5-2.3v-4.1c0-2.3,2.1-2.4,3.5-2.4l1.8,0.2v0.9h-1.7c-1.5,0-1.6,0.4-1.6,1.3v4.1   c0,0.9,0,1.3,1.6,1.3h1.7v0.9L126.1,38z"></path>
	<path fill="#284E9C" d="M135.8,35.6c0,2.4-2.6,2.3-3.7,2.3c-2,0-3.2-0.7-3.2-2.3v-4.1c0-1.6,1.2-2.3,3.2-2.3h0.5   c2,0,3.2,0.7,3.2,2.3V35.6z M133.8,31.4c0-1-0.5-1.3-1.4-1.3h-0.1c-1,0-1.4,0.4-1.4,1.3v4.3c0,1,0.4,1.3,1.4,1.3h0.1   c1,0,1.4-0.4,1.4-1.3V31.4z"></path>
	<path fill="#284E9C" d="M141.8,37.9l-3.4-6.9v6.9h-1.2v-8.6h2.4l3.2,6.9v-6.9h1.2v8.6H141.8z"></path>
	<path fill="#284E9C" d="M150.1,37.9l-3.4-6.9v6.9h-1.2v-8.6h2.4l3.2,6.9v-6.9h1.2v8.6H150.1z"></path>
	<path fill="#284E9C" d="M154,37.9v-8.6h5.3v1H156v2.7h2.6v1H156v3h3.3v1H154z"></path>
	<path fill="#284E9C" d="M163.7,38c-1.7,0-3.5-0.2-3.5-2.3v-4.1c0-2.3,2.1-2.4,3.5-2.4l1.8,0.2v0.9h-1.7c-1.5,0-1.6,0.4-1.6,1.3v4.1   c0,0.9,0,1.3,1.6,1.3h1.7v0.9L163.7,38z"></path>
	<path fill="#284E9C" d="M169.9,30.2v7.6h-2v-7.6H166v-1h5.7v1H169.9z"></path>
	<path fill="#284E9C" d="M172.7,37.9v-8.6h2v8.6H172.7z"></path>
	<path fill="#284E9C" d="M180.9,37.9l-3.4-6.9v6.9h-1.2v-8.6h2.4l3.2,6.9v-6.9h1.2v8.6H180.9z"></path>
	<path fill="#284E9C" d="M188,38c-1.7,0-3.5-0.1-3.5-2.3v-4.1c0-2.4,2.2-2.4,3.6-2.4l2.8,0.2v0.9h-2.7c-1.6,0-1.7,0.4-1.7,1.3v4   c0,0.9,0.1,1.3,1.6,1.3h1.2v-4h2v4.9L188,38z"></path>
	<path fill="#284E9C" d="M129.5,48.1c0,1.7-1,2.3-3.2,2.3h-1.5v3h-2v-8.6h3.5c2.1,0,3.2,0.8,3.2,2.3V48.1z M127.6,47.2   c0-0.9-0.4-1.3-1.4-1.3h-1.4v3.6h1.4c1,0,1.4-0.4,1.4-1.3V47.2z"></path>
	<path fill="#284E9C" d="M130.7,53.5v-8.6h5.3v1h-3.3v2.7h2.6v1h-2.6v3h3.3v1H130.7z"></path>
	<path fill="#284E9C" d="M143.8,51.2c0,2.4-2.6,2.3-3.7,2.3c-2,0-3.2-0.7-3.2-2.3v-4.1c0-1.6,1.2-2.3,3.2-2.3h0.5   c2,0,3.2,0.7,3.2,2.3V51.2z M141.8,47c0-1-0.5-1.3-1.4-1.3h-0.1c-1,0-1.4,0.4-1.4,1.3v4.3c0,1,0.4,1.3,1.4,1.3h0.1   c1,0,1.4-0.4,1.4-1.3V47z"></path>
	<path fill="#284E9C" d="M152,48.1c0,1.7-1,2.3-3.2,2.3h-1.5v3h-2v-8.6h3.5c2.1,0,3.2,0.8,3.2,2.3V48.1z M150,47.2   c0-0.9-0.4-1.3-1.4-1.3h-1.4v3.6h1.4c1,0,1.4-0.4,1.4-1.3V47.2z"></path>
	<path fill="#284E9C" d="M157.6,53.5h-4.5v-8.6h2v7.6h2.5V53.5z"></path>
	<path fill="#284E9C" d="M158.5,53.5v-8.6h5.3v1h-3.3v2.7h2.6v1h-2.6v3h3.3v1H158.5z"></path>
</g>
<g>
	<path fill="#284E9C" d="M109.4,53.9h-4v-1h4V53.9z M109.4,51.9h-4v-1h4V51.9z M109.4,49.8h-4v-1h4V49.8z M109.4,47.8h-4v-1h4V47.8z    M109.4,45.8h-4v-1h4V45.8z M109.4,43.8h-4v-1h4V43.8z M109.4,41.8h-4v-1h4V41.8z M109.4,39.7h-4v-1h4V39.7z M109.4,37.7h-4v-1h4   V37.7z M109.4,35.7h-4v-1h4V35.7z M109.4,33.7h-4v-1h4V33.7z M109.4,31.7h-4v-1h4V31.7z M109.4,29.7h-4v-1h4V29.7z M109.4,27.6h-4   v-1h4V27.6z M109.4,25.6h-4v-1h4V25.6z M109.4,23.6h-4v-1h4V23.6z M109.4,21.6h-4v-1h4V21.6z M109.4,19.6h-4v-1h4V19.6z    M109.4,17.6h-4v-1h4V17.6z M109.4,15.5h-4v-1h4V15.5z M109.4,13.5h-4v-1h4V13.5z"></path>
</g>
</svg>