<svg xmlns="http://www.w3.org/2000/svg" width="128" height="128" viewBox="0 0 128 128"><title>PLAYGROUND</title><g><path d="M122.653,116.4h-.778V55.771a1.75,1.75,0,0,0-1.75-1.75h-8a1.75,1.75,0,0,0-1.75,1.75V63H80.247V55.771a1.75,1.75,0,0,0-1.75-1.75h-8a1.749,1.749,0,0,0-1.75,1.75V116.4H37.125V77.413a16.721,16.721,0,0,0,9.083-5.406,16.635,16.635,0,0,0,8.119-31.1,11.291,11.291,0,0,0-2.62-14.145c.029-.434.043-.854.043-1.268a20.375,20.375,0,0,0-40.75,0c0,.414.014.834.043,1.268a11.291,11.291,0,0,0-2.62,14.145A16.605,16.605,0,0,0,6.687,68.673V74.4A19.77,19.77,0,0,0,18.4,92.444l7.225,3.218V116.4H5.347A5.353,5.353,0,0,0,0,121.751v4.5A1.75,1.75,0,0,0,1.75,128h124.5a1.75,1.75,0,0,0,1.75-1.75v-4.5A5.353,5.353,0,0,0,122.653,116.4Zm-8.778-58.883h4.5V116.4h-4.5ZM88.34,103.989a1.252,1.252,0,0,1,1.25-1.25h11.441a1.251,1.251,0,0,1,1.25,1.25v3.25H88.34Zm10.941-4.75H91.34V66.5h7.941ZM87.84,66.5V99.583a4.75,4.75,0,0,0-3,4.406v5a1.75,1.75,0,0,0,1.75,1.75h17.441a1.749,1.749,0,0,0,1.75-1.75v-5a4.749,4.749,0,0,0-3-4.406V66.5h7.594v49.9H80.247V66.5ZM72.247,57.521h4.5V116.4h-4.5ZM3.5,55.371a13.091,13.091,0,0,1,8.175-12.159,1.751,1.751,0,0,0,.674-2.75A7.8,7.8,0,0,1,13.869,29a1.749,1.749,0,0,0,.742-1.631,16.875,16.875,0,1,1,33.528,0A1.749,1.749,0,0,0,48.881,29,7.8,7.8,0,0,1,50.4,40.462a1.751,1.751,0,0,0,.674,2.75,13.133,13.133,0,0,1-4.961,25.3c-.136,0-.268-.011-.4-.02l-.265-.016a1.764,1.764,0,0,0-1.549.773c-1.677,2.5-4.97,4.323-8.866,5.034l-.015,0a20.323,20.323,0,0,1-7.284,0l-.015,0c-3.9-.711-7.189-2.53-8.866-5.034a1.753,1.753,0,0,0-1.454-.776c-.032,0-.063,0-.095,0l-.265.016c-.134.009-.267.02-.4.02A13.151,13.151,0,0,1,3.5,55.371ZM18.187,73.7a18,18,0,0,0,7.438,3.713v5.661L23.081,81.94A8.258,8.258,0,0,1,18.187,74.4Zm9.9,19.228-8.263-3.681A16.263,16.263,0,0,1,10.187,74.4V70.7a16.5,16.5,0,0,0,4.5,1.184V74.4a11.765,11.765,0,0,0,6.969,10.734l5.007,2.23a1.75,1.75,0,0,0,2.462-1.6V78.006q1.107.1,2.25.1t2.25-.1v38.4h-4.5V94.526A1.75,1.75,0,0,0,28.087,92.928ZM124.5,124.5H3.5v-2.746A1.849,1.849,0,0,1,5.347,119.9H122.653a1.849,1.849,0,0,1,1.847,1.847Z"></path><path d="M102.876,35.138A11.015,11.015,0,1,0,91.862,24.124,11.027,11.027,0,0,0,102.876,35.138Zm0-18.529a7.515,7.515,0,1,1-7.514,7.515A7.523,7.523,0,0,1,102.876,16.609Z"></path><path d="M102.876,9.435a1.75,1.75,0,0,0,1.75-1.75V1.747a1.75,1.75,0,0,0-3.5,0V7.685A1.751,1.751,0,0,0,102.876,9.435Z"></path><path d="M101.126,40.563V46.5a1.75,1.75,0,0,0,3.5,0V40.563a1.75,1.75,0,0,0-3.5,0Z"></path><path d="M114.5,14.25a1.745,1.745,0,0,0,1.238-.513l4.2-4.2a1.749,1.749,0,1,0-2.474-2.474l-4.2,4.2A1.75,1.75,0,0,0,114.5,14.25Z"></path><path d="M90.015,34.51l-4.2,4.2a1.75,1.75,0,0,0,2.475,2.475l4.2-4.2a1.75,1.75,0,0,0-2.475-2.474Z"></path><path d="M117.565,24.124a1.75,1.75,0,0,0,1.75,1.75h5.938a1.75,1.75,0,1,0,0-3.5h-5.938A1.75,1.75,0,0,0,117.565,24.124Z"></path><path d="M80.5,25.874h5.938a1.75,1.75,0,0,0,0-3.5H80.5a1.75,1.75,0,0,0,0,3.5Z"></path><path d="M113.263,34.51a1.75,1.75,0,0,0,0,2.474l4.2,4.2a1.75,1.75,0,1,0,2.474-2.475l-4.2-4.2A1.749,1.749,0,0,0,113.263,34.51Z"></path><path d="M90.015,13.737a1.75,1.75,0,1,0,2.475-2.474l-4.2-4.2a1.75,1.75,0,0,0-2.475,2.474Z"></path></g></svg>