<svg xmlns="http://www.w3.org/2000/svg" viewBox="0 0 64 64"><defs><style>.cls-1{fill:#231f20;}</style></defs><title>real estate office</title><g id="real_estate_office" data-name="real estate office"><polygon class="cls-1" points="12 27 12 31 20 31 20 36 12 36 12 40 20 40 20 45 12 45 12 49 20 49 20 55 9 55 9 23 20 23 20 27 12 27"></polygon><path class="cls-1" d="M22,14V55h4V45H38V55h4V14Zm8,26H26V36h4Zm0-9H26V27h4Zm0-9H26V18h4Zm8,18H34V36h4Zm0-9H34V27h4Zm0-9H34V18h4Z"></path><path class="cls-1" d="M44,26.67V55H55V32.6ZM51,49H47V45h4Zm0-9H47V36h4Z"></path><rect class="cls-1" x="24" y="9" width="16" height="3"></rect></g></svg>