<svg xmlns="http://www.w3.org/2000/svg" viewBox="0 0 48 48"><title>towel, hotel, hanger</title><g><path d="M43,14H32V11a4.9519,4.9519,0,0,1,1.0255-3H12a4.0039,4.0039,0,0,0-4,4v2H5a1,1,0,0,0,0,2H8v5.7213a22.2669,22.2669,0,0,1,13.2744.3168A19.9143,19.9143,0,0,0,32,22.6785V16H43a1,1,0,0,0,0-2Z" fill="#646464"></path><path d="M20.7256,29.9619A20.4556,20.4556,0,0,0,8,29.7806V39a1,1,0,0,0,1,1H31a1,1,0,0,0,1-1V30.7188a23.4036,23.4036,0,0,1-4.2715.4375A23.7585,23.7585,0,0,1,20.7256,29.9619Z" fill="#646464"></path><path d="M20.7256,23.9619A20.4589,20.4589,0,0,0,8,23.78v3.9408a22.2692,22.2692,0,0,1,13.2744.3169A19.9415,19.9415,0,0,0,32,28.6781V24.7188a23.4036,23.4036,0,0,1-4.2715.4375A23.7585,23.7585,0,0,1,20.7256,23.9619Z" fill="#646464"></path><path d="M40,11a3,3,0,0,0-6,0v1h6Z" fill="#646464"></path><path d="M34,33a1,1,0,0,0,1,1h4a1,1,0,0,0,1-1V18H34Z" fill="#646464"></path></g></svg>