<svg xmlns="http://www.w3.org/2000/svg" xmlns:xlink="http://www.w3.org/1999/xlink" id="Layer_1" x="0px" y="0px" width="64px" height="64px" viewBox="0 0 64 64" xml:space="preserve">
<g>
	<g>
		<path fill="none" stroke="#333333" stroke-width="2" stroke-linecap="round" stroke-linejoin="round" stroke-miterlimit="10" d="    M51.1,42.9c0,12.3-8.5,11.3-19.1,11.3c-10.5,0-19.1,1-19.1-11.3S21.5,20.6,32,20.6C42.5,20.6,51.1,30.6,51.1,42.9z"></path>
		<path fill="#333333" d="M35.1,38.6c-0.2-0.3-0.4-0.6-0.7-0.8c-0.3-0.2-0.6-0.4-0.9-0.5c-0.3-0.1-0.6-0.2-1-0.3l-0.9-0.3    c-0.3-0.1-0.5-0.2-0.7-0.3c-0.2-0.1-0.3-0.2-0.4-0.4c-0.1-0.1-0.1-0.3-0.1-0.4c0-0.1,0-0.2,0.1-0.3c0.1-0.1,0.2-0.2,0.3-0.3    c0.2-0.1,0.3-0.1,0.5-0.2c0.3-0.1,0.7-0.1,1,0c0.2,0,0.3,0,0.5,0.1c0.2,0,0.3,0.1,0.5,0.1c0.2,0,0.3,0.1,0.5,0.1    c0.3,0.1,0.7,0,1-0.2c0.1-0.2,0.2-0.4,0.2-0.6c0-0.2-0.1-0.4-0.2-0.5c-0.1-0.2-0.3-0.3-0.5-0.4c-0.3-0.1-0.9-0.2-1.3-0.3    c-0.2,0-0.8-0.1-0.8-0.1v-0.3c0-0.3,0.1-0.5-0.1-0.6c-0.3-0.3-1.1-0.2-1.4,0c-0.2,0.2-0.6,0.4-0.6,0.6v0.3c0,0-0.1,0.1-0.3,0.2    c-0.4,0.1-0.5,0.3-0.8,0.5c-0.3,0.2-0.4,0.5-0.6,0.9c-0.2,0.3-0.2,0.7-0.2,1.2c0,0.4,0.1,0.8,0.2,1.1c0.1,0.3,0.4,0.6,0.6,0.8    c0.2,0.2,0.5,0.4,0.8,0.5c0.3,0.1,0.6,0.2,0.9,0.3c0.3,0.1,0.6,0.2,0.9,0.3c0.3,0.1,0.6,0.2,0.8,0.3c0.1,0.1,0.3,0.1,0.4,0.2    c0.1,0.1,0.2,0.1,0.3,0.2c0.1,0.1,0.1,0.1,0.1,0.2c0,0.1,0,0.2,0,0.3c0,0.2,0,0.3-0.1,0.4c-0.1,0.1-0.2,0.2-0.3,0.3    c-0.2,0.1-0.3,0.2-0.5,0.2c-0.5,0.1-1,0.1-1.4,0.1c-0.2,0-0.4,0-0.5-0.1c-0.2,0-0.3-0.1-0.4-0.1l-0.5-0.1c-0.3-0.1-0.7,0-1,0.2    c-0.1,0.2-0.2,0.4-0.2,0.6c0,0.2,0.1,0.4,0.2,0.5c0.1,0.2,0.3,0.3,0.5,0.4c0.1,0,0.3,0.1,0.5,0.1c0.2,0.1,0.4,0.1,0.6,0.1    c0.2,0,0,0.1,0.2,0.1c0.1,0-0.2,0-0.2,0v0.4c0,0.3,0.5,0.5,0.7,0.6c0.2,0.1,0.5,0.2,0.7,0.2c0.2,0,0.3-0.1,0.4-0.2    c0.2-0.2,0.2-0.4,0.2-0.6v-0.4c0,0,0.7-0.1,1-0.2c0.4-0.1,0.9-0.3,1.2-0.6c0.3-0.2,0.6-0.6,0.8-0.9c0.2-0.4,0.3-0.8,0.3-1.2    C35.3,39.4,35.3,39,35.1,38.6z"></path>
		<path fill="none" stroke="#333333" stroke-width="2" stroke-linecap="round" stroke-linejoin="round" stroke-miterlimit="10" d="    M37.3,20.4l4.3-9.3c0.3-0.7-0.2-1.4-0.9-1.4h-8.4H24c-0.7,0-1.2,0.8-0.9,1.4l4.3,9.3"></path>
		<path fill="none" stroke="#333333" stroke-width="2" stroke-linecap="round" stroke-linejoin="round" stroke-miterlimit="10" d="    M26.1,17.6c0,0,6.8-1.6,12.5,0"></path>
	</g>
	
		<polyline fill="none" stroke="#333333" stroke-width="2" stroke-linecap="round" stroke-linejoin="round" stroke-miterlimit="10" points="   45.6,17.6 37.3,20.4 45.6,22.2  "></polyline>
</g>
</svg>