<svg xmlns="http://www.w3.org/2000/svg" xmlns:xlink="http://www.w3.org/1999/xlink" id="Layer_1" x="0px" y="0px" width="64px" height="64px" viewBox="0 0 64 64" xml:space="preserve">
<g>
	<g>
		<path fill="none" stroke="#333333" stroke-width="2" stroke-linecap="round" stroke-linejoin="round" stroke-miterlimit="10" d="    M53.6,34.8H41.4c-0.6,0-1-0.4-1-1V22.9c0-0.6,0.4-1,1-1h12.2c0.6,0,1,0.4,1,1v10.9C54.6,34.3,54.1,34.8,53.6,34.8z"></path>
		<path fill="none" stroke="#333333" stroke-width="2" stroke-linecap="round" stroke-linejoin="round" stroke-miterlimit="10" d="    M48,12.5h-1.1c-2.3,0-4.2,1.9-4.2,4.2v5.2h9.4v-5.2C52.2,14.3,50.3,12.5,48,12.5z"></path>
	</g>
	<g>
		<path fill="none" stroke="#333333" stroke-width="2" stroke-linecap="round" stroke-linejoin="round" stroke-miterlimit="10" d="    M50.6,35.1v15.5c0,0.5-0.4,1-1,1H10.4c-0.5,0-1-0.4-1-1V27.2"></path>
		<path fill="none" stroke="#333333" stroke-width="2" stroke-linecap="round" stroke-linejoin="round" stroke-miterlimit="10" d="    M9.4,27.2v-2.7c0-0.5,0.4-1,1-1h30"></path>
		
			<line fill="none" stroke="#333333" stroke-width="2" stroke-linecap="round" stroke-linejoin="round" stroke-miterlimit="10" x1="10" y1="30" x2="40" y2="30"></line>
		
			<line fill="none" stroke="#333333" stroke-width="2" stroke-linecap="round" stroke-linejoin="round" stroke-miterlimit="10" x1="10" y1="35" x2="49" y2="35"></line>
		
			<line fill="none" stroke="#333333" stroke-width="2" stroke-linecap="round" stroke-linejoin="round" stroke-miterlimit="10" x1="14" y1="47" x2="27" y2="47"></line>
		
			<line fill="none" stroke="#333333" stroke-width="2" stroke-linecap="round" stroke-linejoin="round" stroke-miterlimit="10" x1="14" y1="41" x2="23" y2="41"></line>
		<g>
			
				<circle fill="none" stroke="#333333" stroke-width="2" stroke-linecap="round" stroke-linejoin="round" stroke-miterlimit="10" cx="35.4" cy="43.4" r="4.1"></circle>
			<path fill="none" stroke="#333333" stroke-width="2" stroke-linecap="round" stroke-linejoin="round" stroke-miterlimit="10" d="     M37.9,40.2c0.7-0.5,1.6-0.9,2.5-0.9c2.3,0,4.1,1.8,4.1,4.1s-1.8,4.1-4.1,4.1c-1,0-1.8-0.3-2.5-0.9"></path>
		</g>
	</g>
</g>
</svg>