<svg xmlns="http://www.w3.org/2000/svg" xmlns:xlink="http://www.w3.org/1999/xlink" id="Layer_1" x="0px" y="0px" width="64px" height="64px" viewBox="0 0 64 64" xml:space="preserve">
<g>
	<path fill="none" stroke="#333333" stroke-width="2" stroke-linecap="round" stroke-linejoin="round" stroke-miterlimit="10" d="   M36.8,31.9h-20c-0.6,0-1-0.4-1-1v-4.3c0-0.6,0.4-1,1-1h20c0.6,0,1,0.4,1,1v4.3C37.8,31.5,37.3,31.9,36.8,31.9z"></path>
	<path fill="none" stroke="#333333" stroke-width="2" stroke-linecap="round" stroke-linejoin="round" stroke-miterlimit="10" d="   M32.4,25.6h-20c-0.6,0-1-0.4-1-1v-4.3c0-0.6,0.4-1,1-1h20c0.6,0,1,0.4,1,1v4.3C33.4,25.2,33,25.6,32.4,25.6z"></path>
	<path fill="none" stroke="#333333" stroke-width="2" stroke-linecap="round" stroke-linejoin="round" stroke-miterlimit="10" d="   M36.8,19.3h-20c-0.6,0-1-0.4-1-1V14c0-0.6,0.4-1,1-1h20c0.6,0,1,0.4,1,1v4.3C37.8,18.8,37.3,19.3,36.8,19.3z"></path>
	<path fill="none" stroke="#333333" stroke-width="2" stroke-linecap="round" stroke-linejoin="round" stroke-miterlimit="10" d="   M46.8,50.4l-8.3-18.3c-0.2-0.5,0-1.1,0.5-1.3l3.9-1.8c0.5-0.2,1.1,0,1.3,0.5l8.3,18.3c0.2,0.5,0,1.1-0.5,1.3l-3.9,1.8   C47.6,51.2,47,50.9,46.8,50.4z"></path>
	<path fill="none" stroke="#333333" stroke-width="2" stroke-linecap="round" stroke-linejoin="round" stroke-miterlimit="10" d="   M34.7,50.9h-20c-0.6,0-1-0.4-1-1v-4.3c0-0.6,0.4-1,1-1h20c0.6,0,1,0.4,1,1v4.3C35.7,50.4,35.2,50.9,34.7,50.9z"></path>
	<path fill="none" stroke="#333333" stroke-width="2" stroke-linecap="round" stroke-linejoin="round" stroke-miterlimit="10" d="   M34.7,44.6h-20c-0.6,0-1-0.4-1-1v-4.3c0-0.6,0.4-1,1-1h20c0.6,0,1,0.4,1,1v4.3C35.7,44.1,35.2,44.6,34.7,44.6z"></path>
	<path fill="none" stroke="#333333" stroke-width="2" stroke-linecap="round" stroke-linejoin="round" stroke-miterlimit="10" d="   M36.8,38.2h-20c-0.6,0-1-0.4-1-1v-4.3c0-0.6,0.4-1,1-1h20c0.6,0,1,0.4,1,1v4.3C37.8,37.8,37.3,38.2,36.8,38.2z"></path>
</g>
</svg>