<svg xmlns="http://www.w3.org/2000/svg" xmlns:xlink="http://www.w3.org/1999/xlink" id="Layer_1" x="0px" y="0px" width="64px" height="64px" viewBox="0 0 64 64" xml:space="preserve">
<g>
	<g>
		<g>
			<path fill="none" stroke="#333333" stroke-width="2" stroke-linecap="round" stroke-linejoin="round" stroke-miterlimit="10" d="     M9.9,43.9h44.2c0.6,0,1,0.4,1,1v2.7c0,0.6-0.4,1-1,1H9.9c-0.6,0-1-0.4-1-1v-2.7C8.9,44.4,9.4,43.9,9.9,43.9z"></path>
			<path fill="none" stroke="#333333" stroke-width="2" stroke-linecap="round" stroke-linejoin="round" stroke-miterlimit="10" d="     M22.8,17.2H12.4c-0.6,0-1,0.4-1,1v25.8h41.2V18.2c0-0.6-0.4-1-1-1H40.8"></path>
		</g>
		
			<line fill="none" stroke="#333333" stroke-width="2" stroke-linecap="round" stroke-linejoin="round" stroke-miterlimit="10" x1="32" y1="54" x2="32" y2="48"></line>
		
			<line fill="none" stroke="#333333" stroke-width="2" stroke-linecap="round" stroke-linejoin="round" stroke-miterlimit="10" x1="23.7" y1="54.6" x2="27" y2="48.7"></line>
		
			<line fill="none" stroke="#333333" stroke-width="2" stroke-linecap="round" stroke-linejoin="round" stroke-miterlimit="10" x1="41.2" y1="54.6" x2="37.8" y2="48.7"></line>
		<g>
			
				<polyline fill="none" stroke="#333333" stroke-width="2" stroke-linecap="round" stroke-linejoin="round" stroke-miterlimit="10" points="     20.7,39 25.9,33.6 32,38.6 42,28.6    "></polyline>
			
				<polyline fill="none" stroke="#333333" stroke-width="2" stroke-linecap="round" stroke-linejoin="round" stroke-miterlimit="10" points="     43.2,31.9 42.8,27.5 38.5,27.8    "></polyline>
		</g>
	</g>
	<g>
		<path fill="#333333" d="M35.2,19.6c-0.2-0.3-0.4-0.6-0.7-0.8c-0.3-0.2-0.6-0.4-0.9-0.5c-0.3-0.1-0.6-0.2-1-0.3l-0.9-0.3    c-0.3-0.1-0.5-0.2-0.7-0.3c-0.2-0.1-0.3-0.2-0.4-0.4c-0.1-0.1-0.1-0.3-0.1-0.4c0-0.1,0-0.2,0.1-0.3c0.1-0.1,0.2-0.2,0.3-0.3    c0.2-0.1,0.3-0.1,0.5-0.2c0.3-0.1,0.7-0.1,1,0c0.2,0,0.3,0,0.5,0.1c0.2,0,0.3,0.1,0.5,0.1c0.2,0,0.3,0.1,0.5,0.1    c0.3,0.1,0.7,0,1-0.2c0.1-0.2,0.2-0.4,0.2-0.6c0-0.2-0.1-0.4-0.2-0.5c-0.1-0.2-0.3-0.3-0.5-0.4c-0.3-0.1-1-0.2-1.4-0.3    c-0.2,0-0.9-0.1-0.9-0.1v-0.3c0-0.3,0.2-0.5,0-0.6c-0.3-0.3-1.1-0.2-1.4,0C30.4,13,30,13.2,30,13.5v0.3c0,0,0,0.1-0.3,0.2    c-0.4,0.1-0.5,0.3-0.8,0.5c-0.3,0.2-0.4,0.5-0.6,0.9c-0.2,0.3-0.2,0.7-0.2,1.2c0,0.4,0.1,0.8,0.3,1.1c0.1,0.3,0.4,0.6,0.6,0.8    c0.2,0.2,0.5,0.4,0.8,0.5c0.3,0.1,0.6,0.2,0.9,0.3c0.3,0.1,0.6,0.2,0.9,0.3c0.3,0.1,0.6,0.2,0.8,0.3c0.1,0.1,0.3,0.1,0.4,0.2    c0.1,0.1,0.2,0.1,0.3,0.2c0.1,0.1,0.1,0.1,0.1,0.2c0,0.1,0,0.2,0,0.3c0,0.2,0,0.3-0.1,0.4c-0.1,0.1-0.2,0.2-0.3,0.3    c-0.2,0.1-0.3,0.2-0.5,0.2c-0.5,0.1-1,0.1-1.4,0.1c-0.2,0-0.4,0-0.5-0.1c-0.2,0-0.3-0.1-0.4-0.1l-0.5-0.1c-0.3-0.1-0.7,0-1,0.2    c-0.1,0.2-0.2,0.4-0.2,0.6c0,0.2,0.1,0.4,0.2,0.5c0.1,0.2,0.3,0.3,0.5,0.4c0.1,0,0.3,0.1,0.5,0.1c0.2,0.1,0.4,0.1,0.6,0.1    c0.2,0,0,0.1,0.2,0.1c0.1,0-0.2,0-0.2,0v0.4c0,0.3,0.6,0.5,0.7,0.6c0.2,0.1,0.6,0.2,0.8,0.2s0.2-0.1,0.4-0.2    c0.2-0.2,0.1-0.4,0.1-0.6v-0.4c0,0,0.8-0.1,1-0.2c0.4-0.1,0.9-0.3,1.2-0.6c0.3-0.2,0.6-0.6,0.8-0.9c0.2-0.4,0.3-0.8,0.3-1.2    C35.4,20.3,35.4,19.9,35.2,19.6z"></path>
		
			<circle fill="none" stroke="#333333" stroke-width="2" stroke-linecap="round" stroke-linejoin="round" stroke-miterlimit="10" cx="31.8" cy="18.4" r="9.1"></circle>
	</g>
</g>
</svg>