<svg xmlns="http://www.w3.org/2000/svg" xmlns:xlink="http://www.w3.org/1999/xlink" id="Layer_1" x="0px" y="0px" width="64px" height="64px" viewBox="0 0 64 64" xml:space="preserve">
<g>
	<path fill="none" stroke="#333333" stroke-width="2" stroke-linecap="round" stroke-linejoin="round" stroke-miterlimit="10" d="   M41.2,25.6h1.6V13.3l0,0c-3.8,0-7,3.1-7,7l0,0C35.9,23.2,38.3,25.6,41.2,25.6z"></path>
	<path fill="none" stroke="#333333" stroke-width="2" stroke-linecap="round" stroke-linejoin="round" stroke-miterlimit="10" d="   M43,22.8v-5.6c1-2.3,3-3.9,6-3.9v12.2c-2-2.3-4-4.1-6-5.1v3C43,23.1,43,22.9,43,22.8z"></path>
	<path fill="none" stroke="#333333" stroke-width="2" stroke-linecap="round" stroke-linejoin="round" stroke-miterlimit="10" d="   M47.2,30.5c0-0.3-0.7-1.4-1.6-1.4s-1.6,1-1.6,1.4"></path>
	<path fill="none" stroke="#333333" stroke-width="2" stroke-linecap="round" stroke-linejoin="round" stroke-miterlimit="10" d="   M12.7,32.4c0,0-2.7,3-3.9-0.7"></path>
	
		<circle fill="none" stroke="#333333" stroke-width="2" stroke-linecap="round" stroke-linejoin="round" stroke-miterlimit="10" cx="19.7" cy="19.1" r="7.4"></circle>
	<path fill="none" stroke="#333333" stroke-width="2" stroke-linecap="round" stroke-linejoin="round" stroke-miterlimit="10" d="   M19.7,26.5c4,0,7.3-3.2,7.4-7.2h8.8c0,0-0.1,0.5-0.1,0.8c0,3,2.4,5.2,5.4,5.2h1.9v-5c3,1.6,6.8,5,8,9h3.1c0.5,0,1,0.4,1,1v6.1   c0,0.5-0.4,1-1,1l0,0c-0.7,0-1.2,0.8-0.8,1.4l0.1,0.1c0.4,0.6-0.1,1.4-0.8,1.4h-3c-2.4,4-6.8,7-11.8,7H27.1   c-7.3,0-13.6-5.3-14.4-12.5c-0.4-3.6,0.7-7,2.6-9.7C16.6,26,18.1,26.5,19.7,26.5z"></path>
	
		<line fill="none" stroke="#333333" stroke-width="2" stroke-linecap="round" stroke-linejoin="round" stroke-miterlimit="10" x1="32.2" y1="23.4" x2="25.8" y2="23.3"></line>
	<path fill="none" stroke="#333333" stroke-width="2" stroke-linecap="round" stroke-linejoin="round" stroke-miterlimit="10" d="   M45.2,45.3v5c0,1.1-0.9,2-2,2h-1c-1.1,0-2-0.9-2-2v-3"></path>
	<path fill="none" stroke="#333333" stroke-width="2" stroke-linecap="round" stroke-linejoin="round" stroke-miterlimit="10" d="   M19.8,45.3v5c0,1.1,0.9,2,2,2h1c1.1,0,2-0.9,2-2v-3"></path>
</g>
</svg>