<svg xmlns="http://www.w3.org/2000/svg" xmlns:xlink="http://www.w3.org/1999/xlink" id="Layer_1" x="0px" y="0px" width="64px" height="64px" viewBox="0 0 64 64" xml:space="preserve">
<g>
	<g>
		<path fill="none" stroke="#333333" stroke-width="2" stroke-linecap="round" stroke-linejoin="round" stroke-miterlimit="10" d="    M52.6,52.3H11.4c-0.6,0-1-0.4-1-1V31c0-0.6,0.4-1,1-1h41.3c0.6,0,1,0.4,1,1v20.3C53.6,51.9,53.2,52.3,52.6,52.3z"></path>
		
			<ellipse fill="none" stroke="#333333" stroke-width="2" stroke-linecap="round" stroke-linejoin="round" stroke-miterlimit="10" cx="32" cy="41.5" rx="4.8" ry="4.8"></ellipse>
		<path fill="none" stroke="#333333" stroke-width="2" stroke-linecap="round" stroke-linejoin="round" stroke-miterlimit="10" d="    M47.8,32H16.2c0,2-0.2,3.6-2.2,3.9v5.6v5.6c2,0.3,2.2-0.2,2.2,1.8h31.6c0.1-1,2.2-1.5,3.2-1.8v-5.7v-5.7C50,35.6,47.9,34,47.8,32z    "></path>
	</g>
	<g>
		<path fill="none" stroke="#333333" stroke-width="2" stroke-linecap="round" stroke-linejoin="round" stroke-miterlimit="10" d="    M49.4,30c0.5-1.4,0.8-3,0.8-4.6c0-7.6-6.1-13.7-13.7-13.7s-13.7,6.1-13.7,13.7c0,1.6,0.3,3.2,0.8,4.6"></path>
		<path fill="none" stroke="#333333" stroke-width="2" stroke-linecap="round" stroke-linejoin="round" stroke-miterlimit="10" d="    M43.1,30c0.3-1.4,0.4-3,0.4-4.6c0-7.6-3.3-13.7-7.5-13.7c-4.1,0-7.5,6.1-7.5,13.7c0,1.6,0.2,3.2,0.4,4.6"></path>
		
			<line fill="none" stroke="#333333" stroke-width="2" stroke-linecap="round" stroke-linejoin="round" stroke-miterlimit="10" x1="49" y1="21" x2="24" y2="21"></line>
		
			<line fill="none" stroke="#333333" stroke-width="2" stroke-linecap="round" stroke-linejoin="round" stroke-miterlimit="10" x1="37" y1="12" x2="37" y2="29"></line>
	</g>
</g>
</svg>