<svg xmlns="http://www.w3.org/2000/svg" xmlns:xlink="http://www.w3.org/1999/xlink" id="Layer_1" x="0px" y="0px" width="64px" height="64px" viewBox="0 0 64 64" xml:space="preserve">
<g>
	<g>
		<g>
			<path fill="none" stroke="#333333" stroke-width="2" stroke-linecap="round" stroke-linejoin="round" stroke-miterlimit="10" d="     M20.1,34.2l-7.6-7.6l3-3c0.8-0.8,2-0.8,2.8,0l4.8,4.8c0.8,0.8,0.8,2,0,2.8L20.1,34.2z"></path>
			<path fill="none" stroke="#333333" stroke-width="2" stroke-linecap="round" stroke-linejoin="round" stroke-miterlimit="10" d="     M12.5,26.6c0,0-7.8,6.6,5.1,19.6"></path>
			<path fill="none" stroke="#333333" stroke-width="2" stroke-linecap="round" stroke-linejoin="round" stroke-miterlimit="10" d="     M20.1,34.2c0,0-3.9,2.7,1.4,8"></path>
		</g>
		<g>
			<path fill="none" stroke="#333333" stroke-width="2" stroke-linecap="round" stroke-linejoin="round" stroke-miterlimit="10" d="     M29.6,43.6l7.6,7.6l3-3c0.8-0.8,0.8-2,0-2.8l-4.8-4.8c-0.8-0.8-2-0.8-2.8,0L29.6,43.6z"></path>
			<path fill="none" stroke="#333333" stroke-width="2" stroke-linecap="round" stroke-linejoin="round" stroke-miterlimit="10" d="     M37.2,51.2c0,0-6.6,7.8-19.6-5.1"></path>
			<path fill="none" stroke="#333333" stroke-width="2" stroke-linecap="round" stroke-linejoin="round" stroke-miterlimit="10" d="     M29.6,43.6c0,0-2.7,3.9-8-1.4"></path>
		</g>
	</g>
	<g>
		<path fill="#333333" d="M33.2,24.3c-0.2,0-0.3,0-0.5,0c-0.2,0-0.3,0.1-0.5,0.1c-0.2,0-0.3,0.1-0.5,0.1c-0.1,0.1-0.3,0.1-0.4,0.2    c-0.1,0-0.2,0.1-0.3,0.1c-0.1,0-0.2,0-0.3-0.1c-0.1,0-0.2-0.1-0.2-0.2c-0.1-0.1-0.1-0.2-0.2-0.3c0-0.1-0.1-0.2-0.1-0.3    c0-0.2,0-0.3,0.1-0.4c0.1-0.1,0.2-0.3,0.4-0.4c0.2-0.1,0.4-0.2,0.7-0.2c0.2-0.1,0.5-0.1,0.7-0.2c0.2-0.1,0.5-0.1,0.7-0.1    c0.2,0,0.4,0,0.6,0c0.5,0,0.9,0.1,1.3,0.2c0.4,0.1,0.7,0.3,1,0.5c0.3,0.2,0.5,0.5,0.7,0.8c0.2,0.3,0.2,0.7,0.2,1.1    c0,0.4-0.1,0.9-0.3,1.4c-0.2,0.5-0.5,0.9-0.9,1.4c-0.4,0.5-0.8,0.9-1.3,1.3c-0.5,0.4-1,0.8-1.5,1.2h2.8c0.2,0,0.3,0,0.5,0    c0.2,0,0.3,0.1,0.4,0.1s0.2,0.1,0.3,0.3c0.1,0.1,0.1,0.2,0.1,0.4c0,0.3-0.1,0.5-0.2,0.6c-0.2,0.1-0.4,0.2-0.7,0.2h-4.8    c-0.2,0-0.3,0-0.4,0s-0.3-0.1-0.4-0.2c-0.1-0.1-0.2-0.2-0.2-0.3C30,31.4,30,31.2,30,31.1c0-0.4,0.2-0.8,0.6-1.1l0.9-0.8    c0.1-0.1,0.3-0.2,0.4-0.3c0.1-0.1,0.2-0.2,0.3-0.3l0.3-0.2c0.3-0.3,0.6-0.6,0.8-0.8s0.5-0.5,0.6-0.8c0.2-0.3,0.3-0.5,0.4-0.7    c0.1-0.2,0.1-0.4,0.1-0.6c0-0.2,0-0.3-0.1-0.4c-0.1-0.1-0.2-0.2-0.3-0.3c-0.1-0.1-0.3-0.1-0.4-0.2C33.5,24.3,33.4,24.3,33.2,24.3z    "></path>
		<path fill="#333333" d="M40.9,23.8c0.1-0.2,0.2-0.4,0.4-0.6c0.1-0.2,0.3-0.3,0.5-0.4c0.2-0.1,0.3-0.2,0.5-0.2    c0.2,0,0.4-0.1,0.6-0.1c0.3,0,0.5,0,0.7,0.1c0.2,0.1,0.4,0.2,0.5,0.4c0.1,0.2,0.2,0.4,0.3,0.6c0.1,0.3,0.1,0.6,0.1,0.9v3.8h0.3    c0.1,0,0.3,0,0.4,0c0.1,0,0.2,0.1,0.3,0.1c0.1,0.1,0.2,0.1,0.2,0.2c0.1,0.1,0.1,0.2,0.1,0.4c0,0.3-0.1,0.5-0.3,0.6    c-0.2,0.1-0.4,0.2-0.8,0.2h-0.3v0.8c0,0.2,0,0.3-0.1,0.5c0,0.1-0.1,0.3-0.2,0.4c-0.1,0.1-0.2,0.2-0.3,0.3S43.6,32,43.4,32    c-0.4,0-0.7-0.1-0.8-0.4c-0.2-0.3-0.3-0.6-0.3-1.1V30H39c-0.2,0-0.3,0-0.5,0c-0.1,0-0.3-0.1-0.4-0.1c-0.1-0.1-0.2-0.2-0.2-0.3    c-0.1-0.1-0.1-0.2-0.1-0.4c0-0.1,0-0.2,0-0.3c0-0.1,0.1-0.2,0.1-0.3L40.9,23.8z M39.9,28.4h2.4v-4.1L39.9,28.4z"></path>
	</g>
	<path fill="none" stroke="#333333" stroke-width="2" stroke-linecap="round" stroke-linejoin="round" stroke-miterlimit="10" d="   M22.4,19.5c2.8-5.4,8.4-9.1,14.8-9.1c9.2,0,16.7,7.5,16.7,16.7c0,6.7-4,12.5-9.7,15.1"></path>
</g>
</svg>