<svg xmlns="http://www.w3.org/2000/svg" xmlns:xlink="http://www.w3.org/1999/xlink" id="Layer_1" x="0px" y="0px" width="64px" height="64px" viewBox="0 0 64 64" xml:space="preserve">
<g>
	<path fill="none" stroke="#333333" stroke-width="2" stroke-linecap="round" stroke-linejoin="round" stroke-miterlimit="10" d="   M51.4,42.3H12.6c-0.6,0-1-0.4-1-1v-9c0-0.6,0.4-1,1-1h38.8c0.6,0,1,0.4,1,1v9C52.4,41.9,52,42.3,51.4,42.3z"></path>
	<g>
		<path fill="none" stroke="#333333" stroke-width="2" stroke-linecap="round" stroke-linejoin="round" stroke-miterlimit="10" d="    M20.7,46.7h-4.8c-0.6,0-1-0.4-1-1v-3.3h6.8v3.3C21.7,46.3,21.3,46.7,20.7,46.7z"></path>
		<path fill="none" stroke="#333333" stroke-width="2" stroke-linecap="round" stroke-linejoin="round" stroke-miterlimit="10" d="    M43.3,46.7h4.8c0.6,0,1-0.4,1-1v-3.3h-6.8v3.3C42.3,46.3,42.7,46.7,43.3,46.7z"></path>
	</g>
	
		<rect x="28.4" y="34.6" fill="none" stroke="#333333" stroke-width="2" stroke-linecap="round" stroke-linejoin="round" stroke-miterlimit="10" width="7.3" height="4.2"></rect>
	
		<circle fill="none" stroke="#333333" stroke-width="2" stroke-linecap="round" stroke-linejoin="round" stroke-miterlimit="10" cx="18" cy="36.7" r="2.1"></circle>
	
		<circle fill="none" stroke="#333333" stroke-width="2" stroke-linecap="round" stroke-linejoin="round" stroke-miterlimit="10" cx="46.2" cy="36.7" r="2.1"></circle>
	<path fill="none" stroke="#333333" stroke-width="2" stroke-linecap="round" stroke-linejoin="round" stroke-miterlimit="10" d="   M50.1,30.5l-5.9-7.1c-0.8-1-2-1.5-3.2-1.5h-9h-9c-1.3,0-2.4,0.6-3.2,1.5l-5.9,7.1"></path>
	<path fill="none" stroke="#333333" stroke-width="2" stroke-linecap="round" stroke-linejoin="round" stroke-miterlimit="10" d="   M50.5,31.1c0,0,2.5-4.2,4.9-1.8C58.4,32.3,53.2,31.1,50.5,31.1z"></path>
	<path fill="none" stroke="#333333" stroke-width="2" stroke-linecap="round" stroke-linejoin="round" stroke-miterlimit="10" d="   M13.5,31.1c0,0-2.5-4.2-4.9-1.8C5.6,32.3,10.8,31.1,13.5,31.1z"></path>
	
		<polygon fill="none" stroke="#333333" stroke-width="2" stroke-linecap="round" stroke-linejoin="round" stroke-miterlimit="10" points="   34.4,17.3 28.8,17.3 27.5,21.9 35.6,21.9  "></polygon>
</g>
</svg>