<svg xmlns="http://www.w3.org/2000/svg" xmlns:xlink="http://www.w3.org/1999/xlink" id="Layer_1" x="0px" y="0px" width="64px" height="64px" viewBox="0 0 64 64" xml:space="preserve">
<g>
	<path fill="none" stroke="#333333" stroke-width="2" stroke-linecap="round" stroke-linejoin="round" stroke-miterlimit="10" d="   M40,19.7c-6-3.1-15.9-5.2-19.8-5.2c-5.8,0-10.6,4.7-10.6,10.6c0,5.8,4.7,10.6,10.5,10.6c3.9,0,13.8-2.1,19.8-5.2V19.7z"></path>
	<path fill="none" stroke="#333333" stroke-width="2" stroke-linecap="round" stroke-linejoin="round" stroke-miterlimit="10" d="   M15,34.5L15,34.5V45c0,2.5,1.8,4.5,4.3,4.5c2.8,0,4.8-2.6,4.3-5.3L22,35.5"></path>
	
		<circle fill="none" stroke="#333333" stroke-width="2" stroke-linecap="round" stroke-linejoin="round" stroke-miterlimit="10" cx="21.4" cy="25" r="4.4"></circle>
	
		<polygon fill="none" stroke="#333333" stroke-width="2" stroke-linecap="round" stroke-linejoin="round" stroke-miterlimit="10" points="   45.2,32.5 39.9,30.5 39.9,19.7 45.2,17.7  "></polygon>
	<g>
		<path fill="none" stroke="#333333" stroke-width="2" stroke-linecap="round" stroke-linejoin="round" stroke-miterlimit="10" d="    M48.5,19.5c0.8-0.7,2.1-0.8,3-0.1l0,0c0.9,0.6,2,0.6,2.9-0.1"></path>
		<path fill="none" stroke="#333333" stroke-width="2" stroke-linecap="round" stroke-linejoin="round" stroke-miterlimit="10" d="    M48.5,24.5c0.8-0.7,2.1-0.8,3-0.1l0,0c0.9,0.6,2,0.6,2.9-0.1"></path>
		<path fill="none" stroke="#333333" stroke-width="2" stroke-linecap="round" stroke-linejoin="round" stroke-miterlimit="10" d="    M48.5,29.5c0.8-0.7,2.1-0.8,3-0.1l0,0c0.9,0.6,2,0.6,2.9-0.1"></path>
	</g>
</g>
</svg>