<svg xmlns="http://www.w3.org/2000/svg" xmlns:xlink="http://www.w3.org/1999/xlink" id="Layer_1" x="0px" y="0px" width="64px" height="64px" viewBox="0 0 64 64" xml:space="preserve">
<g>
	<g>
		<path fill="none" stroke="#333333" stroke-width="2" stroke-linecap="round" stroke-linejoin="round" stroke-miterlimit="10" d="    M30.9,9.4c-6.5,0.6-11.4,6.4-11.4,12.9v0.1c0,1.5,0.8,2.9,2.1,3.4c2.2,1,4.3-0.8,4.3-2.9c0-0.1,0-0.6,0-0.9c0-3.6,2.9-6.3,6.5-6.3    c1.6,0,3.2,0.7,4.3,1.9c4.8,4.8,1,12-4.3,12h-5.3c-4.2,0-7.6,3.4-7.6,7.6v16.4c0,0.6,0.4,1,1,1h23c0.6,0,1-0.4,1-1V21.8    C44.5,14.5,38.3,8.7,30.9,9.4z"></path>
		
			<polygon fill="none" stroke="#333333" stroke-width="2" stroke-linecap="round" stroke-linejoin="round" stroke-miterlimit="10" points="    32.2,9.4 32.2,9.4 32.2,9.4   "></polygon>
	</g>
	
		<rect x="24.1" y="35.9" fill="none" stroke="#333333" stroke-width="2" stroke-linecap="round" stroke-linejoin="round" stroke-miterlimit="10" width="15.9" height="14.4"></rect>
</g>
</svg>