<svg xmlns="http://www.w3.org/2000/svg" xmlns:xlink="http://www.w3.org/1999/xlink" id="Layer_1" x="0px" y="0px" width="64px" height="64px" viewBox="0 0 64 64" xml:space="preserve">
<g>
	
		<circle fill="none" stroke="#333333" stroke-width="2" stroke-linecap="round" stroke-linejoin="round" stroke-miterlimit="10" cx="32" cy="32" r="21.1"></circle>
	<g>
		<path fill="#333333" d="M30,34.9v5c0,0.2,0,0.4-0.1,0.6c-0.1,0.2-0.2,0.3-0.3,0.4c-0.1,0.1-0.3,0.2-0.5,0.3    c-0.2,0.1-0.4,0.1-0.5,0.1c-0.2,0-0.4,0-0.5-0.1c-0.2-0.1-0.3-0.1-0.5-0.3c-0.1-0.1-0.3-0.3-0.3-0.4C27,40.3,27,40.1,27,39.9v-13    c0-0.2,0-0.4,0.1-0.6s0.2-0.3,0.3-0.5c0.1-0.1,0.3-0.2,0.5-0.3c0.2-0.1,0.4-0.1,0.6-0.1H33c0.8,0,1.6,0.1,2.4,0.3    c0.7,0.2,1.4,0.4,2,0.8c0.6,0.4,1,0.9,1.3,1.5c0.3,0.6,0.5,1.3,0.5,2.2c0,0.9-0.2,1.6-0.5,2.2c-0.3,0.6-0.8,1.1-1.4,1.5    c-0.6,0.4-1.3,0.6-2.1,0.8c-0.8,0.2-1.6,0.2-2.5,0.2H30z M32.6,32.8c0.5,0,1,0,1.4-0.1c0.4-0.1,0.8-0.2,1.1-0.4    c0.3-0.2,0.6-0.5,0.8-0.8c0.2-0.4,0.3-0.8,0.3-1.3c0-0.5-0.1-0.9-0.3-1.3c-0.2-0.3-0.4-0.6-0.7-0.8c-0.3-0.2-0.7-0.4-1.1-0.4    c-0.4-0.1-0.9-0.1-1.4-0.1H30v5.4H32.6z"></path>
	</g>
</g>
</svg>