<svg xmlns="http://www.w3.org/2000/svg" xmlns:xlink="http://www.w3.org/1999/xlink" id="Layer_1" x="0px" y="0px" width="64px" height="64px" viewBox="0 0 64 64" xml:space="preserve">
<g>
	<path fill="none" stroke="#333333" stroke-width="2" stroke-linecap="round" stroke-linejoin="round" stroke-miterlimit="10" d="   M20.9,55.4l1.8-4.1c0.9-2.6,1.2-4.9,3.6-6.3l2.3-1.4l2.8-7.5H34L32.2,46l8.1-9.9h4.9L33.5,51.2C32.9,52,32.6,53,32.6,54v1.5"></path>
	<path fill="none" stroke="#333333" stroke-width="2" stroke-linecap="round" stroke-linejoin="round" stroke-miterlimit="10" d="   M25.1,36.5c0,0-1,6.1,2.2,8.1"></path>
	<path fill="none" stroke="#333333" stroke-width="2" stroke-linecap="round" stroke-linejoin="round" stroke-miterlimit="10" d="   M22.8,51.8c0,0-1-4.6-1.1-8.9c-0.1-3.5,0.1-6.3,0.1-6.3"></path>
	
		<rect x="10.3" y="32.1" fill="none" stroke="#333333" stroke-width="2" stroke-linecap="round" stroke-linejoin="round" stroke-miterlimit="10" width="43.4" height="3.9"></rect>
	<path fill="none" stroke="#333333" stroke-width="2" stroke-linecap="round" stroke-linejoin="round" stroke-miterlimit="10" d="   M32,12c-10.9,0-19.8,9-19.8,20h39.6C51.8,21,42.9,12,32,12z"></path>
	
		<line fill="none" stroke="#333333" stroke-width="2" stroke-linecap="round" stroke-linejoin="round" stroke-miterlimit="10" x1="32" y1="12" x2="32" y2="9"></line>
</g>
</svg>