<svg xmlns="http://www.w3.org/2000/svg" xmlns:xlink="http://www.w3.org/1999/xlink" id="Layer_1" x="0px" y="0px" width="64px" height="64px" viewBox="0 0 64 64" xml:space="preserve">
<g>
	<path fill="none" stroke="#333333" stroke-width="2" stroke-linecap="round" stroke-linejoin="round" stroke-miterlimit="10" d="   M32.8,36.6l0.9,1.8c0.1,0.3,0.4,0.4,0.7,0.5l2,0.3c0.7,0.1,1,1,0.5,1.5L35.4,42c-0.2,0.2-0.3,0.5-0.3,0.8l0.3,2   c0.1,0.7-0.6,1.3-1.3,0.9l-1.8-0.9c-0.3-0.1-0.6-0.1-0.8,0l-1.8,0.9c-0.7,0.3-1.4-0.2-1.3-0.9l0.3-2c0-0.3,0-0.6-0.3-0.8l-1.4-1.4   c-0.5-0.5-0.2-1.4,0.5-1.5l2-0.3c0.3,0,0.5-0.2,0.7-0.5l0.9-1.8C31.5,35.9,32.5,35.9,32.8,36.6z"></path>
	
		<line fill="none" stroke="#333333" stroke-width="2" stroke-linecap="round" stroke-linejoin="round" stroke-miterlimit="10" x1="32" y1="10" x2="32" y2="25"></line>
	
		<circle fill="none" stroke="#333333" stroke-width="2" stroke-linecap="round" stroke-linejoin="round" stroke-miterlimit="10" cx="32" cy="40.9" r="13.8"></circle>
	
		<circle fill="none" stroke="#333333" stroke-width="2" stroke-linecap="round" stroke-linejoin="round" stroke-miterlimit="10" cx="32" cy="40.9" r="9.8"></circle>
	
		<polyline fill="none" stroke="#333333" stroke-width="2" stroke-linecap="round" stroke-linejoin="round" stroke-miterlimit="10" points="   40.3,29.6 45.8,9 18.2,9 23.7,29.5  "></polyline>
</g>
</svg>