<svg xmlns="http://www.w3.org/2000/svg" xmlns:xlink="http://www.w3.org/1999/xlink" id="Layer_1" x="0px" y="0px" width="64px" height="64px" viewBox="0 0 64 64" xml:space="preserve">
<g>
	
		<polygon fill="none" stroke="#333333" stroke-width="2" stroke-linecap="round" stroke-linejoin="round" stroke-miterlimit="10" points="   43.5,18.1 20.5,18.1 14.3,9.4 49.7,9.4  "></polygon>
	<path fill="none" stroke="#333333" stroke-width="2" stroke-linecap="round" stroke-linejoin="round" stroke-miterlimit="10" d="   M29.4,30.8L14.3,9.4l-5,8.2c-0.2,0.3-0.2,0.8,0,1.1l11.9,16.8"></path>
	<path fill="none" stroke="#333333" stroke-width="2" stroke-linecap="round" stroke-linejoin="round" stroke-miterlimit="10" d="   M42.9,35.3l11.8-16.6c0.2-0.3,0.3-0.8,0-1.1l-5-8.2l-15,21.2"></path>
	<path fill="none" stroke="#333333" stroke-width="2" stroke-linecap="round" stroke-linejoin="round" stroke-miterlimit="10" d="   M33.3,35.7l1.3,2.6c0.2,0.3,0.5,0.6,0.9,0.6l2.9,0.4c1,0.1,1.4,1.3,0.7,2l-2.1,2c-0.3,0.3-0.4,0.7-0.3,1l0.5,2.8   c0.2,1-0.8,1.7-1.7,1.2l-2.6-1.3c-0.3-0.2-0.8-0.2-1.1,0l-2.6,1.3c-0.9,0.5-1.9-0.3-1.7-1.2l0.5-2.8c0.1-0.4-0.1-0.8-0.3-1l-2.1-2   c-0.7-0.7-0.3-1.9,0.7-2L29,39c0.4-0.1,0.7-0.3,0.9-0.6l1.3-2.6C31.6,34.9,32.8,34.9,33.3,35.7z"></path>
	
		<polygon fill="none" stroke="#333333" stroke-width="2" stroke-linecap="round" stroke-linejoin="round" stroke-miterlimit="10" points="   43.2,48.2 32.2,54.6 21.2,48.2 21.2,35.5 32.2,29.2 43.2,35.5  "></polygon>
</g>
</svg>