<svg xmlns="http://www.w3.org/2000/svg" xmlns:xlink="http://www.w3.org/1999/xlink" id="Layer_1" x="0px" y="0px" width="64px" height="64px" viewBox="0 0 64 64" xml:space="preserve">
<g>
	<g>
		
			<line fill="none" stroke="#333333" stroke-width="2" stroke-linecap="round" stroke-linejoin="round" stroke-miterlimit="10" x1="30" y1="39" x2="30" y2="46"></line>
		
			<line fill="none" stroke="#333333" stroke-width="2" stroke-linecap="round" stroke-linejoin="round" stroke-miterlimit="10" x1="34" y1="39" x2="34" y2="46"></line>
	</g>
	<g>
		<path fill="none" stroke="#333333" stroke-width="2" stroke-linecap="round" stroke-linejoin="round" stroke-miterlimit="10" d="    M31.6,38.1C46,38.1,46.5,9,46.5,9h-29C17.5,9,17.2,38.1,31.6,38.1z"></path>
		<path fill="none" stroke="#333333" stroke-width="2" stroke-linecap="round" stroke-linejoin="round" stroke-miterlimit="10" d="    M21.7,32.1C11.6,32.1,9,22,9,17c0-5,3.6-5.3,8.1-5.3"></path>
		<path fill="none" stroke="#333333" stroke-width="2" stroke-linecap="round" stroke-linejoin="round" stroke-miterlimit="10" d="    M41.6,32.1C51.7,32.1,55,22,55,17c0-5-3.6-5.3-8.1-5.3"></path>
	</g>
	<path fill="none" stroke="#333333" stroke-width="2" stroke-linecap="round" stroke-linejoin="round" stroke-miterlimit="10" d="   M41,55.2H23l0,0c0-4.5,3.7-8.2,8.2-8.2h1.6C37.3,47,41,50.6,41,55.2L41,55.2z"></path>
	
		<polyline fill="none" stroke="#333333" stroke-width="2" stroke-linecap="round" stroke-linejoin="round" stroke-miterlimit="10" points="   29.6,20.3 32,17.7 32,27  "></polyline>
</g>
</svg>