<svg xmlns="http://www.w3.org/2000/svg" xmlns:xlink="http://www.w3.org/1999/xlink" id="Layer_1" x="0px" y="0px" width="64px" height="64px" viewBox="0 0 64 64" xml:space="preserve">
<g>
	
		<polygon fill="none" stroke="#333333" stroke-width="2" stroke-linecap="round" stroke-linejoin="round" stroke-miterlimit="10" points="   43.5,18.1 20.5,18.1 14.3,9.4 49.7,9.4  "></polygon>
	
		<circle fill="none" stroke="#333333" stroke-width="2" stroke-linecap="round" stroke-linejoin="round" stroke-miterlimit="10" cx="31.9" cy="44.1" r="10.5"></circle>
	<path fill="none" stroke="#333333" stroke-width="2" stroke-linecap="round" stroke-linejoin="round" stroke-miterlimit="10" d="   M31.4,33.6L14.3,9.4l-5,8.2c-0.2,0.3-0.2,0.8,0,1.1l13.9,19.6C25,35.6,28,33.8,31.4,33.6z"></path>
	<path fill="none" stroke="#333333" stroke-width="2" stroke-linecap="round" stroke-linejoin="round" stroke-miterlimit="10" d="   M40.7,38.4l13.9-19.7c0.2-0.3,0.3-0.8,0-1.1l-5-8.2L32.6,33.6C36,33.8,39,35.6,40.7,38.4z"></path>
	<path fill="none" stroke="#333333" stroke-width="2" stroke-linecap="round" stroke-linejoin="round" stroke-miterlimit="10" d="   M32.8,39.6l0.9,1.8c0.1,0.3,0.4,0.5,0.7,0.5l2,0.3c0.8,0.1,1.1,1,0.5,1.6l-1.5,1.4c-0.2,0.2-0.3,0.5-0.3,0.8l0.3,2   c0.1,0.8-0.7,1.3-1.3,1l-1.8-1c-0.3-0.1-0.6-0.1-0.9,0l-1.8,1c-0.7,0.4-1.5-0.2-1.3-1l0.3-2c0.1-0.3,0-0.6-0.3-0.8l-1.5-1.4   c-0.6-0.5-0.2-1.5,0.5-1.6l2-0.3c0.3,0,0.6-0.2,0.7-0.5l0.9-1.8C31.4,38.9,32.4,38.9,32.8,39.6z"></path>
</g>
</svg>