<svg xmlns="http://www.w3.org/2000/svg" xmlns:xlink="http://www.w3.org/1999/xlink" id="Layer_1" x="0px" y="0px" width="64px" height="64px" viewBox="0 0 64 64" xml:space="preserve">
<g>
	<path fill="none" stroke="#333333" stroke-width="2" stroke-linecap="round" stroke-linejoin="round" stroke-miterlimit="10" d="   M32,37.3L32,37.3c-7.8,0-14.1-6.3-14.1-14.1l-1.8-13C16,9.5,16.5,9,17.1,9h29.9c0.6,0,1.1,0.5,1,1.1l-1.8,13   C46.1,30.9,39.8,37.3,32,37.3z"></path>
	<path fill="none" stroke="#333333" stroke-width="2" stroke-linecap="round" stroke-linejoin="round" stroke-miterlimit="10" d="   M16.6,17.1h-6.1c-0.6,0-1,0.5-1,1.1c0.3,4.1,2.6,19.1,22.5,19.1"></path>
	<path fill="none" stroke="#333333" stroke-width="2" stroke-linecap="round" stroke-linejoin="round" stroke-miterlimit="10" d="   M47.4,17.1h6.1c0.6,0,1,0.5,1,1.1c-0.3,4.1-2.6,19.1-22.5,19.1"></path>
	<path fill="none" stroke="#333333" stroke-width="2" stroke-linecap="round" stroke-linejoin="round" stroke-miterlimit="10" d="   M33.9,44.9h-3.9c-0.6,0-1-0.4-1-1v-5.7c0-0.6,0.4-1,1-1h3.9c0.6,0,1,0.4,1,1v5.7C34.9,44.4,34.5,44.9,33.9,44.9z"></path>
	<path fill="none" stroke="#333333" stroke-width="2" stroke-linecap="round" stroke-linejoin="round" stroke-miterlimit="10" d="   M42.4,44.9H21.6c-0.6,0-1,0.4-1,1V54c0,0.6,0.4,1,1,1h20.7c0.6,0,1-0.4,1-1v-8.1C43.4,45.3,42.9,44.9,42.4,44.9z"></path>
	
		<line fill="none" stroke="#333333" stroke-width="2" stroke-linecap="round" stroke-linejoin="round" stroke-miterlimit="10" x1="27" y1="50" x2="38" y2="50"></line>
</g>
</svg>