<svg xmlns="http://www.w3.org/2000/svg" xmlns:xlink="http://www.w3.org/1999/xlink" id="Layer_1" x="0px" y="0px" width="64px" height="64px" viewBox="0 0 64 64" xml:space="preserve">
<g>
	<g>
		<g>
			
				<circle fill="none" stroke="#333333" stroke-width="2" stroke-linecap="round" stroke-linejoin="round" stroke-miterlimit="10" cx="32" cy="26.3" r="12"></circle>
			
				<circle fill="none" stroke="#333333" stroke-width="2" stroke-linecap="round" stroke-linejoin="round" stroke-miterlimit="10" cx="32" cy="26.3" r="17.2"></circle>
		</g>
	</g>
	
		<polyline fill="none" stroke="#333333" stroke-width="2" stroke-linecap="round" stroke-linejoin="round" stroke-miterlimit="10" points="   29.6,24.6 32,22.2 32,31  "></polyline>
	<path fill="none" stroke="#333333" stroke-width="2" stroke-linecap="round" stroke-linejoin="round" stroke-miterlimit="10" d="   M32.4,44.5l-2.6,9.6c-0.2,0.7-0.7,1.1-1.1,0.7l-3.1-4c-0.1-0.2-0.3-0.2-0.5-0.1l-4.6,1.9c-0.5,0.2-0.8-0.4-0.6-1.1l2.7-9.6"></path>
	<path fill="none" stroke="#333333" stroke-width="2" stroke-linecap="round" stroke-linejoin="round" stroke-miterlimit="10" d="   M32.4,44.5l2.6,9.6c0.2,0.7,0.7,1.1,1.1,0.7l3.1-4c0.1-0.2,0.3-0.2,0.5-0.1l4.6,1.9c0.5,0.2,0.8-0.4,0.6-1.1l-2.7-9.6"></path>
</g>
</svg>