<svg xmlns="http://www.w3.org/2000/svg" xmlns:xlink="http://www.w3.org/1999/xlink" id="Layer_1" x="0px" y="0px" width="64px" height="64px" viewBox="0 0 64 64" xml:space="preserve">
<g>
	<g>
		
			<circle fill="none" stroke="#333333" stroke-width="2" stroke-linecap="round" stroke-linejoin="round" stroke-miterlimit="10" cx="32" cy="26.2" r="12"></circle>
		<path fill="none" stroke="#333333" stroke-width="2" stroke-linecap="round" stroke-linejoin="round" stroke-miterlimit="10" d="    M32.9,21.3l1,2.1c0.1,0.3,0.4,0.5,0.7,0.5l2.3,0.3c0.8,0.1,1.1,1.1,0.5,1.6l-1.7,1.6c-0.2,0.2-0.3,0.5-0.3,0.8l0.4,2.3    c0.1,0.8-0.7,1.4-1.4,1l-2.1-1.1c-0.3-0.1-0.6-0.1-0.9,0l-2.1,1.1c-0.7,0.4-1.5-0.2-1.4-1l0.4-2.3c0.1-0.3,0-0.6-0.3-0.8l-1.7-1.6    c-0.6-0.6-0.3-1.5,0.5-1.6l2.3-0.3c0.3,0,0.6-0.2,0.7-0.5l1-2.1C31.5,20.5,32.5,20.5,32.9,21.3z"></path>
	</g>
	<g>
		<path fill="none" stroke="#333333" stroke-width="2" stroke-linecap="round" stroke-linejoin="round" stroke-miterlimit="10" d="    M50.2,26.2c0,1.5-2.2,2.8-2.5,4.2c-0.4,1.5,0.9,3.6,0.1,4.9c-0.8,1.3-3.3,1.3-4.3,2.4c-1.1,1.1-1,3.6-2.4,4.3    c-1.3,0.7-3.4-0.5-4.9-0.1c-1.4,0.4-2.7,2.5-4.2,2.5c-1.5,0-2.8-2.2-4.2-2.5c-1.5-0.4-3.6,0.9-4.9,0.1c-1.3-0.8-1.3-3.3-2.4-4.3    s-3.6-1-4.3-2.4c-0.7-1.3,0.5-3.4,0.1-4.9c-0.4-1.4-2.5-2.7-2.5-4.2c0-1.5,2.2-2.8,2.5-4.2c0.4-1.5-0.9-3.6-0.1-4.9    c0.8-1.3,3.3-1.3,4.3-2.4c1.1-1.1,1-3.6,2.4-4.3c1.3-0.7,3.4,0.5,4.9,0.1C29.2,10.2,30.5,8,32,8c1.5,0,2.8,2.2,4.2,2.5    c1.5,0.4,3.6-0.9,4.9-0.1c1.3,0.8,1.3,3.3,2.4,4.3c1.1,1.1,3.6,1,4.3,2.4c0.7,1.3-0.5,3.4-0.1,4.9C48,23.5,50.2,24.7,50.2,26.2z"></path>
	</g>
	<path fill="none" stroke="#333333" stroke-width="2" stroke-linecap="round" stroke-linejoin="round" stroke-miterlimit="10" d="   M40.1,42.5V54c0,0.7-0.8,1.2-1.4,0.9l-6.7-3c-0.3-0.1-0.6-0.1-0.8,0l-6.7,3c-0.7,0.3-1.4-0.2-1.4-0.9V42.5"></path>
</g>
</svg>