<svg xmlns="http://www.w3.org/2000/svg" xmlns:xlink="http://www.w3.org/1999/xlink" id="Layer_1" x="0px" y="0px" width="64px" height="64px" viewBox="0 0 64 64" xml:space="preserve">
<g>
	
		<polygon fill="none" stroke="#333333" stroke-width="2" stroke-linecap="round" stroke-linejoin="round" stroke-miterlimit="10" points="   43.5,17.6 20.5,17.6 14.3,8.9 49.7,8.9  "></polygon>
	<path fill="none" stroke="#333333" stroke-width="2" stroke-linecap="round" stroke-linejoin="round" stroke-miterlimit="10" d="   M27.9,28.1L14.3,8.9l-5,8.2c-0.2,0.3-0.2,0.8,0,1.1l10.6,14.9"></path>
	<path fill="none" stroke="#333333" stroke-width="2" stroke-linecap="round" stroke-linejoin="round" stroke-miterlimit="10" d="   M44.1,33.1l10.6-14.9c0.2-0.3,0.3-0.8,0-1.1l-5-8.2L35.6,28.8"></path>
	<g>
		<g>
			
				<circle fill="none" stroke="#333333" stroke-width="2" stroke-linecap="round" stroke-linejoin="round" stroke-miterlimit="10" cx="31.7" cy="41.3" r="9.6"></circle>
			<path fill="none" stroke="#333333" stroke-width="2" stroke-linecap="round" stroke-linejoin="round" stroke-miterlimit="10" d="     M32.3,37.3l0.8,1.7c0.1,0.2,0.3,0.4,0.6,0.4l1.9,0.3c0.6,0.1,0.9,0.9,0.4,1.3l-1.3,1.3c-0.2,0.2-0.3,0.4-0.2,0.7l0.3,1.8     c0.1,0.6-0.6,1.1-1.1,0.8L32,44.8c-0.2-0.1-0.5-0.1-0.7,0l-1.7,0.9c-0.6,0.3-1.2-0.2-1.1-0.8l0.3-1.8c0-0.2,0-0.5-0.2-0.7     L27.3,41c-0.5-0.4-0.2-1.2,0.4-1.3l1.9-0.3c0.3,0,0.5-0.2,0.6-0.4l0.8-1.7C31.3,36.8,32.1,36.8,32.3,37.3z"></path>
		</g>
		<g>
			<path fill="none" stroke="#333333" stroke-width="2" stroke-linecap="round" stroke-linejoin="round" stroke-miterlimit="10" d="     M46.5,41.3c0,1.2-2.1,2.2-2.4,3.3c-0.3,1.2,1,3.1,0.5,4.1c-0.6,1-2.9,0.8-3.8,1.7c-0.9,0.9-0.6,3.2-1.7,3.8     c-1,0.6-2.9-0.8-4.1-0.5c-1.1,0.3-2.1,2.4-3.3,2.4c-1.2,0-2.2-2.1-3.3-2.4c-1.2-0.3-3.1,1-4.1,0.5c-1-0.6-0.8-2.9-1.7-3.8     c-0.9-0.9-3.2-0.6-3.8-1.7c-0.6-1,0.8-2.9,0.5-4.1c-0.3-1.1-2.4-2.1-2.4-3.3c0-1.2,2.1-2.2,2.4-3.3c0.3-1.2-1-3.1-0.5-4.1     c0.6-1,2.9-0.8,3.8-1.7c0.9-0.9,0.6-3.2,1.7-3.8c1-0.6,2.9,0.8,4.1,0.5c1.1-0.3,2.1-2.4,3.3-2.4c1.2,0,2.2,2.1,3.3,2.4     c1.2,0.3,3.1-1,4.1-0.5c1,0.6,0.8,2.9,1.7,3.8c0.9,0.9,3.2,0.6,3.8,1.7c0.6,1-0.8,2.9-0.5,4.1C44.3,39.2,46.5,40.1,46.5,41.3z"></path>
		</g>
	</g>
</g>
</svg>