<svg xmlns="http://www.w3.org/2000/svg" xmlns:xlink="http://www.w3.org/1999/xlink" id="Layer_1" x="0px" y="0px" width="64px" height="64px" viewBox="0 0 64 64" xml:space="preserve">
<g>
	<path fill="none" stroke="#333333" stroke-width="2" stroke-linecap="round" stroke-linejoin="round" stroke-miterlimit="10" d="   M50.4,51.4H13.6c-0.6,0-1-0.4-1-1V13.6c0-0.6,0.4-1,1-1h36.7c0.6,0,1,0.4,1,1v36.7C51.4,50.9,50.9,51.4,50.4,51.4z"></path>
	<path fill="none" stroke="#333333" stroke-width="2" stroke-linecap="round" stroke-linejoin="round" stroke-miterlimit="10" d="   M46.2,41.3v3.9c0,0.6-0.4,1-1,1H18.8c-0.6,0-1-0.4-1-1V18.8c0-0.6,0.4-1,1-1h26.3c0.6,0,1,0.4,1,1v3.9"></path>
	
		<line fill="none" stroke="#333333" stroke-width="2" stroke-linecap="round" stroke-linejoin="round" stroke-miterlimit="10" x1="46.2" y1="28.4" x2="46.2" y2="35.6"></line>
	<g>
		
			<circle fill="none" stroke="#333333" stroke-width="2" stroke-linecap="round" stroke-linejoin="round" stroke-miterlimit="10" cx="32" cy="32" r="8.3"></circle>
		
			<circle fill="none" stroke="#333333" stroke-width="2" stroke-linecap="round" stroke-linejoin="round" stroke-miterlimit="10" cx="32" cy="32" r="4.7"></circle>
		<g>
			
				<line fill="none" stroke="#333333" stroke-width="2" stroke-linecap="round" stroke-linejoin="round" stroke-miterlimit="10" x1="32" y1="24" x2="32" y2="27"></line>
			
				<line fill="none" stroke="#333333" stroke-width="2" stroke-linecap="round" stroke-linejoin="round" stroke-miterlimit="10" x1="32" y1="40" x2="32" y2="37"></line>
		</g>
		<g>
			
				<line fill="none" stroke="#333333" stroke-width="2" stroke-linecap="round" stroke-linejoin="round" stroke-miterlimit="10" x1="40" y1="32" x2="37" y2="32"></line>
			
				<line fill="none" stroke="#333333" stroke-width="2" stroke-linecap="round" stroke-linejoin="round" stroke-miterlimit="10" x1="24" y1="32" x2="27" y2="32"></line>
		</g>
		<g>
			
				<line fill="none" stroke="#333333" stroke-width="2" stroke-linecap="round" stroke-linejoin="round" stroke-miterlimit="10" x1="37.6" y1="26.7" x2="35.4" y2="28.8"></line>
			
				<line fill="none" stroke="#333333" stroke-width="2" stroke-linecap="round" stroke-linejoin="round" stroke-miterlimit="10" x1="26.3" y1="38" x2="28.4" y2="35.9"></line>
		</g>
		<g>
			
				<line fill="none" stroke="#333333" stroke-width="2" stroke-linecap="round" stroke-linejoin="round" stroke-miterlimit="10" x1="37.6" y1="38" x2="35.4" y2="35.9"></line>
			
				<line fill="none" stroke="#333333" stroke-width="2" stroke-linecap="round" stroke-linejoin="round" stroke-miterlimit="10" x1="26.3" y1="26.7" x2="28.4" y2="28.8"></line>
		</g>
	</g>
	
		<rect x="44.2" y="22.7" fill="none" stroke="#333333" stroke-width="2" stroke-linecap="round" stroke-linejoin="round" stroke-miterlimit="10" width="3.5" height="5.7"></rect>
	
		<rect x="44.2" y="35.6" fill="none" stroke="#333333" stroke-width="2" stroke-linecap="round" stroke-linejoin="round" stroke-miterlimit="10" width="3.5" height="5.7"></rect>
</g>
</svg>