<svg xmlns="http://www.w3.org/2000/svg" xmlns:xlink="http://www.w3.org/1999/xlink" id="Layer_1" x="0px" y="0px" width="64px" height="64px" viewBox="0 0 64 64" xml:space="preserve">
<g>
	<g>
		
			<circle fill="none" stroke="#333333" stroke-width="2" stroke-linecap="round" stroke-linejoin="round" stroke-miterlimit="10" cx="32" cy="36.5" r="18.8"></circle>
		
			<circle fill="none" stroke="#333333" stroke-width="2" stroke-linecap="round" stroke-linejoin="round" stroke-miterlimit="10" cx="32" cy="36.5" r="14"></circle>
	</g>
	<path fill="#333333" d="M35.8,37.3c-0.2-0.3-0.4-0.6-0.7-0.8c-0.3-0.2-0.6-0.4-0.9-0.5c-0.3-0.1-0.6-0.2-1-0.3l-0.9-0.3   c-0.3-0.1-0.5-0.2-0.7-0.3c-0.2-0.1-0.3-0.2-0.4-0.4C31,34.5,31,34.4,31,34.2c0-0.1,0-0.2,0.1-0.3c0.1-0.1,0.2-0.2,0.3-0.3   c0.2-0.1,0.3-0.1,0.5-0.2c0.3-0.1,0.7-0.1,1,0c0.2,0,0.3,0,0.5,0.1c0.2,0,0.3,0.1,0.5,0.1c0.2,0,0.3,0.1,0.5,0.1   c0.3,0.1,0.7,0,1-0.2c0.1-0.2,0.2-0.4,0.2-0.6c0-0.2-0.1-0.4-0.2-0.5c-0.1-0.2-0.3-0.3-0.5-0.4c-0.3-0.1-0.8-0.2-1.2-0.3   c-0.2,0-0.7-0.1-0.7-0.1v-0.3c0-0.3,0-0.5-0.2-0.6c-0.3-0.3-1-0.2-1.3,0C31.3,30.7,31,31,31,31.2v0.3c0,0-0.2,0.1-0.4,0.2   c-0.4,0.1-0.6,0.3-0.9,0.5c-0.3,0.2-0.5,0.5-0.7,0.9c-0.2,0.3-0.2,0.7-0.2,1.2c0,0.4,0.1,0.8,0.2,1.1c0.1,0.3,0.4,0.6,0.6,0.8   c0.2,0.2,0.5,0.4,0.8,0.5c0.3,0.1,0.6,0.2,0.9,0.3c0.3,0.1,0.6,0.2,0.9,0.3c0.3,0.1,0.6,0.2,0.8,0.3c0.1,0.1,0.3,0.1,0.4,0.2   c0.1,0.1,0.2,0.1,0.3,0.2c0.1,0.1,0.1,0.1,0.1,0.2c0,0.1,0,0.2,0,0.3c0,0.2,0,0.3-0.1,0.4c-0.1,0.1-0.2,0.2-0.3,0.3   c-0.2,0.1-0.3,0.2-0.5,0.2c-0.5,0.1-1,0.1-1.4,0.1c-0.2,0-0.4,0-0.5-0.1c-0.2,0-0.3-0.1-0.4-0.1l-0.5-0.1c-0.3-0.1-0.7,0-1,0.2   c-0.1,0.2-0.2,0.4-0.2,0.6c0,0.2,0.1,0.4,0.2,0.5c0.1,0.2,0.3,0.3,0.5,0.4c0.1,0,0.3,0.1,0.5,0.1c0.2,0.1,0.4,0.1,0.6,0.1   c0.2,0,0.1,0.1,0.3,0.1c0.1,0-0.1,0-0.1,0v0.4c0,0.3,0.4,0.5,0.6,0.6c0.2,0.1,0.5,0.2,0.7,0.2c0.2,0,0.3-0.1,0.5-0.2   c0.2-0.2,0.3-0.4,0.3-0.6v-0.4c0,0,0.6-0.1,0.9-0.2c0.4-0.1,0.8-0.3,1.1-0.6c0.3-0.2,0.6-0.6,0.8-0.9c0.2-0.4,0.3-0.8,0.3-1.2   C36.1,38,36,37.6,35.8,37.3z"></path>
	
		<rect x="29.4" y="13" fill="none" stroke="#333333" stroke-width="2" stroke-linecap="round" stroke-linejoin="round" stroke-miterlimit="10" width="5.3" height="4.7"></rect>
	<path fill="none" stroke="#333333" stroke-width="2" stroke-linecap="round" stroke-linejoin="round" stroke-miterlimit="10" d="   M38.4,13H25.6c-1.2,0-2.1-1-2.1-2.1l0,0c0-1.2,1-2.1,2.1-2.1h12.8c1.2,0,2.1,1,2.1,2.1l0,0C40.5,12,39.6,13,38.4,13z"></path>
	<path fill="none" stroke="#333333" stroke-width="2" stroke-linecap="round" stroke-linejoin="round" stroke-miterlimit="10" d="   M48.5,19.2l-3.3,3.7l-3-2.6l3.3-3.7c0.7-0.8,2-0.9,2.8-0.2l0,0C49.1,17.1,49.2,18.4,48.5,19.2z"></path>
	<path fill="none" stroke="#333333" stroke-width="2" stroke-linecap="round" stroke-linejoin="round" stroke-miterlimit="10" d="   M15.5,19.2l3.3,3.7l3-2.6l-3.3-3.7c-0.7-0.8-2-0.9-2.8-0.2l0,0C14.9,17.1,14.8,18.4,15.5,19.2z"></path>
</g>
</svg>