<svg xmlns="http://www.w3.org/2000/svg" xmlns:xlink="http://www.w3.org/1999/xlink" id="Layer_1" x="0px" y="0px" width="64px" height="64px" viewBox="0 0 64 64" xml:space="preserve">
<g>
	<g>
		<g>
			
				<circle fill="none" stroke="#333333" stroke-width="2" stroke-linecap="round" stroke-linejoin="round" stroke-miterlimit="10" cx="28" cy="28" r="18.5"></circle>
			
				<circle fill="none" stroke="#333333" stroke-width="2" stroke-linecap="round" stroke-linejoin="round" stroke-miterlimit="10" cx="28" cy="28" r="13.1"></circle>
			<path fill="none" stroke="#333333" stroke-width="2" stroke-linecap="round" stroke-linejoin="round" stroke-miterlimit="10" d="     M41.1,41.1c-0.9,0.9-2.3,2.1-3.2,2.6l9.7,9.7c1.5,1.5,4.1,1.4,5.7-0.1c1.5-1.5,1.7-4.1,0.1-5.7l-9.7-9.7     C43.2,38.8,42.1,40.2,41.1,41.1z"></path>
		</g>
	</g>
	<path fill="#333333" d="M31,29.2c-0.2-0.3-0.4-0.6-0.7-0.8c-0.3-0.2-0.6-0.4-0.9-0.5c-0.3-0.1-0.6-0.2-1-0.3l-0.9-0.3   c-0.3-0.1-0.5-0.2-0.7-0.3c-0.2-0.1-0.3-0.2-0.4-0.4c-0.1-0.1-0.1-0.3-0.1-0.4c0-0.1,0-0.2,0.1-0.3c0.1-0.1,0.2-0.2,0.3-0.3   c0.2-0.1,0.3-0.1,0.5-0.2c0.3-0.1,0.7-0.1,1,0c0.2,0,0.3,0,0.5,0.1c0.2,0,0.3,0.1,0.5,0.1c0.2,0,0.3,0.1,0.5,0.1   c0.3,0.1,0.7,0,1-0.2c0.1-0.2,0.2-0.4,0.2-0.6c0-0.2-0.1-0.4-0.2-0.5c-0.1-0.2-0.3-0.3-0.5-0.4c-0.3-0.1-0.9-0.2-1.3-0.3   c-0.2,0-0.8-0.1-0.8-0.1v-0.3c0-0.3,0.1-0.5-0.1-0.6c-0.3-0.3-1-0.2-1.4,0c-0.2,0.2-0.6,0.4-0.6,0.6v0.3c0,0-0.1,0.1-0.3,0.2   c-0.4,0.1-0.5,0.3-0.8,0.5c-0.3,0.2-0.5,0.5-0.6,0.9C24,25.4,24,25.7,24,26.2c0,0.4,0.1,0.8,0.2,1.1c0.1,0.3,0.4,0.6,0.6,0.8   c0.2,0.2,0.5,0.4,0.8,0.5c0.3,0.1,0.6,0.2,0.9,0.3c0.3,0.1,0.6,0.2,0.9,0.3c0.3,0.1,0.6,0.2,0.8,0.3c0.1,0.1,0.3,0.1,0.4,0.2   c0.1,0.1,0.2,0.1,0.3,0.2c0.1,0.1,0.1,0.1,0.1,0.2c0,0.1,0,0.2,0,0.3c0,0.2,0,0.3-0.1,0.4c-0.1,0.1-0.2,0.2-0.3,0.3   c-0.2,0.1-0.3,0.2-0.5,0.2c-0.5,0.1-1,0.1-1.4,0.1c-0.2,0-0.4,0-0.5-0.1c-0.2,0-0.3-0.1-0.4-0.1l-0.5-0.1c-0.3-0.1-0.7,0-1,0.2   c-0.1,0.2-0.2,0.4-0.2,0.6c0,0.2,0.1,0.4,0.2,0.5c0.1,0.2,0.3,0.3,0.5,0.4c0.1,0,0.3,0.1,0.5,0.1c0.2,0.1,0.4,0.1,0.6,0.1   c0.2,0,0,0.1,0.3,0.1c0.1,0-0.2,0-0.2,0v0.4c0,0.3,0.5,0.5,0.6,0.6c0.2,0.1,0.5,0.2,0.7,0.2c0.2,0,0.3-0.1,0.4-0.2   c0.2-0.2,0.2-0.4,0.2-0.6v-0.4c0,0,0.7-0.1,1-0.2c0.4-0.1,0.9-0.3,1.2-0.6c0.3-0.2,0.6-0.6,0.8-0.9c0.2-0.4,0.3-0.8,0.3-1.2   C31.3,29.9,31.2,29.5,31,29.2z"></path>
</g>
</svg>