<svg xmlns="http://www.w3.org/2000/svg" xmlns:xlink="http://www.w3.org/1999/xlink" id="Layer_1" x="0px" y="0px" width="64px" height="64px" viewBox="0 0 64 64" xml:space="preserve">
<g>
	<g>
		<path fill="none" stroke="#333333" stroke-width="2" stroke-linecap="round" stroke-linejoin="round" stroke-miterlimit="10" d="    M53.2,43.4H10.8c-0.6,0-1-0.4-1-1V21.5c0-0.6,0.4-1,1-1h42.3c0.6,0,1,0.4,1,1v20.9C54.2,43,53.7,43.4,53.2,43.4z"></path>
		
			<ellipse fill="none" stroke="#333333" stroke-width="2" stroke-linecap="round" stroke-linejoin="round" stroke-miterlimit="10" cx="32" cy="32.3" rx="4.9" ry="4.9"></ellipse>
		<path fill="none" stroke="#333333" stroke-width="2" stroke-linecap="round" stroke-linejoin="round" stroke-miterlimit="10" d="    M48.2,23H15.8c0,2-0.8,3.3-2.8,3.6v5.8v5.8c2,0.3,2.8-0.2,2.8,1.8h32.4c0.1-1,0.8-1.5,2.8-1.8v-5.8v-5.8C49,26.3,48.3,25,48.2,23z    "></path>
	</g>
	<g>
		<path fill="none" stroke="#333333" stroke-width="2" stroke-linecap="round" stroke-linejoin="round" stroke-miterlimit="10" d="    M35.3,43.6l-10,10c-0.4,0.4-1.1,0.4-1.5,0l-10-10"></path>
		<path fill="none" stroke="#333333" stroke-width="2" stroke-linecap="round" stroke-linejoin="round" stroke-miterlimit="10" d="    M28.6,20.6l10.1-10.1c0.4-0.4,1.1-0.4,1.5,0l10.1,10.1"></path>
		<path fill="none" stroke="#333333" stroke-width="2" stroke-linecap="round" stroke-linejoin="round" stroke-miterlimit="10" d="    M46,20.6l-0.7-0.7L41.4,16c-1.3,0.8-2.5,1.1-4-0.2l-4.8,4.8"></path>
		<path fill="none" stroke="#333333" stroke-width="2" stroke-linecap="round" stroke-linejoin="round" stroke-miterlimit="10" d="    M18.1,43.6l1.2,1.2l3.9,3.9c1.5-1.2,2.1-1.6,3.5-0.3l4.8-4.8"></path>
	</g>
</g>
</svg>