<svg xmlns="http://www.w3.org/2000/svg" xmlns:xlink="http://www.w3.org/1999/xlink" id="Layer_1" x="0px" y="0px" width="64px" height="64px" viewBox="0 0 64 64" xml:space="preserve">
<g>
	<g>
		<path fill="none" stroke="#333333" stroke-width="2" stroke-linecap="round" stroke-linejoin="round" stroke-miterlimit="10" d="    M38.4,39.6v13.6c0,0.6-0.4,1-1,1h-21c-0.6,0-1-0.4-1-1V10.8c0-0.6,0.4-1,1-1h21c0.6,0,1,0.4,1,1v11.8"></path>
		
			<line fill="none" stroke="#333333" stroke-width="2" stroke-linecap="round" stroke-linejoin="round" stroke-miterlimit="10" x1="16" y1="17" x2="38" y2="17"></line>
		
			<line fill="none" stroke="#333333" stroke-width="2" stroke-linecap="round" stroke-linejoin="round" stroke-miterlimit="10" x1="16" y1="46" x2="38" y2="46"></line>
		
			<line fill="none" stroke="#333333" stroke-width="2" stroke-linecap="round" stroke-linejoin="round" stroke-miterlimit="10" x1="24" y1="13" x2="29" y2="13"></line>
		
			<circle fill="none" stroke="#333333" stroke-width="2" stroke-linecap="round" stroke-linejoin="round" stroke-miterlimit="10" cx="26.9" cy="50.4" r="1"></circle>
	</g>
	<path fill="#333333" d="M30.9,32c-0.2-0.3-0.4-0.6-0.7-0.8c-0.3-0.2-0.6-0.4-0.9-0.5c-0.3-0.1-0.6-0.2-1-0.3L27.3,30   c-0.3-0.1-0.5-0.2-0.7-0.3c-0.2-0.1-0.3-0.2-0.4-0.4c-0.1-0.1-0.1-0.3-0.1-0.4c0-0.1,0-0.2,0.1-0.3c0.1-0.1,0.2-0.2,0.3-0.3   c0.2-0.1,0.3-0.1,0.5-0.2c0.3-0.1,0.7-0.1,1,0c0.2,0,0.3,0,0.5,0.1c0.2,0,0.3,0.1,0.5,0.1c0.2,0,0.3,0.1,0.5,0.1   c0.3,0.1,0.7,0,1-0.2c0.1-0.2,0.2-0.4,0.2-0.6c0-0.2-0.1-0.4-0.2-0.5c-0.1-0.2-0.3-0.3-0.5-0.4c-0.3-0.1-0.8-0.2-1.2-0.3   c-0.2,0-0.8-0.1-0.8-0.1v-0.3c0-0.3,0-0.5-0.2-0.6c-0.3-0.3-1-0.2-1.3,0c-0.2,0.2-0.5,0.4-0.5,0.6v0.3c0,0-0.2,0.1-0.4,0.2   c-0.4,0.1-0.6,0.3-0.9,0.5c-0.3,0.2-0.5,0.5-0.6,0.9c-0.2,0.3-0.2,0.7-0.2,1.2c0,0.4,0.1,0.8,0.2,1.1c0.1,0.3,0.4,0.6,0.6,0.8   c0.2,0.2,0.5,0.4,0.8,0.5c0.3,0.1,0.6,0.2,0.9,0.3c0.3,0.1,0.6,0.2,0.9,0.3c0.3,0.1,0.6,0.2,0.8,0.3c0.1,0.1,0.3,0.1,0.4,0.2   c0.1,0.1,0.2,0.1,0.3,0.2c0.1,0.1,0.1,0.1,0.1,0.2c0,0.1,0,0.2,0,0.3c0,0.2,0,0.3-0.1,0.4c-0.1,0.1-0.2,0.2-0.3,0.3   c-0.2,0.1-0.3,0.2-0.5,0.2c-0.5,0.1-1,0.1-1.4,0.1c-0.2,0-0.4,0-0.5-0.1c-0.2,0-0.3-0.1-0.4-0.1l-0.5-0.1c-0.3-0.1-0.7,0-1,0.2   c-0.1,0.2-0.2,0.4-0.2,0.6c0,0.2,0.1,0.4,0.2,0.5c0.1,0.2,0.3,0.3,0.5,0.4c0.1,0,0.3,0.1,0.5,0.1c0.2,0.1,0.4,0.1,0.6,0.1   c0.2,0,0.1,0.1,0.3,0.1c0.1,0-0.1,0-0.1,0v0.4c0,0.3,0.5,0.5,0.6,0.6c0.2,0.1,0.5,0.2,0.7,0.2s0.3-0.1,0.5-0.2   C28,37,28,36.7,28,36.5v-0.4c0,0,0.7-0.1,0.9-0.2c0.4-0.1,0.8-0.3,1.1-0.6c0.3-0.2,0.6-0.6,0.8-0.9c0.2-0.4,0.3-0.8,0.3-1.2   C31.2,32.7,31.1,32.3,30.9,32z"></path>
	<path fill="none" stroke="#333333" stroke-width="2" stroke-linecap="round" stroke-linejoin="round" stroke-miterlimit="10" d="   M41.2,40.7c9.7-2.8,7-16.2,7-16.2c-5.9-1.7-7-3.4-7-3.4s-1.1,1.7-7,3.4C34.2,24.5,31.6,37.9,41.2,40.7z"></path>
</g>
</svg>