<svg xmlns="http://www.w3.org/2000/svg" xmlns:xlink="http://www.w3.org/1999/xlink" id="Layer_1" x="0px" y="0px" width="64px" height="64px" viewBox="0 0 64 64" xml:space="preserve">
<g>
	<g>
		<path fill="none" stroke="#333333" stroke-width="2" stroke-linecap="round" stroke-linejoin="round" stroke-miterlimit="10" d="    M53.2,37.1H10.8c-0.6,0-1-0.4-1-1V15.2c0-0.6,0.4-1,1-1h42.3c0.6,0,1,0.4,1,1v20.9C54.2,36.6,53.7,37.1,53.2,37.1z"></path>
		
			<ellipse fill="none" stroke="#333333" stroke-width="2" stroke-linecap="round" stroke-linejoin="round" stroke-miterlimit="10" cx="32" cy="26" rx="4.9" ry="4.9"></ellipse>
		<path fill="none" stroke="#333333" stroke-width="2" stroke-linecap="round" stroke-linejoin="round" stroke-miterlimit="10" d="    M48.2,17H15.8c0,2-0.8,3-2.8,3.2V26v5.8c2,0.3,2.8,0.2,2.8,2.2h32.4c0.1-1,0.8-1.9,2.8-2.2V26v-5.8C49,19.9,48.3,19,48.2,17z"></path>
	</g>
	<g>
		
			<line fill="none" stroke="#333333" stroke-width="2" stroke-linecap="round" stroke-linejoin="round" stroke-miterlimit="10" x1="10" y1="42" x2="54" y2="42"></line>
		
			<line fill="none" stroke="#333333" stroke-width="2" stroke-linecap="round" stroke-linejoin="round" stroke-miterlimit="10" x1="10" y1="46" x2="54" y2="46"></line>
		
			<line fill="none" stroke="#333333" stroke-width="2" stroke-linecap="round" stroke-linejoin="round" stroke-miterlimit="10" x1="10" y1="50" x2="54" y2="50"></line>
	</g>
</g>
</svg>