<svg xmlns="http://www.w3.org/2000/svg" xmlns:xlink="http://www.w3.org/1999/xlink" id="Layer_1" x="0px" y="0px" width="64px" height="64px" viewBox="0 0 64 64" xml:space="preserve">
<g>
	<path fill="none" stroke="#333333" stroke-width="2" stroke-linecap="round" stroke-linejoin="round" stroke-miterlimit="10" d="   M42.8,50.6H21.2c-5.6,0-9.8-5.2-8.7-10.7l0.6-2.8c1.5-7.4,8-12.7,15.6-12.7h6.6c7.5,0,14,5.3,15.6,12.7l0.6,2.8   C52.6,45.4,48.4,50.6,42.8,50.6z"></path>
	<path fill="none" stroke="#333333" stroke-width="2" stroke-linecap="round" stroke-linejoin="round" stroke-miterlimit="10" d="   M11.3,30.8c3.2-6.2,9.6-10.2,16.8-10.2h7.8c7.2,0,13.6,4.1,16.8,10.2"></path>
	<g>
		
			<line fill="none" stroke="#333333" stroke-width="2" stroke-linecap="round" stroke-linejoin="round" stroke-miterlimit="10" x1="27" y1="20" x2="27" y2="18"></line>
		
			<circle fill="none" stroke="#333333" stroke-width="2" stroke-linecap="round" stroke-linejoin="round" stroke-miterlimit="10" cx="27.8" cy="15.7" r="2.3"></circle>
	</g>
	<g>
		
			<line fill="none" stroke="#333333" stroke-width="2" stroke-linecap="round" stroke-linejoin="round" stroke-miterlimit="10" x1="36" y1="20" x2="36" y2="18"></line>
		
			<circle fill="none" stroke="#333333" stroke-width="2" stroke-linecap="round" stroke-linejoin="round" stroke-miterlimit="10" cx="35.3" cy="15.7" r="2.3"></circle>
	</g>
</g>
</svg>