<svg xmlns="http://www.w3.org/2000/svg" xmlns:xlink="http://www.w3.org/1999/xlink" id="Layer_1" x="0px" y="0px" width="64px" height="64px" viewBox="0 0 64 64" xml:space="preserve">
<g>
	<g>
		<path fill="none" stroke="#333333" stroke-width="2" stroke-linecap="round" stroke-linejoin="round" stroke-miterlimit="10" d="    M49.9,42.8c1.9,1.4,3.1,3,3.1,4.5c0,1.3-0.9,2.5-2.5,3.4"></path>
		<path fill="none" stroke="#333333" stroke-width="2" stroke-linecap="round" stroke-linejoin="round" stroke-miterlimit="10" d="    M43.1,52.9c-3.4,0.5-7.3,0.8-11.6,0.8c-11.9,0-21.5-2-21.5-6.4c0-3.8,7.1-8.1,16.6-9.2"></path>
		<path fill="none" stroke="#333333" stroke-width="2" stroke-linecap="round" stroke-linejoin="round" stroke-miterlimit="10" d="    M26,37.8C18,37.5,12,36,12,32.9c0-3.4,7.5-7.4,16.7-7.4c3.9,0,7.5,0.7,10.3,1.8"></path>
		<path fill="none" stroke="#333333" stroke-width="2" stroke-linecap="round" stroke-linejoin="round" stroke-miterlimit="10" d="    M44.6,21.6c0,2.7-5.9,3.9-13.1,3.9c-7.3,0-13.1-1.2-13.1-3.9s5.9-5.8,13.1-5.8C38.8,15.8,44.6,18.9,44.6,21.6z"></path>
		<path fill="none" stroke="#333333" stroke-width="2" stroke-linecap="round" stroke-linejoin="round" stroke-miterlimit="10" d="    M39.2,13.6c0,1.5-3.3,2.2-7.4,2.2c-4.1,0-7.4-0.7-7.4-2.2c0-1.5,3.3-3.3,7.4-3.3C35.9,10.3,39.2,12,39.2,13.6z"></path>
	</g>
	<g>
		
			<circle fill="none" stroke="#333333" stroke-width="2" stroke-linecap="round" stroke-linejoin="round" stroke-miterlimit="10" cx="40.3" cy="41.2" r="3.3"></circle>
		<path fill="none" stroke="#333333" stroke-width="2" stroke-linecap="round" stroke-linejoin="round" stroke-miterlimit="10" d="    M53.7,36.6c-0.8-2.4-3.5-3.7-5.3-3.1c-1.5,0.5-4.9,3.2-5.5,5.5c0.5,0.6,0.7,1.3,0.7,2.1c0,0.1,0,0.1,0,0.1c1.8,1.5,6.3,1.5,7.8,1    C53.2,41.7,54.6,39.1,53.7,36.6z"></path>
		<path fill="none" stroke="#333333" stroke-width="2" stroke-linecap="round" stroke-linejoin="round" stroke-miterlimit="10" d="    M49.9,46.9c-0.9-1.3-4.5-3.9-6.8-3.8c-0.5,0.7-1.1,1.2-1.9,1.4c-0.9,2.2,0.2,6.4,1.1,7.7c1.1,1.5,4,2.1,6.1,0.7    C50.5,51.4,51,48.5,49.9,46.9z"></path>
		<path fill="none" stroke="#333333" stroke-width="2" stroke-linecap="round" stroke-linejoin="round" stroke-miterlimit="10" d="    M37.6,43.1c-2.4-0.1-5.9,2.5-6.8,3.8c-1.1,1.5-0.5,4.5,1.6,5.9c2.1,1.4,5,0.8,6.1-0.7c0.9-1.3,2-5.5,1.1-7.7    C38.7,44.2,38,43.7,37.6,43.1z"></path>
		<path fill="none" stroke="#333333" stroke-width="2" stroke-linecap="round" stroke-linejoin="round" stroke-miterlimit="10" d="    M37,41.2c0-0.8,0.3-1.5,0.7-2.1c-0.6-2.3-4-5-5.5-5.5c-1.8-0.6-4.5,0.7-5.3,3.1c-0.8,2.4,0.5,5.1,2.3,5.7c1.5,0.5,5.9,0.5,7.8-1    C37,41.3,37,41.2,37,41.2z"></path>
		<path fill="none" stroke="#333333" stroke-width="2" stroke-linecap="round" stroke-linejoin="round" stroke-miterlimit="10" d="    M39.2,38c0.4-0.1,0.7-0.2,1.1-0.2c0.4,0,0.8,0.1,1.2,0.2c2-1.3,3.5-5.4,3.5-7c0-1.9-2.1-4-4.6-4c-2.6,0-4.6,2.1-4.6,4    C35.8,32.6,37.2,36.7,39.2,38z"></path>
	</g>
</g>
<path fill="none" stroke="#333333" stroke-width="2" stroke-linecap="round" stroke-linejoin="round" stroke-miterlimit="10" d="  M30.3,30.7c0,0,2.7,0.9,3.4,2.5"></path>
</svg>