<svg xmlns="http://www.w3.org/2000/svg" xmlns:xlink="http://www.w3.org/1999/xlink" id="Layer_1" x="0px" y="0px" width="64px" height="64px" viewBox="0 0 64 64" xml:space="preserve">
<g>
	<path fill="none" stroke="#333333" stroke-width="2" stroke-linecap="round" stroke-linejoin="round" stroke-miterlimit="10" d="   M39.7,20.6l-8,5.6l-8-5.6v-6.9c0-1.6,1.3-2.8,2.8-2.8h10.5c1.6,0,2.8,1.3,2.8,2.8V20.6z"></path>
	<path fill="none" stroke="#333333" stroke-width="2" stroke-linecap="round" stroke-linejoin="round" stroke-miterlimit="10" d="   M22.6,15.6h-4.7c-1.6,0-2.8,1.3-2.8,2.8v33.7c0,0.6,0.4,1,1,1h31.8c0.6,0,1-0.4,1-1V18.4c0-1.6-1.3-2.8-2.8-2.8h-5.6"></path>
	
		<polygon fill="none" stroke="#333333" stroke-width="2" stroke-linecap="round" stroke-linejoin="round" stroke-miterlimit="10" points="   31.6,26.2 25.1,30.1 23.6,20.6  "></polygon>
	
		<polygon fill="none" stroke="#333333" stroke-width="2" stroke-linecap="round" stroke-linejoin="round" stroke-miterlimit="10" points="   32,26.2 38.2,30.1 39.7,20.6  "></polygon>
	
		<line fill="none" stroke="#333333" stroke-width="2" stroke-linecap="round" stroke-linejoin="round" stroke-miterlimit="10" x1="32" y1="26" x2="32" y2="53"></line>
</g>
</svg>