<svg xmlns="http://www.w3.org/2000/svg" xmlns:xlink="http://www.w3.org/1999/xlink" id="Layer_1" x="0px" y="0px" width="64px" height="64px" viewBox="0 0 64 64" xml:space="preserve">
<g>
	
		<polyline fill="none" stroke="#333333" stroke-width="2" stroke-linecap="round" stroke-linejoin="round" stroke-miterlimit="10" points="   43.5,19.6 32.3,25 26.7,25 34,19  "></polyline>
	<path fill="none" stroke="#333333" stroke-width="2" stroke-linecap="round" stroke-linejoin="round" stroke-miterlimit="10" d="   M42,20h9.5c1.3,0,2.3-1.2,2.3-2.5c0-1.3-1-2.5-2.3-2.5H18.8l-4.3-4.4l-4.4-1.6l3.5,8.9c0.3,1.2,1,2.1,2.3,2.1h16"></path>
	<g>
		
			<line fill="none" stroke="#333333" stroke-width="2" stroke-linecap="round" stroke-linejoin="round" stroke-miterlimit="10" x1="42.2" y1="51.9" x2="21.7" y2="51.9"></line>
		<path fill="none" stroke="#333333" stroke-width="2" stroke-linecap="round" stroke-linejoin="round" stroke-miterlimit="10" d="    M15.2,51.9h-2.4c-0.9,0-1.6-0.7-1.6-1.6V30.8c0-0.9,0.7-1.6,1.6-1.6h30c0.5,0,0.9,0.2,1.2,0.5l8.5,9.3c0.3,0.3,0.4,0.7,0.4,1.1    v10.1c0,0.9-0.7,1.6-1.6,1.6h-2.5"></path>
		
			<circle fill="none" stroke="#333333" stroke-width="2" stroke-linecap="round" stroke-linejoin="round" stroke-miterlimit="10" cx="18.4" cy="51.6" r="3.3"></circle>
		
			<circle fill="none" stroke="#333333" stroke-width="2" stroke-linecap="round" stroke-linejoin="round" stroke-miterlimit="10" cx="45.5" cy="51.6" r="3.3"></circle>
		
			<line fill="none" stroke="#333333" stroke-width="2" stroke-linecap="round" stroke-linejoin="round" stroke-miterlimit="10" x1="12" y1="39" x2="53" y2="39"></line>
		
			<line fill="none" stroke="#333333" stroke-width="2" stroke-linecap="round" stroke-linejoin="round" stroke-miterlimit="10" x1="20" y1="29" x2="20" y2="39"></line>
		
			<line fill="none" stroke="#333333" stroke-width="2" stroke-linecap="round" stroke-linejoin="round" stroke-miterlimit="10" x1="29" y1="29" x2="29" y2="39"></line>
		
			<line fill="none" stroke="#333333" stroke-width="2" stroke-linecap="round" stroke-linejoin="round" stroke-miterlimit="10" x1="38" y1="29" x2="38" y2="39"></line>
	</g>
</g>
</svg>