<svg xmlns="http://www.w3.org/2000/svg" xmlns:xlink="http://www.w3.org/1999/xlink" id="Layer_1" x="0px" y="0px" width="64px" height="64px" viewBox="0 0 64 64" xml:space="preserve">
<g>
	
		<line fill="none" stroke="#333333" stroke-width="2" stroke-linecap="round" stroke-linejoin="round" stroke-miterlimit="10" x1="22.4" y1="44.6" x2="22.4" y2="54.1"></line>
	
		<line fill="none" stroke="#333333" stroke-width="2" stroke-linecap="round" stroke-linejoin="round" stroke-miterlimit="10" x1="18.2" y1="55" x2="26.7" y2="55"></line>
	
		<rect x="40.2" y="9" fill="none" stroke="#333333" stroke-width="2" stroke-linecap="round" stroke-linejoin="round" stroke-miterlimit="10" width="5.6" height="14.9"></rect>
	
		<rect x="40.2" y="9" fill="none" stroke="#333333" stroke-width="2" stroke-linecap="round" stroke-linejoin="round" stroke-miterlimit="10" width="5.6" height="4.6"></rect>
	<path fill="none" stroke="#333333" stroke-width="2" stroke-linecap="round" stroke-linejoin="round" stroke-miterlimit="10" d="   M35.8,55h14.2V30.4c0-3.5-2.9-6.4-6.4-6.4h-1.4c-3.5,0-6.4,2.9-6.4,6.4V55z"></path>
	
		<rect x="43.4" y="32.6" fill="none" stroke="#333333" stroke-width="2" stroke-linecap="round" stroke-linejoin="round" stroke-miterlimit="10" width="6.6" height="17.3"></rect>
	<g>
		<path fill="none" stroke="#333333" stroke-width="2" stroke-linecap="round" stroke-linejoin="round" stroke-miterlimit="10" d="    M22,44.3c8.7,0,8.4-16.3,8.4-16.3h-8.3h-8.3c0,0-0.3,16.1,8.4,16.1"></path>
		
			<line fill="none" stroke="#333333" stroke-width="2" stroke-linecap="round" stroke-linejoin="round" stroke-miterlimit="10" x1="15" y1="36" x2="29" y2="36"></line>
	</g>
</g>
</svg>