<svg xmlns="http://www.w3.org/2000/svg" xmlns:xlink="http://www.w3.org/1999/xlink" id="Layer_1" x="0px" y="0px" width="64px" height="64px" viewBox="0 0 64 64" xml:space="preserve">
<g>
	<path fill="none" stroke="#333333" stroke-width="2" stroke-linecap="round" stroke-linejoin="round" stroke-miterlimit="10" d="   M39.8,35.1c-0.2-4.4-3.6-7.8-7.8-7.8c-4.1,0-7.5,3.3-7.8,7.6c-3.6,1-6.3,4.1-6.3,7.8c0,4.5,4,8.2,8.9,8.2c1.8,0,3.4-0.5,4.8-1.3   c1.4,0.8,3,1.3,4.8,1.3c4.9,0,8.9-3.7,8.9-8.2C45.3,39.2,43.1,36.3,39.8,35.1z"></path>
	
		<ellipse transform="matrix(0.997 -7.677986e-002 7.677986e-002 0.997 -1.416 1.9965)" fill="none" stroke="#333333" stroke-width="2" stroke-linecap="round" stroke-linejoin="round" stroke-miterlimit="10" cx="25.3" cy="19.4" rx="4.4" ry="6.2"></ellipse>
	
		<ellipse transform="matrix(-0.997 -7.677993e-002 7.677993e-002 -0.997 75.8811 41.744)" fill="none" stroke="#333333" stroke-width="2" stroke-linecap="round" stroke-linejoin="round" stroke-miterlimit="10" cx="38.7" cy="19.4" rx="4.4" ry="6.2"></ellipse>
	
		<ellipse transform="matrix(0.934 -0.3572 0.3572 0.934 -9.0991 7.7749)" fill="none" stroke="#333333" stroke-width="2" stroke-linecap="round" stroke-linejoin="round" stroke-miterlimit="10" cx="16.5" cy="28.5" rx="3.9" ry="5.5"></ellipse>
	
		<ellipse transform="matrix(-0.934 -0.3572 0.3572 -0.934 81.6778 72.13)" fill="none" stroke="#333333" stroke-width="2" stroke-linecap="round" stroke-linejoin="round" stroke-miterlimit="10" cx="47.5" cy="28.5" rx="3.9" ry="5.5"></ellipse>
</g>
</svg>