<svg xmlns="http://www.w3.org/2000/svg" xmlns:xlink="http://www.w3.org/1999/xlink" id="Layer_1" x="0px" y="0px" width="64px" height="64px" viewBox="0 0 64 64" xml:space="preserve">
<g>
	<path fill="none" stroke="#333333" stroke-width="2" stroke-linecap="round" stroke-linejoin="round" stroke-miterlimit="10" d="   M50.3,42.3H17.8c-1.7,0-3-1.3-3-3V21.3c0-1.7,1.3-3,3-3h32.5c1.7,0,3,1.3,3,3v17.9C53.3,40.9,52,42.3,50.3,42.3z"></path>
	<path fill="none" stroke="#333333" stroke-width="2" stroke-linecap="round" stroke-linejoin="round" stroke-miterlimit="10" d="   M40.4,18.3H28.6v-2.9c0-1.1,0.9-2,2-2h7.8c1.1,0,2,0.9,2,2V18.3z"></path>
	
		<line fill="none" stroke="#333333" stroke-width="2" stroke-linecap="round" stroke-linejoin="round" stroke-miterlimit="10" x1="21" y1="18" x2="21" y2="42"></line>
	
		<line fill="none" stroke="#333333" stroke-width="2" stroke-linecap="round" stroke-linejoin="round" stroke-miterlimit="10" x1="47" y1="18" x2="47" y2="42"></line>
	<g>
		
			<polygon fill="none" stroke="#333333" stroke-width="2" stroke-linecap="round" stroke-linejoin="round" stroke-miterlimit="10" points="    31.1,33.7 25,33.7 25,27 28.1,24.1 31.1,27   "></polygon>
		
			<line fill="none" stroke="#333333" stroke-width="2" stroke-linecap="round" stroke-linejoin="round" stroke-miterlimit="10" x1="28" y1="18" x2="28" y2="24"></line>
	</g>
	
		<polyline fill="none" stroke="#333333" stroke-width="2" stroke-linecap="round" stroke-linejoin="round" stroke-miterlimit="10" points="   8,11 11,11 11,46 56,46  "></polyline>
	
		<circle fill="none" stroke="#333333" stroke-width="2" stroke-linecap="round" stroke-linejoin="round" stroke-miterlimit="10" cx="15.7" cy="49.7" r="3.4"></circle>
	
		<circle fill="none" stroke="#333333" stroke-width="2" stroke-linecap="round" stroke-linejoin="round" stroke-miterlimit="10" cx="50.3" cy="49.7" r="3.4"></circle>
</g>
</svg>