<svg xmlns="http://www.w3.org/2000/svg" xmlns:xlink="http://www.w3.org/1999/xlink" id="Layer_1" x="0px" y="0px" width="64px" height="64px" viewBox="0 0 64 64" xml:space="preserve">
<g>
	<path fill="none" stroke="#333333" stroke-width="2" stroke-linecap="round" stroke-linejoin="round" stroke-miterlimit="10" d="   M45,55H19l0,0c0-5.2,4.2-9.4,9.4-9.4h7.2C40.8,45.6,45,49.8,45,55L45,55z"></path>
	<path fill="none" stroke="#333333" stroke-width="2" stroke-linecap="round" stroke-linejoin="round" stroke-miterlimit="10" d="   M34,10.1l2.2,4.5c0.3,0.6,0.9,1,1.5,1.1l4.9,0.7c1.7,0.2,2.3,2.3,1.1,3.5l-3.6,3.5c-0.5,0.5-0.7,1.1-0.6,1.8l0.8,4.9   c0.3,1.7-1.5,2.9-3,2.1l-4.4-2.3c-0.6-0.3-1.3-0.3-1.9,0l-4.4,2.3c-1.5,0.8-3.2-0.5-3-2.1l0.8-4.9c0.1-0.7-0.1-1.3-0.6-1.8   l-3.6-3.5c-1.2-1.2-0.5-3.2,1.1-3.5l4.9-0.7c0.7-0.1,1.2-0.5,1.5-1.1l2.2-4.5C31.1,8.6,33.3,8.6,34,10.1z"></path>
	<path fill="none" stroke="#333333" stroke-width="2" stroke-linecap="round" stroke-linejoin="round" stroke-miterlimit="10" d="   M27.7,45.6c0,0-2.2-19.6-15.5-24.5"></path>
	<path fill="none" stroke="#333333" stroke-width="2" stroke-linecap="round" stroke-linejoin="round" stroke-miterlimit="10" d="   M36.3,45.6c0,0,2.2-19.6,15.5-24.5"></path>
	
		<line fill="none" stroke="#333333" stroke-width="2" stroke-linecap="round" stroke-linejoin="round" stroke-miterlimit="10" x1="32" y1="30" x2="32" y2="45"></line>
</g>
</svg>