<svg xmlns="http://www.w3.org/2000/svg" xmlns:xlink="http://www.w3.org/1999/xlink" id="Layer_1" x="0px" y="0px" width="64px" height="64px" viewBox="0 0 64 64" xml:space="preserve">
<g>
	<path fill="none" stroke="#333333" stroke-width="2" stroke-linecap="round" stroke-linejoin="round" stroke-miterlimit="10" d="   M45,55.5H19l0,0c0-5.2,4.2-9.4,9.4-9.4h7.2C40.8,46.1,45,50.3,45,55.5L45,55.5z"></path>
	<path fill="none" stroke="#333333" stroke-width="2" stroke-linecap="round" stroke-linejoin="round" stroke-miterlimit="10" d="   M33.2,15.1l1.3,2.6c0.2,0.3,0.5,0.6,0.9,0.6l2.9,0.4c1,0.1,1.4,1.3,0.7,2l-2.1,2c-0.3,0.3-0.4,0.7-0.3,1l0.5,2.8   c0.2,1-0.8,1.7-1.7,1.2l-2.6-1.3c-0.3-0.2-0.8-0.2-1.1,0l-2.6,1.3c-0.9,0.5-1.9-0.3-1.7-1.2l0.5-2.8c0.1-0.4-0.1-0.8-0.3-1l-2.1-2   c-0.7-0.7-0.3-1.9,0.7-2l2.9-0.4c0.4-0.1,0.7-0.3,0.9-0.6l1.3-2.6C31.6,14.2,32.8,14.2,33.2,15.1z"></path>
	
		<circle fill="none" stroke="#333333" stroke-width="2" stroke-linecap="round" stroke-linejoin="round" stroke-miterlimit="10" cx="32" cy="21.5" r="13"></circle>
	<path fill="none" stroke="#333333" stroke-width="2" stroke-linecap="round" stroke-linejoin="round" stroke-miterlimit="10" d="   M27.7,46.1c0,0-2.2-19.6-15.5-24.5"></path>
	<path fill="none" stroke="#333333" stroke-width="2" stroke-linecap="round" stroke-linejoin="round" stroke-miterlimit="10" d="   M36.3,46.1c0,0,2.2-19.6,15.5-24.5"></path>
	
		<line fill="none" stroke="#333333" stroke-width="2" stroke-linecap="round" stroke-linejoin="round" stroke-miterlimit="10" x1="32" y1="34" x2="32" y2="45"></line>
</g>
</svg>