<svg xmlns="http://www.w3.org/2000/svg" xmlns:xlink="http://www.w3.org/1999/xlink" id="Layer_1" x="0px" y="0px" width="64px" height="64px" viewBox="0 0 64 64" xml:space="preserve">
<g>
	
		<polygon fill="none" stroke="#333333" stroke-width="2" stroke-linecap="round" stroke-linejoin="round" stroke-miterlimit="10" points="   38,34 26,34 20,26.4 20,9.1 44,9.1 44,26.4  "></polygon>
	
		<line fill="none" stroke="#333333" stroke-width="2" stroke-linecap="round" stroke-linejoin="round" stroke-miterlimit="10" x1="26" y1="9" x2="26" y2="33"></line>
	
		<line fill="none" stroke="#333333" stroke-width="2" stroke-linecap="round" stroke-linejoin="round" stroke-miterlimit="10" x1="38" y1="9" x2="38" y2="33"></line>
	<path fill="none" stroke="#333333" stroke-width="2" stroke-linecap="round" stroke-linejoin="round" stroke-miterlimit="10" d="   M34,35.1l2,4c0.3,0.5,0.8,0.9,1.4,1l4.4,0.6c1.5,0.2,2.1,2,1,3.1l-3.2,3.1c-0.4,0.4-0.6,1-0.5,1.6l0.7,4.4c0.3,1.5-1.3,2.6-2.6,1.9   l-3.9-2.1c-0.5-0.3-1.2-0.3-1.7,0l-3.9,2.1c-1.3,0.7-2.9-0.4-2.6-1.9l0.7-4.4c0.1-0.6-0.1-1.2-0.5-1.6L22,43.8   c-1.1-1.1-0.5-2.9,1-3.1l4.4-0.6c0.6-0.1,1.1-0.5,1.4-1l2-4C31.4,33.7,33.3,33.7,34,35.1z"></path>
</g>
</svg>