<svg xmlns="http://www.w3.org/2000/svg" xmlns:xlink="http://www.w3.org/1999/xlink" x="0px" y="0px" viewBox="0 0 128 128" style="enable-background:new 0 0 128 128;" xml:space="preserve">
<g id="_x31_3">
	<path style="fill:#232323;" d="M128,120.575c-5.204,0-7.437-5.221-9.408-9.827c-1.431-3.346-2.91-6.803-4.824-6.803   c-1.912,0-3.391,3.458-4.822,6.802c-1.97,4.608-4.205,9.829-9.408,9.829c-5.202,0-7.433-5.221-9.403-9.829   c-1.431-3.344-2.909-6.802-4.819-6.802c-1.91,0-3.388,3.458-4.819,6.802c-1.97,4.608-4.203,9.829-9.407,9.829   c-5.202,0-7.433-5.221-9.403-9.829c-1.431-3.344-2.909-6.802-4.817-6.802s-3.386,3.458-4.815,6.802   c-1.968,4.608-4.202,9.829-9.402,9.829c-5.201,0-7.433-5.221-9.403-9.829c-1.429-3.344-2.907-6.802-4.815-6.802   s-3.385,3.458-4.814,6.8c-1.969,4.608-4.202,9.831-9.403,9.831s-7.433-5.221-9.403-9.829c-1.429-3.344-2.907-6.802-4.815-6.802   v-4.989c5.201,0,7.433,5.221,9.403,9.829c1.429,3.344,2.907,6.802,4.815,6.802c1.907,0,3.385-3.458,4.815-6.802   c1.969-4.608,4.202-9.829,9.402-9.829c5.201,0,7.433,5.221,9.403,9.829c1.429,3.344,2.907,6.802,4.815,6.802   s3.386-3.458,4.815-6.802c1.968-4.608,4.202-9.829,9.402-9.829c5.202,0,7.433,5.221,9.403,9.829   c1.431,3.344,2.909,6.802,4.817,6.802c1.91,0,3.389-3.458,4.82-6.802c1.97-4.608,4.203-9.829,9.405-9.829   c5.202,0,7.435,5.223,9.405,9.831c1.431,3.342,2.909,6.8,4.817,6.8c1.912,0,3.391-3.458,4.822-6.802   c1.97-4.608,4.205-9.829,9.408-9.829c5.205,0,7.438,5.221,9.41,9.829c1.431,3.344,2.91,6.802,4.822,6.802V120.575z M127.992,96.299   v4.989c-5.189,0-7.434-5.205-9.396-9.812c-1.43-3.359-2.91-6.819-4.823-6.819c-1.912,0-3.393,3.459-4.823,6.802   c-1.979,4.623-4.208,9.829-9.413,9.829c-5.205,0-7.434-5.205-9.396-9.829c-1.43-3.343-2.91-6.802-4.823-6.802   s-3.393,3.459-4.823,6.802c-1.962,4.623-4.208,9.829-9.396,9.829c-5.205,0-7.434-5.205-9.413-9.829   c-1.43-3.343-2.91-6.802-4.823-6.802c-1.896,0-3.376,3.459-4.806,6.802c-1.962,4.623-4.208,9.829-9.396,9.829   c-5.205,0-7.434-5.205-9.413-9.829c-1.43-3.343-2.91-6.802-4.806-6.802c-1.912,0-3.393,3.459-4.823,6.802   c-1.963,4.607-4.191,9.829-9.396,9.829s-7.434-5.205-9.413-9.829c-1.43-3.343-2.894-6.802-4.806-6.802v-4.989   c5.205,0,7.434,5.222,9.396,9.829c1.43,3.359,2.91,6.802,4.823,6.802s3.376-3.443,4.806-6.802c1.513-3.542,3.193-7.434,6.236-9.047   V22.708c0-3.842-3.127-6.968-6.968-6.968s-6.952,3.127-6.952,6.968H3.029c0-8.432,6.852-15.284,15.267-15.284   c8.432,0,15.284,6.852,15.284,15.284v13.255h49.526V22.708c0-3.842-3.127-6.968-6.968-6.968s-6.968,3.127-6.968,6.968h-8.315   c0-8.432,6.868-15.284,15.284-15.284c8.432,0,15.284,6.852,15.284,15.284v60.07h-0.249c1.48,1.896,2.544,4.391,3.542,6.735   c1.43,3.343,2.91,6.785,4.823,6.785c1.913,0,3.393-3.443,4.823-6.802c1.962-4.607,4.207-9.829,9.413-9.829   c5.205,0,7.434,5.222,9.413,9.829C124.616,92.856,126.096,96.299,127.992,96.299z M83.106,70.621H33.58V81.98   c1.879,1.946,3.11,4.839,4.257,7.517c1.43,3.359,2.91,6.802,4.823,6.802c1.896,0,3.376-3.443,4.806-6.802   c1.962-4.607,4.208-9.829,9.396-9.829c5.205,0,7.434,5.222,9.413,9.829c1.43,3.359,2.91,6.802,4.823,6.802   c1.896,0,3.376-3.443,4.806-6.802c1.663-3.892,3.526-8.215,7.201-9.463V70.621z M83.106,55.786H33.58v9.845h49.526V55.786z    M83.106,40.952H33.58v9.845h49.526V40.952z"></path>
</g>
<g id="Layer_1">
</g>
</svg>