<svg xmlns="http://www.w3.org/2000/svg" viewBox="0 0 64 64" width="512" height="512"><g id="car-wifi-garage-parking-home"><path d="M61.41,15.09l-29-13a.979.979,0,0,0-.82,0l-29,13A1,1,0,0,0,2,16V61a1,1,0,0,0,1,1H7a1,1,0,0,0,1-1V32H56V61a1,1,0,0,0,1,1h4a1,1,0,0,0,1-1V16A1,1,0,0,0,61.41,15.09ZM6,60H4V20H6ZM56,30H8V28H56Zm0-4H8V24H56Zm0-4H8V20H56Zm4,38H58V20h2Zm0-42H4V16.65L32,4.1,60,16.65Z"></path><path d="M27.757,10.757a6,6,0,0,1,8.486,0,1,1,0,1,0,1.414-1.414,8,8,0,0,0-11.314,0,1,1,0,1,0,1.414,1.414Z"></path><path d="M32,10a5.006,5.006,0,0,0-3.532,1.458,1,1,0,1,0,1.4,1.424,3.082,3.082,0,0,1,4.256,0,1,1,0,0,0,1.4-1.424A5.006,5.006,0,0,0,32,10Z"></path><circle cx="32" cy="15" r="2"></circle><path d="M40,49H24a1,1,0,0,0-.97,1.243l.432,1.727A3.993,3.993,0,0,0,27.342,55h9.316a3.993,3.993,0,0,0,3.88-3.03l.432-1.727A1,1,0,0,0,40,49Zm-1.4,2.485A2,2,0,0,1,36.658,53H27.342a2,2,0,0,1-1.94-1.515L25.281,51H38.719Z"></path><path d="M53,41.5A2.5,2.5,0,0,0,50.5,39H49.07a2.993,2.993,0,0,0-2.5,1.34l-.15.22-.31-1.26A7,7,0,0,0,39.32,34H24.68a7,7,0,0,0-6.79,5.3l-.31,1.26-.15-.22A2.993,2.993,0,0,0,14.93,39H13.5a2.5,2.5,0,0,0,0,5h.53A4.924,4.924,0,0,0,13,47v8a3.01,3.01,0,0,0,2,2.82V59a3.009,3.009,0,0,0,3,3h4a3.009,3.009,0,0,0,3-3V58H39v1a3.009,3.009,0,0,0,3,3h4a3.009,3.009,0,0,0,3-3V57.82A3.01,3.01,0,0,0,51,55V47a4.924,4.924,0,0,0-1.03-3h.53A2.5,2.5,0,0,0,53,41.5ZM19.83,39.79A5,5,0,0,1,24.68,36H39.32a5,5,0,0,1,4.85,3.79l.72,2.88A4.976,4.976,0,0,1,41.51,44H22.49a4.976,4.976,0,0,1-3.38-1.33ZM13.5,42a.5.5,0,0,1,0-1h1.43a1,1,0,0,1,.83.45l.37.55ZM15,49.39l4,1.33V51a1,1,0,0,1-1,1H15ZM23,59a1,1,0,0,1-1,1H18a1,1,0,0,1-1-1V58h6Zm24,0a1,1,0,0,1-1,1H42a1,1,0,0,1-1-1V58h6Zm2-7H46a1,1,0,0,1-1-1v-.28l4-1.33Zm0-4.72-5.32,1.77A1.014,1.014,0,0,0,43,50v1a3.009,3.009,0,0,0,3,3h3v1a1,1,0,0,1-1,1H16a1,1,0,0,1-1-1V54h3a3.009,3.009,0,0,0,3-3V50a1.014,1.014,0,0,0-.68-.95L15,47.28V47a2.985,2.985,0,0,1,2.63-2.96A6.971,6.971,0,0,0,22.49,46H41.51a6.971,6.971,0,0,0,4.86-1.96A2.985,2.985,0,0,1,49,47ZM47.87,42l.37-.55a1,1,0,0,1,.83-.45H50.5a.5.5,0,0,1,0,1Z"></path></g></svg>