<svg xmlns="http://www.w3.org/2000/svg" id="Capa_1" height="512" viewBox="0 0 512.002 512.002" width="512"><g id="XMLID_1322_"><g id="XMLID_881_"><path id="XMLID_1146_" d="m504.11.343c-5.337-1.429-10.818 1.736-12.248 7.071l-60.601 226.165-28.68-7.685 57.155-213.304c1.43-5.335-1.736-10.818-7.071-12.248-5.335-1.429-10.819 1.736-12.248 7.071l-57.74 215.489c-12.898 1.473-24.226 10.629-27.784 23.909l-10.31 38.478c-2.104 7.853-7.524 14.355-14.87 17.839-7.345 3.484-15.81 3.567-23.222.229l-174.599-78.643c-20.936-9.43-44.866-9.249-65.657.499-20.79 9.747-36.237 28.025-42.379 50.149l-19.701 70.96c-8.36 30.113-2.308 61.653 16.605 86.532s47.685 39.148 78.937 39.148h2.737c18.661 24.302 47.997 40 80.935 40s62.274-15.698 80.935-40h76.113c40.819 0 76.705-27.537 87.27-66.964l34.681-129.43c2.25-8.397 1.096-17.168-3.251-24.697-2.328-4.032-5.427-7.441-9.088-10.091l61.154-228.23c1.427-5.334-1.739-10.818-7.073-12.247zm-114.532 242.773 44.597 11.95c3.237.868 5.943 2.943 7.619 5.846 1.676 2.902 2.121 6.283 1.253 9.521l-7.707 28.762-68.836-18.445 7.707-28.762c1.791-6.683 8.685-10.664 15.367-8.872zm18.789 156.746c-8.226 30.7-36.168 52.141-67.951 52.141h-64.101c5.814-12.815 9.053-27.036 9.053-42 0-37.543-20.54-71.955-53.603-89.807-4.858-2.624-10.926-.812-13.55 4.048s-.812 10.926 4.048 13.55c26.588 14.356 43.105 42.024 43.105 72.208 0 45.215-36.785 82-82 82s-82-36.785-82-82c0-30.097 16.446-57.727 42.92-72.109 4.853-2.636 6.65-8.708 4.014-13.561s-8.708-6.65-13.561-4.014c-32.922 17.884-53.374 52.249-53.374 89.683 0 14.746 3.15 28.768 8.805 41.436-21.208-2.513-40.337-13.384-53.491-30.688-15.098-19.861-19.93-45.039-13.255-69.078l19.701-70.959c4.58-16.496 16.097-30.125 31.598-37.392s33.344-7.402 48.953-.372l174.599 78.643c12.77 5.752 27.353 5.608 40.007-.394 9.606-4.556 17.292-12.112 22.028-21.403l69.853 18.717z"></path><path id="XMLID_1151_" d="m183.365 308.002c-2.63 0-5.21 1.07-7.07 2.93s-2.93 4.44-2.93 7.07 1.07 5.21 2.93 7.07 4.44 2.93 7.07 2.93c2.64 0 5.21-1.07 7.07-2.93s2.93-4.44 2.93-7.07-1.07-5.21-2.93-7.07-4.43-2.93-7.07-2.93z"></path></g></g></svg>