<svg xmlns="http://www.w3.org/2000/svg" height="512" viewBox="0 0 61 60" width="512"><g id="Page-1" fill="none" fill-rule="evenodd"><g id="026---Ping-Pong" fill="rgb(0,0,0)" fill-rule="nonzero" transform="translate(-1)"><path id="Shape" d="m53.587 7.473c-5.346-5.337-12.148-10.187-22.087-5.694-1.5.679-2.965 1.433-4.375 2.23-3.2546428-1.69227-7.2113011-1.23532758-9.994545 1.15423956-2.7832439 2.38956715-3.8336984 6.23150504-2.653455 9.70476044-1.8306638 2.5398097-2.8446258 5.5768127-2.907 8.707.1114873 3.2791722.6741076 6.5273623 1.672 9.653 1.273 3.8.838 5.759-.56 8.384l-10.662 9.888c-.63556512.5883402-1.00394657 1.4102636-1.02017438 2.2761873s.32109933 1.7010724.93417438 2.3128127l2.978 2.975c.59555125.6008263 1.40702734.9379509 2.253.936h.062c.86494981-.0144411 1.68629399-.3822935 2.273-1.018l9.93-10.682c2.61-1.372 4.575-1.793 8.373-.534 3.1290728.9992719 6.3810864 1.5619133 9.664 1.672h.042c9.4 0 17.409-10.278 21.772-19.908 4.496-9.937-.355-16.73-5.694-22.057zm-30.587-2.473c3.8659932 0 7 3.13400675 7 7 0 3.8659932-3.1340068 7-7 7s-7-3.1340068-7-7c.0044086-3.86416566 3.1358343-6.99559136 7-7zm-7.861 27.593c-.672865-2.0876414-1.1312329-4.2384186-1.368-6.419l7.488 7.482-5.4 5.007c.272075-2.0517023.024502-4.1388801-.72-6.07zm-7.1 25.028c-.2195839.2372546-.52676018.3742191-.85.379-.32021356-.0067237-.62686955-.1305245-.862-.348l-2.979-2.975c-.22823133-.2275928-.35390695-.5383349-.3480579-.8605985.00584904-.3222636.14271804-.6282406.3790579-.8474015l19.295-17.9 3.28 3.277-7.9 8.494c-.016.018-.033.032-.047.051zm14.322-12.472 5.008-5.388 7.483 7.477c-2.1797907-.2370752-4.32984-.6950956-6.417-1.367-1.9336811-.7397689-4.0207829-.987857-6.074-.722zm35.1-16.441c-3.861 8.526-11.283 18.444-19.59 18.719l-24.284-24.265c.1108349-2.190092.7718594-4.3169264 1.922-6.184 1.9308513 2.9097798 5.3717828 4.4384934 8.8253408 3.9208622 3.453558-.5176311 6.2950958-2.9879828 7.288009-6.3359865.9929132-3.3480036-.042387-6.96810418-2.6553498-9.2848757 1.093-.592 2.208-1.162 3.355-1.68 7.116-3.215 12.869-1.681 19.851 5.29s8.505 12.704 5.286 19.82z"></path></g></g></svg>