<svg xmlns="http://www.w3.org/2000/svg" id="Layer_1" data-name="Layer 1" viewBox="0 0 256 256"><defs><style>.cls-1,.cls-2{fill:#2f8ffd;}.cls-2{font-size:23.92px;font-family:MyriadPro-Bold, Myriad Pro;font-weight:700;}</style></defs><title>guarantee_icon</title><path class="cls-1" d="M209.3,112.58l.44,1.43c.27.95.77,2.31,1.2,4.19a89.27,89.27,0,0,1,2.8,16.36l.21,2.75c0,.95.05,1.92.08,2.91s0,2,0,3.05,0,2.11-.09,3.19a87.91,87.91,0,0,1-1.78,14A86.62,86.62,0,0,1,207.37,176a81.38,81.38,0,0,1-8.87,15.81,78.36,78.36,0,0,1-31.67,25.63c-1.67.76-3.4,1.39-5.11,2.08l-2.64.88-1.33.44-.25.08-.16.05L157,221l-.64.18-2.61.7c-.88.23-1.86.42-2.79.63-1.89.45-3.76.7-5.64,1a79.92,79.92,0,0,1-11.5.78c-1.94.05-3.88-.11-5.83-.19-1-.07-1.94-.18-2.91-.27l-1.46-.15-1.46-.21A92.59,92.59,0,0,1,78.55,205a90.13,90.13,0,0,1-29-39.36c-.69-2.06-1.38-3.8-1.95-5.93s-1.09-4.09-1.57-6.13a81.93,81.93,0,0,1-1.48-25.12,87.9,87.9,0,0,1,2.18-12.4A86.5,86.5,0,0,1,71.59,74.13l1.1-1,1.14-1c.76-.65,1.51-1.31,2.28-1.94C77.7,69,79.24,67.7,80.9,66.62A82.38,82.38,0,0,1,91,60.6c1.75-.83,3.47-1.7,5.25-2.4.89-.36,1.76-.75,2.66-1.09l2.68-1,.67-.24.33-.12.17,0,.28-.09,1.28-.38,2.55-.75c1.83-.45,3.73-1,5.53-1.3s3.61-.7,5.42-.9c.9-.11,1.8-.25,2.7-.33l2.68-.22c1.78-.17,3.57-.14,5.32-.22s3.51,0,5.24.15a80.43,80.43,0,0,1,19.57,3.67A83.19,83.19,0,0,1,183,72.4a89.11,89.11,0,0,1,9.82,10.18c.72.81,1.34,1.68,2,2.51s1.26,1.63,1.8,2.46l1.68,2.38,1.48,2.34a88,88,0,0,1,7.51,14.8c.76,1.75,1.18,3.16,1.53,4.09l.5,1.41Zm-.86.28s-.17-.48-.51-1.39-.79-2.3-1.57-4A74.31,74.31,0,0,0,180.5,75.56a83.65,83.65,0,0,0-29.2-12.87,90.12,90.12,0,0,0-17.9-2.14,81.15,81.15,0,0,0-19.05,1.93c-1.62.33-3.11.78-4.71,1.18l-2.54.79-1.28.4-1.07.4-2.39.87c-.79.3-1.57.65-2.36,1-1.59.62-3.11,1.41-4.67,2.15a79.64,79.64,0,0,0-9,5.28c-1.49,1-2.87,2.06-4.32,3.09L79.93,79.3l-1,.85-1,.9a79.6,79.6,0,0,0-23.49,37.1,82.71,82.71,0,0,0-.18,45.93,88.78,88.78,0,0,0,4.15,11.1,75.19,75.19,0,0,0,13.17,19.65,81.18,81.18,0,0,0,8.7,8A76,76,0,0,0,90,209.35a77,77,0,0,0,10.54,4.85,75.6,75.6,0,0,0,22.11,4.52l1.38.09h1.38l2.75,0c1.83-.09,3.64-.1,5.44-.3a84.75,84.75,0,0,0,10.56-1.6c1.71-.41,3.44-.77,5-1.28.82-.24,1.61-.44,2.45-.72l2.55-.87.64-.21.31-.11.16-.05c.08,0-.07,0,.06,0l1.19-.46,2.37-.93c1.54-.69,3.1-1.31,4.58-2.06A87.76,87.76,0,0,0,179.86,200a90.82,90.82,0,0,0,13-12.62,85.17,85.17,0,0,0,9.5-13.85,80.52,80.52,0,0,0,6.13-14,70.71,70.71,0,0,0,3.07-13.24,72.18,72.18,0,0,0-1.48-27.8c-.41-1.83-.91-3.22-1.17-4.17s-.43-1.42-.43-1.42Z"></path><text class="cls-2" transform="translate(44.76 97.12) rotate(-59.26)">5</text><text class="cls-2" transform="matrix(0.59, -0.81, 0.81, 0.59, 51.25, 86.51)"> </text><text class="cls-2" transform="matrix(0.65, -0.76, 0.76, 0.65, 52.82, 83.85)">Y</text><text class="cls-2" transform="translate(61.28 73.96) rotate(-41.9)">E</text><text class="cls-2" transform="matrix(0.83, -0.56, 0.56, 0.83, 69.91, 65.97)">A</text><text class="cls-2" transform="translate(82.09 57.8) rotate(-25.15)">R</text><text class="cls-2" transform="translate(94 52.18) rotate(-17.39)">S</text><text class="cls-2" transform="translate(105.59 48.7) rotate(-12.4)"> </text><text class="cls-2" transform="translate(109.38 47.51) rotate(-6.44)">G</text><text class="cls-2" transform="translate(124.49 45.72) rotate(2.87)">U</text><text class="cls-2" transform="matrix(0.98, 0.2, -0.2, 0.98, 139.04, 46.34)">A</text><text class="cls-2" transform="matrix(0.94, 0.34, -0.34, 0.94, 153.39, 49.26)">R</text><text class="cls-2" transform="matrix(0.88, 0.48, -0.48, 0.88, 165.96, 53.75)">A</text><text class="cls-2" transform="translate(178.8 60.71) rotate(38.21)">N</text><text class="cls-2" transform="translate(190.91 70.26) rotate(46.9)">T</text><text class="cls-2" transform="matrix(0.59, 0.81, -0.81, 0.59, 199.28, 79.08)">E</text><text class="cls-2" transform="translate(206.28 88.58) rotate(61.23)">E</text><path class="cls-1" d="M177.39,185.81l-.86.83c-.58.53-1.37,1.37-2.56,2.36a73.34,73.34,0,0,1-10.66,7.91l-1.89,1.16c-.67.36-1.35.73-2,1.12s-1.43.76-2.17,1.13-1.5.78-2.31,1.11a72,72,0,0,1-10.65,3.89,69.36,69.36,0,0,1-12.84,2.3,64.31,64.31,0,0,1-14.62-.53,61.93,61.93,0,0,1-30-13.53c-1.15-.93-2.23-1.95-3.34-2.95L81.89,189l-.8-.8-.16-.17-.09-.1-.18-.2-.35-.4-1.42-1.62c-.48-.56-1-1.21-1.45-1.81-1-1.22-1.86-2.48-2.75-3.73a64,64,0,0,1-4.64-8.05c-.72-1.39-1.3-2.85-1.92-4.28s-1.16-2.93-1.61-4.44a76.11,76.11,0,0,1-2.22-38A73.58,73.58,0,0,1,81.93,90.34c1.24-1.26,2.2-2.37,3.53-3.56s2.54-2.3,3.83-3.39a70.24,70.24,0,0,1,8.34-5.82,71.74,71.74,0,0,1,9.16-4.46,68.93,68.93,0,0,1,9.72-3,69.7,69.7,0,0,1,39.32,2.65,61.58,61.58,0,0,1,8.82,4,66.13,66.13,0,0,1,8,5.11c1.24,1,2.5,1.9,3.65,2.94.58.51,1.18,1,1.75,1.52l1.66,1.6.41.4.21.2.28.28.73.78,1.45,1.56c1,1.17,2.06,2.37,2.95,3.55s1.81,2.36,2.61,3.6,1.6,2.46,2.33,3.71,1.39,2.52,2.08,3.77,1.23,2.56,1.77,3.85a63.81,63.81,0,0,1,4.34,15.5,65,65,0,0,1,.44,14.66A70.37,70.37,0,0,1,197,152.68a74.88,74.88,0,0,1-3.9,10.66c-.34.8-.75,1.56-1.12,2.31s-.73,1.48-1.14,2.16-.76,1.38-1.12,2.05-.78,1.27-1.16,1.89a72.86,72.86,0,0,1-7.94,10.64c-1,1.17-1.85,2-2.39,2.56l-.83.86Zm-.63-.64.81-.86c.52-.58,1.35-1.39,2.31-2.56a55.7,55.7,0,0,0,7.25-10.82,54.24,54.24,0,0,0,3.54-8.54,55.19,55.19,0,0,0,2.39-10.53,66.4,66.4,0,0,0-1.64-25.22,67.76,67.76,0,0,0-13-26c-.81-1-1.64-1.9-2.48-2.88l-1.48-1.52-.74-.77-.65-.59-1.45-1.37c-.49-.46-1-.88-1.52-1.32-1-.89-2.09-1.69-3.16-2.52A63,63,0,0,0,160,85.18c-1.19-.71-2.45-1.29-3.69-2s-2.53-1.21-3.85-1.7A62.81,62.81,0,0,0,118.08,78,66,66,0,0,0,85.42,93.82,70.85,70.85,0,0,0,79,100.65a66.82,66.82,0,0,0-5.34,7.77,65.55,65.55,0,0,0-4,8.52,63.68,63.68,0,0,0-2.6,9,57.74,57.74,0,0,0-.81,18.47A59.09,59.09,0,0,0,71,161.7c.56,1.35,1.28,2.63,1.93,3.92s1.39,2.53,2.18,3.72a67.65,67.65,0,0,0,5,6.85c.9,1.05,1.78,2.14,2.71,3.07.47.49.89,1,1.39,1.46l1.54,1.5.38.38.19.18.1.1c0,.05-.06-.07,0,0l.75.67,1.5,1.33c1,.83,2,1.71,3.09,2.48a71.13,71.13,0,0,0,13,7.9A75.63,75.63,0,0,0,118.19,200a67.85,67.85,0,0,0,13.13,2,63.62,63.62,0,0,0,12.15-.45,56.06,56.06,0,0,0,10.54-2.4,55.91,55.91,0,0,0,19.34-10.85c1.16-1,2-1.8,2.56-2.32l.86-.82Z"></path><path class="cls-1" d="M168.15,101.47l.13,11.38v.35l-.37,0c-.8-.06-1.61-.14-2.41-.14s-1.62,0-2.42,0-1.6.13-2.4.24-1.58.26-2.36.46a20.24,20.24,0,0,0-2.3.68c-.76.25-1.5.57-2.23.89s-1.44.71-2.12,1.12-1.36.84-2,1.31-1.27,1-1.89,1.48-1.17,1-1.75,1.64-1.07,1.16-1.57,1.79-1,1.26-1.4,1.93-.83,1.35-1.21,2-.71,1.42-1,2.16a21.31,21.31,0,0,0-1.34,4.52l-.77-.91,21.75-.24h1v1l.09,11.18v1.11h-1.12l-21.81.18,1.27-1.59c.19.76.4,1.51.65,2.25s.52,1.47.83,2.18.64,1.41,1,2.09.78,1.34,1.21,2,.9,1.25,1.39,1.85,1,1.15,1.56,1.7,1.13,1,1.72,1.55,1.23,1,1.86,1.39l1,.65,1,.57c.67.37,1.36.72,2.06,1s1.42.59,2.14.83,1.47.44,2.22.62,1.5.29,2.26.39,1.53.15,2.3.17,1.54,0,2.31,0,1.54-.12,2.31-.22l1.83-.24,0,1.87.12,11.21v1.55l-1.56.21a37.9,37.9,0,0,1-16.22-1.56,36.85,36.85,0,0,1-7.5-3.3,38.36,38.36,0,0,1-6.66-4.81,38.78,38.78,0,0,1-5.49-6.1l-1.13-1.69-.54-.81-.52-.92c-.34-.62-.7-1.23-1-1.85l-.86-1.87a37.08,37.08,0,0,1-2.49-7.82,40.18,40.18,0,0,1-.61-4.06c-.06-.68-.08-1.37-.12-2a17.53,17.53,0,0,1,0-2.05,38.32,38.32,0,0,1,1-8.12,40.57,40.57,0,0,1,2.64-7.71l.93-1.81.47-.9.53-.87c.37-.59.67-1.11,1.1-1.77l1.16-1.57.59-.78.67-.79c.45-.52.89-1,1.35-1.55,1-.94,1.88-1.94,2.93-2.78a36.45,36.45,0,0,1,6.61-4.58,34.61,34.61,0,0,1,7.38-3,36.05,36.05,0,0,1,7.82-1.39,34.41,34.41,0,0,1,7.86.33Zm-.4.36a38.61,38.61,0,0,0-7.53.36,34.83,34.83,0,0,0-7.4,1.9,37.5,37.5,0,0,0-6.83,3.32,33.91,33.91,0,0,0-6,4.63,37,37,0,0,0-2.58,2.73l-1.14,1.45-.56.72-.54.81-1.08,1.63-.9,1.57-.46.82-.4.84-.79,1.69a38.77,38.77,0,0,0-2.14,7.11,34.45,34.45,0,0,0-.67,7.37,14.24,14.24,0,0,0,.07,1.85l.15,1.85c.2,1.21.33,2.44.64,3.63a33.18,33.18,0,0,0,2.3,7l.78,1.66.88,1.56.44.78.54.81,1,1.55c.79.94,1.49,2,2.34,2.85l1.24,1.37,1.34,1.27a34.24,34.24,0,0,0,5.9,4.39,36.63,36.63,0,0,0,6.7,3.09,34.26,34.26,0,0,0,14.57,1.72l-1.54,1.75.12-11.21,1.85,1.63c-.86.09-1.71.16-2.58.2s-1.72,0-2.58,0-1.73-.13-2.59-.25-1.7-.29-2.55-.48-1.67-.46-2.49-.74-1.62-.62-2.41-1a25.1,25.1,0,0,1-2.3-1.2l-1.12-.69-1.05-.7c-.69-.5-1.37-1-2-1.58s-1.28-1.15-1.89-1.76-1.17-1.27-1.72-1.93-1-1.38-1.52-2.1-.9-1.46-1.3-2.22-.76-1.55-1.09-2.34-.61-1.6-.87-2.41-.47-1.64-.66-2.47l-.38-1.61,1.64,0,21.81.18-1.11,1.11.09-11.18,1,1L138.72,134h-.94L138,133a23.49,23.49,0,0,1,1.55-4.81,24.79,24.79,0,0,1,1.12-2.25c.41-.72.84-1.44,1.32-2.13s1-1.35,1.51-2,1.12-1.26,1.71-1.84,1.24-1.13,1.86-1.67,1.31-1,2-1.49a24.23,24.23,0,0,1,2.12-1.32c.72-.41,1.48-.76,2.23-1.11s1.54-.63,2.34-.88a22.39,22.39,0,0,1,2.4-.65c.81-.19,1.63-.31,2.45-.42s1.65-.16,2.48-.18,1.65,0,2.48,0,1.64.13,2.46.21l-.37.33Z"></path><path class="cls-1" d="M125,176.09a33.32,33.32,0,0,1-7.86.16,39.36,39.36,0,0,1-7.75-1.52A38.08,38.08,0,0,1,95.66,167c-.94-.93-2-1.79-2.83-2.8-.44-.5-.9-1-1.33-1.49l-1.22-1.57c-.21-.28-.4-.5-.62-.82l-.54-.82c-.36-.55-.73-1.08-1.07-1.64-.63-1.18-1.36-2.34-1.87-3.57a37.44,37.44,0,0,1-2.58-7.58,37.71,37.71,0,0,1-.15-16,18.74,18.74,0,0,1,.45-2c.19-.64.33-1.3.54-1.94a39.12,39.12,0,0,1,1.43-3.78,38.31,38.31,0,0,1,4-7.06,41.19,41.19,0,0,1,5.32-6,38.08,38.08,0,0,1,6.52-4.83,39.12,39.12,0,0,1,7.39-3.37A38,38,0,0,1,125.25,100l1.44.17,0,1.49.13,11.18,0,2-2-.18a34.9,34.9,0,0,0-5.31-.06,24.51,24.51,0,0,0-5.14.93,21.61,21.61,0,0,0-4.77,2,24.84,24.84,0,0,0-4.21,3,31.35,31.35,0,0,0-3.55,3.83l-.43.56-.36.51c-.25.33-.47.7-.71,1.07a24.7,24.7,0,0,0-1.23,2.26,22.47,22.47,0,0,0-1.69,4.87,26.82,26.82,0,0,0-.56,5.16c0,.44,0,.88,0,1.32l.09,1.35.14,1.27.21,1.3a24.82,24.82,0,0,0,1.53,5,24.12,24.12,0,0,0,6.17,8.45l.5.45.51.43c.37.31.73.59,1.07.84s.69.51,1.07.76.74.49,1.13.71a24.51,24.51,0,0,0,4.87,2.19,27.89,27.89,0,0,0,10.75,1.12l.88-.07,0,.81-.25,5.6c-.08,1.87-.19,3.74-.3,5.61v.17Zm-.23-.38c-.1-1.81-.21-3.62-.28-5.43l-.25-5.6.84.74a27.83,27.83,0,0,1-11.59-.32A25.67,25.67,0,0,1,108,163c-.45-.22-.88-.46-1.3-.72s-.85-.51-1.28-.79-.83-.56-1.2-.84l-.59-.44-.58-.46a27.42,27.42,0,0,1-7.42-9.3,26.19,26.19,0,0,1-1.95-5.71l-.29-1.48-.22-1.52L93,140.3c0-.5-.06-1-.06-1.5a27.21,27.21,0,0,1,.51-6,26.77,26.77,0,0,1,1.89-5.8,28.75,28.75,0,0,1,1.45-2.68c.27-.43.54-.86.85-1.3l.45-.63.43-.56a30.67,30.67,0,0,1,4.13-4.39,29.29,29.29,0,0,1,5-3.46,25.18,25.18,0,0,1,5.65-2.23,28.83,28.83,0,0,1,6-.9,37.89,37.89,0,0,1,5.94.24l-2,1.8.14-11.18,1.45,1.66A34.37,34.37,0,0,0,110,104.66a36.27,36.27,0,0,0-6.9,3A35.53,35.53,0,0,0,97,112a35,35,0,0,0-2.67,2.64,36.87,36.87,0,0,0-2.45,3,35.3,35.3,0,0,0-3.83,6.48,37,37,0,0,0-1.42,3.52c-.21.6-.36,1.21-.54,1.82a16.53,16.53,0,0,0-.47,1.84,37.43,37.43,0,0,0-.89,7.54,39.38,39.38,0,0,0,.7,7.58,35.21,35.21,0,0,0,2.27,7.29c.46,1.2,1.1,2.28,1.66,3.42.33.55.69,1.11,1,1.66l.51.83.55.76,1.14,1.55c.4.5.83,1,1.24,1.46.81,1,1.77,1.86,2.67,2.78a39.17,39.17,0,0,0,6.17,4.61,39.75,39.75,0,0,0,7,3.23,39.19,39.19,0,0,0,7.56,1.7A33.61,33.61,0,0,0,124.81,175.71Z"></path></svg>