<svg xmlns="http://www.w3.org/2000/svg" id="Layer_1" data-name="Layer 1" viewBox="0 0 256 256"><defs><style>.cls-1{fill:#fff;}.cls-2{fill:#2f8ffd;}</style></defs><title>saveMoney_icon</title><path class="cls-1" d="M153.63,83.14c8,14.06,39.12,81.52,30.88,129.52a4.48,4.48,0,0,0,1.68,4.26,34.11,34.11,0,0,0,13.29,5.76A27.81,27.81,0,0,0,213,222a4.38,4.38,0,0,0,3.09-4.31c-.08-3.24-11-97.71-44-133.78,1,0,1.54,0,1.71,0C169,84.27,159,77,159,77Z"></path><path class="cls-2" d="M154.2,83.15a29.35,29.35,0,0,1,6.22,7.7c1.66,2.9,3,6,4.38,9q4.06,9.11,7.27,18.56c2.15,6.29,4.06,12.65,5.85,19s3.44,12.83,4.81,19.32,2.45,13.06,3.18,19.67a165.19,165.19,0,0,1,1.05,19.9l0,2.49-.12,2.5c0,.83-.06,1.66-.13,2.49l-.22,2.49c-.11,1.66-.35,3.32-.58,5l-.16,1.24-.08.58c0,.15,0,.25,0,.42a3.06,3.06,0,0,0,.58,1.68,4.82,4.82,0,0,0,1.51,1.28c.66.43,1.35.83,2,1.21a30.52,30.52,0,0,0,4.33,2,29.05,29.05,0,0,0,9.19,1.79,24.58,24.58,0,0,0,9-1.44,2.11,2.11,0,0,0,1.36-1.82,2.43,2.43,0,0,0,0-.27v-.07h0v-.07l0-.31-.16-1.11-.39-2.41c-1.1-6.44-2.37-12.88-3.65-19.3-2.55-12.85-5.5-25.61-9-38.18-1.76-6.28-3.55-12.55-5.53-18.74s-4.06-12.33-6.38-18.37a179,179,0,0,0-7.85-17.67,96.11,96.11,0,0,0-10.32-16.13l-3.42-4.21,5.18.27,1.55.08.31,4.48c-.48,0-1,0-1.44-.1s-.84-.17-1.25-.27l-1.13-.37c-.37-.14-.71-.29-1.06-.44s-.68-.31-1-.47-.67-.32-1-.5c-.65-.34-1.27-.71-1.87-1.09-1.21-.76-2.38-1.55-3.52-2.38s-2.23-1.68-3.32-2.6l1.5-.16C158,79.57,156.11,81.37,154.2,83.15Zm-.87-.27q2.41-3.33,4.87-6.61l.55-.72.95.56c1.15.68,2.34,1.35,3.53,2s2.4,1.22,3.61,1.76c.61.27,1.21.52,1.82.75.3.13.6.23.9.34s.61.21.9.29l.89.24.85.17.78.07c.23,0,.42,0,.63,0l.31,4.48-1.88.14,1.76-3.94a87.76,87.76,0,0,1,12.56,16,146.86,146.86,0,0,1,9.39,17.91,224.7,224.7,0,0,1,12.81,38c3.17,12.95,5.65,26,7.56,39.16.48,3.29.86,6.59,1.24,9.89s.66,6.61.92,9.94l.17,2.5.07,1.36v.38a1.09,1.09,0,0,1,0,.17v.24a6.27,6.27,0,0,1-.11,1,6.73,6.73,0,0,1-4.84,5.22,29.94,29.94,0,0,1-10.52.78,34.72,34.72,0,0,1-10-2.63,41,41,0,0,1-4.58-2.32c-.74-.44-1.46-.9-2.16-1.4l-.54-.38-.25-.19-.17-.14-.15-.12a6.06,6.06,0,0,1-1-1.19,5.7,5.7,0,0,1-.92-3,4.4,4.4,0,0,1,0-.81l.09-.66.19-1.2c.25-1.61.51-3.21.65-4.84l.24-2.43c.06-.82.09-1.63.13-2.45l.13-2.44,0-2.45a132,132,0,0,0-1.48-19.55c-.94-6.48-2.25-12.9-3.78-19.27s-3.33-12.67-5.37-18.9-4.38-12.35-6.82-18.42-5-12.12-7.56-18.11l-1.94-4.5c-.67-1.49-1.34-3-1.93-4.51a43.27,43.27,0,0,1-2.6-9.69l0-.33Z"></path><path class="cls-1" d="M223.91,91.56c-.65-1-14.27-21.23-33.38-28.21,7.73.66,21.45-2.67,24.3-3.39a3.84,3.84,0,0,0,2.89-3.19,3.89,3.89,0,0,0-1.9-3.92,82.93,82.93,0,0,0-23.37-8.67c-7.5-1.44-14.29-1.32-20.19.37a53.28,53.28,0,0,0-15.87,7.25c-2.35-10.15-8.5-22.15-24.47-22.29-27.72-.24-12.16,7.05-12.16,7.05s15,7.84,22.94,17.91a58.76,58.76,0,0,0-11.91-3.13c-20-3.13-41.31,13-42.23,13.66a3.87,3.87,0,0,0,1.89,6.91c3.49.44,21.22,2.47,27.59-.66.06,0,.12,0,.19-.07a3.88,3.88,0,0,0,2.08,1.5l.16,0,9.1,1.29A71.41,71.41,0,0,0,122.75,79c-17.69,14.46-20.16,44.47-20.26,45.76a3.88,3.88,0,0,0,2.14,3.75,3.92,3.92,0,0,0,4.26-.55c1.83-1.6,18-15.76,20.2-23.6.06-.25.13-.48.2-.73l.18,0a3.91,3.91,0,0,0,3.23-.83l8.71-7.35a3.75,3.75,0,0,0,1.16-1.73,2,2,0,0,0,.34-.14,41.61,41.61,0,0,0,12.74-10.1l4.77-5.39s8.75,6.39,13,6.06l.39,0a3.89,3.89,0,0,0,1.88.93l11.15,2.15a3.84,3.84,0,0,0,3.38-1c.17.18.34.35.52.52,5.59,5.61,25.27,9.92,29,10.7l.29.07a3.81,3.81,0,0,0,3.88-1.68A3.87,3.87,0,0,0,223.91,91.56Z"></path><path class="cls-2" d="M222.31,92.61c-.51-.75-1-1.44-1.54-2.18s-1.08-1.45-1.65-2.15q-1.67-2.15-3.48-4.18c-.59-.69-1.2-1.35-1.82-2s-1.24-1.33-1.88-2-1.27-1.29-1.94-1.9l-2-1.86-2-1.78c-.67-.61-1.41-1.13-2.1-1.7s-1.42-1.12-2.16-1.63-1.47-1.05-2.21-1.54l-2.28-1.43c-.75-.51-1.57-.88-2.35-1.32a24.41,24.41,0,0,0-2.4-1.2L190,64.67,184,61.94h6.68a40.81,40.81,0,0,0,5.76-.56c1.93-.31,3.86-.69,5.8-1.11s3.85-.91,5.78-1.39,3.84-1,5.73-1.56l.35-.11h0l-.07,0h0l.09,0,.16-.06c-.07,0,0,0,.07-.08a1.2,1.2,0,0,0,.24-.27,1,1,0,0,0,.1-.32.19.19,0,0,0,0-.08v0c0,.21,0,0,0,.09v-.07l0-.19s0,0,0,0,0-.06,0-.08a.79.79,0,0,0-.38-.48l-.86-.44-1.29-.63c-1.75-.82-3.52-1.63-5.31-2.35s-3.62-1.39-5.46-2-3.68-1.13-5.54-1.63c-.93-.22-1.85-.47-2.79-.64l-1.36-.28-1.47-.25a51.52,51.52,0,0,0-5.57-.58,37.88,37.88,0,0,0-5.54,0,30.87,30.87,0,0,0-5.37.89c-1.81.49-3.65,1-5.43,1.68a47,47,0,0,0-10.12,4.95l-4,2.58-1-4.47a41.73,41.73,0,0,0-1.32-5,30.28,30.28,0,0,0-2-4.68,25.75,25.75,0,0,0-2.72-4.17,20.24,20.24,0,0,0-3.58-3.34A19.5,19.5,0,0,0,139.37,33c-.78-.28-1.6-.5-2.4-.76s-1.67-.34-2.51-.48l-2.57-.24-2.77-.08c-1.8,0-3.63,0-5.43.05a28.22,28.22,0,0,0-5.18.64,6.7,6.7,0,0,0-1.07.36,2.4,2.4,0,0,0-.54.32,1.13,1.13,0,0,0,0-.12s0-.07,0,0a2,2,0,0,0,.46.63,10,10,0,0,0,1.93,1.46c.69.42,1.61.87,2.41,1.35,1.62,1,3.21,2,4.79,3s3.12,2.08,4.64,3.18,3,2.25,4.45,3.47,2.86,2.46,4.22,3.78c.7.64,1.33,1.36,2,2s1.25,1.45,1.87,2.18l3.17,3.68-4.6-1.75a52.47,52.47,0,0,0-11.2-2.86l-.36-.06h-.11c.15,0,0,0,.06,0h-.23l-.74-.07-1.48-.12c-.48,0-1-.1-1.46-.1l-1.4,0a38.74,38.74,0,0,0-5.62.51l-2.81.59c-.94.17-1.84.5-2.77.75l-1.38.39-1.35.49c-.9.32-1.82.61-2.69,1s-1.78.74-2.65,1.14l-2.6,1.25-2.55,1.35c-.85.46-1.67,1-2.51,1.44-1.64,1-3.27,2-4.84,3.12-.79.55-1.56,1.11-2.32,1.68L90.12,67v0L90.2,67l0,0-.06.07s-.13.1-.11.1,0,0,0,0a2.39,2.39,0,0,0-.13.21,1.28,1.28,0,0,0-.06.94,1,1,0,0,0,.52.59,4.5,4.5,0,0,0,1.67.25l2.89.21c3.86.26,7.74.41,11.52.29,1.9-.06,3.77-.18,5.54-.41a14.93,14.93,0,0,0,4.58-1.16l.6-.23.06,0,1.79-1,2.13,2.34c.1.11.17.12.2.11h0l.26.1.16,0-.76-.19,9.13,1.16L140,71.64l-8.44,5.49c-1.65,1.07-3.26,2.24-4.82,3.48l-1.17,1-.29.24-.07.06,0,0,.15-.13,0,0-.14.13-.58.54-2.29,2.16a48.32,48.32,0,0,0-3.47,4.33,55.2,55.2,0,0,0-3.11,4.92c-.88,1.76-1.82,3.48-2.55,5.33s-1.46,3.7-2.14,5.57l-.89,2.87c-.29,1-.53,1.93-.8,2.9-.5,2-.93,3.91-1.32,5.89s-.72,4-1,5.93c0,.49-.13,1-.17,1.48l-.08.72,0,.34V125c0,.17,0-.21,0-.16v.22c0,.12,0,0,0,0V125s0,0,0,0a.64.64,0,0,1,0-.07.5.5,0,0,0-.08-.12s-.13-.07,0-.06l-.12,0h-.11l-.12,0-.09.06,0,0,.13-.11.3-.26c1.52-1.34,3-2.75,4.53-4.15,3-2.8,5.91-5.68,8.53-8.68a54.55,54.55,0,0,0,3.61-4.56,22.3,22.3,0,0,0,1.35-2.25l.29-.54.17-.47.19-.46h0s0,.2,0,.09v0l0-.09.06-.19.1-.38,1-3.72,3.64.73.13,0h0l-.11,0h.08l.14,0h-.12l0,0-.05,0a0,0,0,0,0,0,0h0l.1-.08.41-.34,3.33-2.7,3.32-2.71,1.66-1.35h0s0,0,0,0l2.53-2.47-.21.06-.09,0-.05,0h0l.16-.08.28-.14.56-.28c.39-.2.79-.42,1.18-.64.79-.44,1.57-.92,2.34-1.42A41.53,41.53,0,0,0,150,84.39c.68-.6,1.34-1.23,2-1.87l2-2.13,4.12-4.34,2-2.09,2.14,1.64.68.52.71.52c.48.35,1,.69,1.46,1,1,.67,2,1.31,3,1.9.5.3,1,.57,1.5.83a14,14,0,0,0,1.48.69,5.79,5.79,0,0,0,.71.28,5.93,5.93,0,0,0,.66.2,3.19,3.19,0,0,0,.56.11,1.6,1.6,0,0,1,.23,0h0l-.19,0h.39l1.43-.09.57.68a1.76,1.76,0,0,0,.71.48l2.07.51,4.15,1.06,4.14,1.07.89.24a1.86,1.86,0,0,0,.63,0,2.36,2.36,0,0,0,1.26-.45l0,0,1.06-.73.85.81.42.4.43.34a10.76,10.76,0,0,0,1,.77l.94.59c.3.2.71.38,1.06.57.7.39,1.47.72,2.22,1.05s1.55.63,2.31.94l2.37.86,2.4.79q2.43.75,4.89,1.41t4.93,1.25q2.48.61,5,1.14l.62.12.32.07.21,0,.08,0h.07l-.15,0,.29,0a.33.33,0,0,0,.1,0,1.06,1.06,0,0,0,.31,0,2,2,0,0,0,1.13-.65l.12-.14.05-.07,0,0v0h0l0,.08v0l.14-.23,0-.1a2,2,0,0,0,.15-.64A2,2,0,0,0,222.31,92.61Zm3.19-2.11a5.84,5.84,0,0,1,.93,3.66A5.68,5.68,0,0,1,226,96a3.57,3.57,0,0,1-.24.48c-.09.17-.12.21-.18.31l-.08.13,0,0-.07.09-.13.19-.3.35a5.84,5.84,0,0,1-3.31,1.79,5.27,5.27,0,0,1-1,.06c-.15,0-.37,0-.55,0l-.35,0-1.36-.3c-3.39-.77-6.76-1.6-10.09-2.61-1.67-.49-3.33-1-5-1.6S200,93.66,198.38,93c-.8-.37-1.61-.7-2.41-1.11s-1.59-.79-2.37-1.27c-.39-.25-.77-.43-1.18-.72L191.23,89a11,11,0,0,1-1-.87l-.24-.22-.12-.1-.13-.12-.06-.07-.47-.51,1.91.08,0,0a5.27,5.27,0,0,1-2.52,1.42,5.71,5.71,0,0,1-1.5.14c-.54,0-.85-.09-1.21-.12l-4.24-.54-4.24-.57-2.12-.28a6.44,6.44,0,0,1-3.07-1.4l2,.59-.23,0-.11,0h0l-.23,0h-.09l-.7,0a7.35,7.35,0,0,1-1.29-.1,9.39,9.39,0,0,1-1.15-.22,10.18,10.18,0,0,1-1.06-.3c-.7-.2-1.33-.45-2-.7s-1.25-.53-1.85-.82c-1.2-.57-2.37-1.17-3.5-1.83-.56-.32-1.12-.66-1.68-1s-1.09-.68-1.68-1.08l4.13-.45-3.8,4.63-.9,1.11c-.35.42-.69.84-1.05,1.25-.72.82-1.47,1.61-2.24,2.37a46.85,46.85,0,0,1-4.94,4.18c-.87.65-1.76,1.26-2.68,1.84-.46.3-.93.57-1.42.85l-.75.41-.39.2.14-.07h0l-.06,0-.14.06-.27.12-.55.2,2.53-2.47a7.52,7.52,0,0,1-2.32,3.52l-1.61,1.41L139,102.61l-3.23,2.82-.4.35-.33.27-.44.32a8.2,8.2,0,0,1-2,1,8.3,8.3,0,0,1-2.15.38,7.28,7.28,0,0,1-1.12,0l-.46-.06-.38-.07,4.68-3-.23.89-.36,1-.37,1-.43.86a30,30,0,0,1-1.84,3.19,63.59,63.59,0,0,1-4.11,5.39c-2.85,3.38-5.88,6.45-9,9.46-1.57,1.48-3.15,2.92-4.78,4.36l-.3.26-.17.14-.33.27a7.34,7.34,0,0,1-1.43.88,8.2,8.2,0,0,1-3.16.8,8.81,8.81,0,0,1-1.62-.09,7.78,7.78,0,0,1-.81-.17l-.4-.11-.49-.17a8.07,8.07,0,0,1-4.53-4.45,8,8,0,0,1-.47-1.58,5.63,5.63,0,0,1-.11-.81,3.68,3.68,0,0,1,0-.49v-.61l0-.29v-.11l0-.45.09-.84c0-.56.13-1.1.2-1.65.29-2.19.65-4.35,1.09-6.5s1-4.28,1.54-6.39c.31-1.06.6-2.12.93-3.16l1-3.14c.78-2.06,1.53-4.14,2.49-6.15s2-4,3-6a59.32,59.32,0,0,1,3.75-5.64,53.76,53.76,0,0,1,4.6-5.35l2.35-2.1.59-.53.15-.13.24-.21.08-.06.33-.26,1.31-1c1.76-1.32,3.58-2.58,5.49-3.75l1.44,6.74L120,76.24l-.44-.07-.31-.12-.15-.06.27.09a7.41,7.41,0,0,1-4-2.88l3.92,1.3-.32.11.6-.23A21.13,21.13,0,0,1,112.7,76a49.42,49.42,0,0,1-6.28.21,117.93,117.93,0,0,1-12.12-.9l-3-.41-.74-.11-.36-.06-.23,0-.14,0-.28-.07a7.07,7.07,0,0,1-2.23-1,6.51,6.51,0,0,1-2.79-4.13,6.57,6.57,0,0,1,.86-4.78,7,7,0,0,1,.75-1,5.89,5.89,0,0,1,.5-.48c.1-.1.11-.09.17-.15l.26-.2,1.28-.87c.86-.56,1.72-1.11,2.59-1.63,1.74-1.06,3.51-2,5.31-3,.9-.45,1.8-.92,2.72-1.35l2.76-1.26,2.82-1.15c.94-.37,1.91-.68,2.86-1s1.94-.6,2.9-.91l1.46-.44,1.49-.35c1-.21,2-.51,3-.65l3-.48a52.24,52.24,0,0,1,6.17-.31l1.57,0c.51,0,1,.1,1.48.15l1.47.17.74.08.18,0,.17,0,.1,0,.37.07a64.93,64.93,0,0,1,11.65,3.22l-1.43,1.94c-.58-.69-1.13-1.4-1.74-2.06s-1.2-1.35-1.87-2a48.51,48.51,0,0,0-4.05-3.65c-1.41-1.16-2.88-2.24-4.36-3.31s-3-2.07-4.57-3-3.13-1.91-4.74-2.77c-.81-.45-1.58-.78-2.49-1.28a13,13,0,0,1-2.56-1.8,4.91,4.91,0,0,1-1.18-1.59,3,3,0,0,1-.24-1.38,2.85,2.85,0,0,1,.52-1.39c.13-.17.27-.34.41-.49l.42-.34a7.53,7.53,0,0,1,.82-.5,11.58,11.58,0,0,1,1.54-.6A30.71,30.71,0,0,1,123.42,28c1.9-.19,3.78-.31,5.69-.39l2.78-.09,3,.07c1,.1,2,.24,3,.36s2,.44,3,.72a24.15,24.15,0,0,1,5.6,2.55,25.11,25.11,0,0,1,4.82,3.9A30.45,30.45,0,0,1,154.94,40a35.86,35.86,0,0,1,2.69,5.41,50.42,50.42,0,0,1,1.86,5.65l-4.91-1.89a53,53,0,0,1,11.31-6.13A54.63,54.63,0,0,1,172,41a38,38,0,0,1,6.53-1.19,46.21,46.21,0,0,1,6.54-.17,58.94,58.94,0,0,1,6.45.73l1.5.28,1.6.34c1,.21,2.06.49,3.09.74,2,.57,4.06,1.17,6,1.91s3.91,1.51,5.82,2.37,3.8,1.76,5.63,2.79l1.38.78.7.41.16.1.33.21c.18.12.36.26.53.4a7,7,0,0,1,2.52,4.65,5.12,5.12,0,0,1,0,.67,6.69,6.69,0,0,1,0,.77l0,.19,0,.2,0,.17a4.74,4.74,0,0,1-.16.65,6.67,6.67,0,0,1-1.23,2.38,6.6,6.6,0,0,1-2,1.69,6.23,6.23,0,0,1-1.31.54l-.48.12-.38.08q-3,.61-6.06,1.11c-2,.33-4.07.57-6.11.8s-4.12.35-6.2.39a34.54,34.54,0,0,1-6.31-.37L191,62l2.67,1a25.36,25.36,0,0,1,2.61,1.17c.84.43,1.73.79,2.54,1.29l2.47,1.41c.81.5,1.59,1,2.38,1.57s1.56,1.07,2.31,1.65,1.54,1.11,2.25,1.72l2.18,1.81,2.11,1.89c.71.62,1.36,1.31,2,2s1.33,1.33,2,2,1.3,1.37,1.92,2.08c1.26,1.4,2.47,2.83,3.64,4.31.6.73,1.16,1.48,1.74,2.23s1.13,1.55,1.66,2.31v0Z"></path><polyline class="cls-1" points="53.87 226.49 69.44 202.85 129.53 202.85 145.7 226.49"></polyline><path class="cls-2" d="M53.58,226.3q3.56-6.12,7.19-12.21L68,201.92l.43-.73,1,0,15-.6,15-.49c5-.15,10-.44,15-.68,1.25,0,2.5-.1,3.76-.12s2.5-.07,3.75,0,2.51,0,3.76,0l3.75.13,2,.06.9,1.45q3.78,6.07,7.23,12.39c1.15,2.11,2.25,4.26,3.33,6.4.52,1.09,1.07,2.17,1.57,3.27s1,2.2,1.46,3.34l-.58.39c-.88-.84-1.73-1.7-2.57-2.57s-1.65-1.77-2.48-2.65c-1.61-1.79-3.21-3.58-4.76-5.42q-4.64-5.49-8.93-11.24l2.86,1.52-3.75.12c-1.25.05-2.51,0-3.76.05s-2.5,0-3.75-.05-2.51-.08-3.76-.12c-5-.24-10-.53-15-.68l-15-.49-15-.6,1.43-.77-8.33,11.47q-4.15,5.73-8.38,11.43Z"></path><polygon class="cls-1" points="63.42 197.02 36.7 172.94 31.45 178.76 60.39 204.85 155.23 204.85 155.23 197.02 63.42 197.02"></polygon><path class="cls-2" d="M63.14,197.75,35.86,173.87l1.77-.09-5.14,5.91-.11-2,14.7,12.8,14.63,12.86-1.32-.5c15.81-.23,31.61-.3,47.42-.46,7.9-.09,15.8-.09,23.71-.11,3.95,0,7.9,0,11.85,0s7.9,0,11.86.11l-2.39,2.39L153,197l2.25,2.24Zm.57-1.48,91.52-1.5,2.2,0,0,2.28.14,7.84,0,2.33-2.42.05c-4,.07-7.91.08-11.86.11s-7.9.06-11.85,0c-7.91,0-15.81,0-23.71-.11-15.81-.16-31.61-.22-47.42-.45l-.78,0-.54-.49-14.3-13.23L30.52,179.8l-1-1,.94-1,5.34-5.73.87-.94.91.84Z"></path><path class="cls-2" d="M75.63,155.08c.57-.61,1-1.23,1.69-1.83l.94-.89,1-.82a10.73,10.73,0,0,1,1-.78c.34-.24.68-.5,1-.74l1.08-.68c.35-.24.73-.43,1.09-.65s.74-.41,1.12-.6.76-.39,1.15-.55c.77-.35,1.56-.67,2.36-1s1.6-.56,2.42-.8c.41-.12.82-.23,1.24-.33l.62-.15.3-.07.12,0s0,0,0,0l1.16.16h0l-1-.21c1.39-.29,2.8-.52,4.22-.68a41,41,0,0,1,4.3-.21,42.3,42.3,0,0,1,4.35.26c.73.08,1.45.19,2.18.31s1.45.27,2.18.41h0l-2.79.74c.28-.4.58-.78.88-1.15l.06-.07,0,0,.25-.26.14-.12.26-.25c.18-.17.33-.33.54-.5a14,14,0,0,1,1.58-1.09,12.26,12.26,0,0,1,1.58-.79,12.43,12.43,0,0,1,1.65-.58,12.21,12.21,0,0,1,1.69-.4c.56-.12,1.14-.14,1.71-.21s1.14,0,1.71,0a16.18,16.18,0,0,1,1.69.19,11.71,11.71,0,0,1,1.66.37,11.15,11.15,0,0,1,1.6.54,14.3,14.3,0,0,1,1.53.73c.5.26,1,.6,1.43.9s.89.69,1.3,1.07.85.82,1.13,1.16l1,1.09,1.18,1.33L130.8,149l-4.29,3.89c-1.43,1.3-2.83,2.62-4.24,3.94l.12-1.38a26.68,26.68,0,0,1,2.08,4.09c.58,1.39,1.12,2.78,1.59,4.2l-.87-.62c1.47,0,2.94,0,4.4,0h.92V164l0,3.61.11,3.62c0,1.2.09,2.41.15,3.61l.19,3.62.07,1.32-1.49.1-7.38.46,1.52-.78a24.14,24.14,0,0,1-3.35,4.12,27.27,27.27,0,0,1-4.11,3.32l1.18-2.09c.08,1.34.11,2.67.16,4s.1,2.67.12,4l0,2.67-2.76,0-10.34.21-2.08,0-.7-2-1.35-3.94,3.24,2a34.33,34.33,0,0,1-10.07,0L97,190l-1.31,3.93L95,196H79.48v-3a72.85,72.85,0,0,1,.29-7.95h0l1.31,2.33c-.54-.47-1.11-.88-1.63-1.37s-1-.94-1.55-1.45-1-1-1.44-1.54-.91-1.06-1.32-1.64-.8-1.15-1.18-1.72-.73-1.19-1-1.82a18,18,0,0,1-.85-1.9,19,19,0,0,1-.69-2,19.59,19.59,0,0,1-.48-2,17.78,17.78,0,0,1-.26-2,20.26,20.26,0,0,1-.07-2.06c0-.38,0-.64,0-1s.06-.69.11-1a20.76,20.76,0,0,1,2.72-7.58l0,.08a3.42,3.42,0,0,1,.24-.47l.24-.42c.17-.28.35-.54.54-.81A15.61,15.61,0,0,1,75.63,155.08Zm1.19,1.08a17,17,0,0,0-1.07,1.34q-.24.36-.45.72l-.21.36-.17.35,0,0,0,0a16.64,16.64,0,0,0-2.16,7c0,.3,0,.6,0,.89s0,.66,0,.91a13.39,13.39,0,0,0,.19,1.8,15,15,0,0,0,.4,1.76c.18.57.37,1.14.6,1.69a17.39,17.39,0,0,0,2.83,4.53A13.55,13.55,0,0,0,78,178.84c.42.42.9.78,1.34,1.17s.94.72,1.45,1a14.45,14.45,0,0,0,1.53.88c.51.29,1.06.51,1.59.75l1.12.5.2,1.82h0a72.85,72.85,0,0,1,.29,7.95l-3-3H92.81L90,192l1.31-3.93.79-2.36,2.48.33a31.77,31.77,0,0,0,8.38,0l2.49-.33.75,2.33,1.28,4-2.77-2,10.34.21-2.72,2.72c0-1.33.08-2.67.12-4s.08-2.67.16-4l.09-1.51,1.09-.58a25.55,25.55,0,0,0,3.73-2.41,20.62,20.62,0,0,0,3.21-3.05l.7-.83.82,0,7.38.46-1.42,1.42.19-3.62c.06-1.2.13-2.41.16-3.61l.11-3.62,0-3.61.92.92c-1.46,0-2.93,0-4.4,0h-.64l-.23-.64a40.86,40.86,0,0,0-1.63-4,24.64,24.64,0,0,0-2.11-3.65l-.49-.69.62-.7c1.29-1.43,2.59-2.86,3.86-4.31l3.81-4.36V149l-1.09-1c-.38-.36-.67-.53-1-.8s-.69-.43-1-.65-.72-.37-1.1-.5a9.11,9.11,0,0,0-1.15-.38,8,8,0,0,0-1.18-.25,9.41,9.41,0,0,0-1.19-.13c-.4,0-.8,0-1.2,0l-1.18.13a10.66,10.66,0,0,0-1.15.25,8,8,0,0,0-1.11.37,7.55,7.55,0,0,0-1,.48,8.57,8.57,0,0,0-1,.58c-.32.2-.52.39-.8.56l-.54.46-.28.24-.14.11v0h0l.22-.22h0l0,0-.06.07c-.33.35-.68.69-1,1l-1.5,1.37-1.3-.63h0a21.4,21.4,0,0,0-3.54-1.45c-.61-.2-1.23-.38-1.86-.52s-1.26-.27-1.9-.39a28,28,0,0,0-3.89-.35c-.65,0-1.31,0-2,0s-1.31.1-2,.17l-.58.07-.36-.29h0l1.16.16-.33.07-.18,0-.3,0-.59.08c-.39.06-.78.12-1.17.2a23.52,23.52,0,0,0-2.31.56q-1.14.35-2.25.78c-.37.13-.73.3-1.1.46s-.72.32-1.07.5-.72.34-1.06.55l-1,.6-1,.67a9.39,9.39,0,0,0-1,.71c-.31.24-.63.49-.93.74l-.85.8C77.92,154.89,77.38,155.57,76.82,156.16Z"></path><circle class="cls-1" cx="112.48" cy="163.12" r="3.29"></circle><path class="cls-2" d="M113.46,167.28l-.24,0a3.66,3.66,0,0,1-.86,0,4.28,4.28,0,0,1-2.61-1.21,4.66,4.66,0,0,1-1.06-1.59c0-.17-.1-.3-.15-.52a3.47,3.47,0,0,1-.09-.48,4.67,4.67,0,0,1,0-1.12,4.31,4.31,0,0,1,.88-2.2,4.21,4.21,0,0,1,2.15-1.46,4.59,4.59,0,0,1,1.26-.19,4.65,4.65,0,0,1,1.33.19,4.47,4.47,0,0,1,2.21,1.45,4.37,4.37,0,0,1,.94,2.25,3.88,3.88,0,0,1,0,1.24,4.07,4.07,0,0,1-.33,1,4.43,4.43,0,0,1-2.24,2.21,4.55,4.55,0,0,1-.81.29l-.3.06Zm-.42-1.91.15-.07a1.87,1.87,0,0,0,.39-.24,2.08,2.08,0,0,0,.73-1.28,3.27,3.27,0,0,0,0-.44,2.76,2.76,0,0,0,0-.38s0-.13,0-.19l0-.1v0c0-.07,0,.08,0,.07h0v0c0-.07,0-.15-.08-.22a2.13,2.13,0,0,0-.23-.42,2.17,2.17,0,0,0-.78-.72,1.92,1.92,0,0,0-.54-.19,1.52,1.52,0,0,0-.66,0,1.89,1.89,0,0,0-.56.14,3.16,3.16,0,0,0-.56.33,2.25,2.25,0,0,0-.76,1.11,2.18,2.18,0,0,0-.08.65,2.09,2.09,0,0,0,0,.38,2.65,2.65,0,0,0,.08.29,2.27,2.27,0,0,0,.68,1,2.41,2.41,0,0,0,2.08.44l.23-.07Z"></path><circle class="cls-1" cx="91.39" cy="146.13" r="11.43"></circle><path class="cls-2" d="M104.23,148.52l-.21.78a10.51,10.51,0,0,1-.35,1,10.27,10.27,0,0,1-.61,1.4,12.72,12.72,0,0,1-2.35,3.21,13.78,13.78,0,0,1-4.24,2.83,13.57,13.57,0,0,1-5.89,1c-.55-.05-1-.1-1.65-.21a13.93,13.93,0,0,1-4.7-1.84,13.72,13.72,0,0,1-2.77-2.3,14.69,14.69,0,0,1-2.1-3.08,13.44,13.44,0,0,1-1.16-3.67,14.62,14.62,0,0,1,0-3.91l.17-.93a7.56,7.56,0,0,1,.25-1,13.79,13.79,0,0,1,.71-1.91,14.69,14.69,0,0,1,2.19-3.32,14,14,0,0,1,3-2.52,14.51,14.51,0,0,1,3.57-1.51,12.92,12.92,0,0,1,3.74-.4,13.68,13.68,0,0,1,1.82.17l.11,0h.09l.14,0,.18.05.36.09c.25.07.43.09.74.2a12.38,12.38,0,0,1,3.19,1.47,13.07,13.07,0,0,1,2.43,2,13.5,13.5,0,0,1,3.63,8.64,12.43,12.43,0,0,1,0,1.51,9.19,9.19,0,0,1-.12,1.11c-.09.59-.15.91-.15.91Zm-3.2-.66.06-.69a5.51,5.51,0,0,0,0-.83,5.67,5.67,0,0,0-.1-1.1,8.51,8.51,0,0,0-.92-2.81,9.7,9.7,0,0,0-2.33-2.9A11.16,11.16,0,0,0,96,138.38a10.56,10.56,0,0,0-1.94-.79,6.24,6.24,0,0,0-.67-.15l-.36-.08-.18,0,.1,0h-.12a7.59,7.59,0,0,0-1.17-.1,9.38,9.38,0,0,0-2.4.22,9.7,9.7,0,0,0-2.36.85,11.41,11.41,0,0,0-2.13,1.5,9.25,9.25,0,0,0-2.23,3.29,11,11,0,0,0-.44,1.37,11.28,11.28,0,0,0-.23,2.78,11.8,11.8,0,0,0,.57,2.75,10.45,10.45,0,0,0,1.33,2.49,10.31,10.31,0,0,0,2,2,9.26,9.26,0,0,0,2.37,1.27,10.75,10.75,0,0,0,1.36.39c.35.06.84.12,1.25.16a9.89,9.89,0,0,0,4.71-.85A9.4,9.4,0,0,0,98.67,153a9.3,9.3,0,0,0,1.64-2.6,12.14,12.14,0,0,0,.59-1.84l.15-.79Z"></path><path class="cls-2" d="M67.22,148.05a11.88,11.88,0,0,0,1,1.88,7.27,7.27,0,0,0,.53.79c.19.28.43.53.64.79a9.63,9.63,0,0,0,.74.7l.37.33.4.26a2.37,2.37,0,0,0,.89.35,2.21,2.21,0,0,1,.81.25,1.48,1.48,0,0,1,.55.56c.14.26.34.47.48.76s.29.6.45.85l.21.4.18.42c.1.26.21.44.27.61l.09.26-.11.59-.2.18a4.6,4.6,0,0,1-.55.41c-.13.08-.27.18-.42.26l-.48.23a4.25,4.25,0,0,1-1.18.28,4.1,4.1,0,0,1-1.39-.06,3.67,3.67,0,0,1-1.41-.58A4.48,4.48,0,0,1,68,157.3c-.29-.5-.59-1-.83-1.48-.13-.25-.26-.49-.37-.73l-.29-.75a7.82,7.82,0,0,1-.37-1.46,9.33,9.33,0,0,1-.11-1.36,8.78,8.78,0,0,1,.05-1.18c0-.36.11-.69.16-1s.13-.52.2-.72.12-.35.16-.46.06-.15.06-.15Z"></path><path class="cls-2" d="M94.74,141.61a2.07,2.07,0,0,0-.3-.11c-.19-.07-.47-.16-.81-.25a8.49,8.49,0,0,0-1.18-.2q-.33,0-.69,0h-.55c-.07,0-.06,0-.1,0a2.21,2.21,0,0,0-.79.49,5.48,5.48,0,0,0-.54.54,2,2,0,0,1-.24.28.54.54,0,0,1-.1.19c0,.08,0,.16-.07.24a2.16,2.16,0,0,0,.41,2,1.91,1.91,0,0,0,.92.51,4.88,4.88,0,0,0,1.16,0,4.43,4.43,0,0,1,3.11.82A3.26,3.26,0,0,1,96.05,148a4.47,4.47,0,0,1,.12.92c0,.14,0,.29,0,.41v.32h0l0,.11v0a4,4,0,0,1-.14.69l-.16.46-.18.38a4.42,4.42,0,0,1-1,1.29,4.26,4.26,0,0,1-2.82,1,4,4,0,0,1-2.21-.74,4.11,4.11,0,0,1-1.13-1.11A3.92,3.92,0,0,1,88,151l-.13-.31.21-.21.32.11c.2.07.47.19.82.29a6.61,6.61,0,0,0,1.18.26,2.31,2.31,0,0,0,1.21-.12,2,2,0,0,0,.87-.65,3.34,3.34,0,0,0,.34-.52,1,1,0,0,1,.08-.14.36.36,0,0,1,0-.09,2.22,2.22,0,0,0,.16-.46v0s0,.18,0,.09h0v-.07l0-.1a1.62,1.62,0,0,0,0-.2l0-.31a.57.57,0,0,0-.05-.39A4,4,0,0,0,91.58,147a12.45,12.45,0,0,1-1.32-.61,5,5,0,0,1-1.15-.94,7.11,7.11,0,0,1-1.33-2.52c0-.11-.07-.24-.1-.36l-.05-.39a3.74,3.74,0,0,1,.06-.86,3.57,3.57,0,0,1,.59-1.41,3.33,3.33,0,0,1,2.77-1.37,2.17,2.17,0,0,1,.38,0l.23,0,.11,0h.14l.07,0,.25.08a4.49,4.49,0,0,1,.91.42,4.28,4.28,0,0,1,1.21,1,3.06,3.06,0,0,1,.52.87,3.34,3.34,0,0,1,.11.35Z"></path><path class="cls-2" d="M92,154.42s-.18-1-.42-2.54-.51-3.57-.79-5.6c-.13-1-.35-2-.43-3a15.86,15.86,0,0,1,.08-2.63,12,12,0,0,1,.54-2.6l.2,0a12,12,0,0,1,.86,2.52,15.59,15.59,0,0,1,.4,2.61c0,1,0,2,0,3,0,2,0,4.11-.09,5.65s-.1,2.58-.1,2.58Z"></path></svg>