<svg xmlns="http://www.w3.org/2000/svg" xmlns:xlink="http://www.w3.org/1999/xlink" id="Layer_1" x="0px" y="0px" viewBox="0 0 256 256" style="enable-background:new 0 0 256 256;" xml:space="preserve">
<style type="text/css">
	.st0{fill:#FFFFFF;}
	.st1{fill:#2F8FFD;}
</style>
<title>teamwork_icon</title>
<path class="st0" d="M81.3,90.4h25.6c0,0,6.7,0.7,10.6-11.3c2.3-6.7,5-13.2,8.2-19.6c0.6-1.8,2.5-2.9,4.4-2.5  c2.3,0.6,3.3,2.9,2.6,5.1L121.2,95c-0.8,3.8-4.2,6.4-8.1,6.3c-6.7,0-15.3,0-15.8,11.1V201c-0.1,2.5-2.2,4.5-4.8,4.4c0,0,0,0,0,0h-1  c-2.4,0.1-4.5-1.7-4.8-4.1L82.8,158c-0.2-1-1-1.7-2-1.7c-1,0-1.9,0.7-2,1.7L74,201.5c-0.4,2.5-2.7,4.2-5.3,3.9  c-2.4-0.2-4.3-2.3-4.3-4.7v-82.6c0-1-0.9-1.8-1.9-1.7c-0.9-0.1-1.8,0.6-1.9,1.5c0,0,0,0,0,0.1l-2.9,28c-0.2,1.5-1.4,2.7-2.9,3  c-1.8,0.3-3.5-0.8-3.9-2.6c0-0.2-0.1-0.4-0.1-0.5v-27.4C50.4,102.6,64.3,90.4,81.3,90.4z"></path>
<path class="st1" d="M81.3,88.8h25.6h0.5c0.2,0,0.3,0,0.5-0.1c0.3-0.1,0.7-0.2,1-0.3c0.7-0.3,1.3-0.6,1.8-1.1c1.2-1,2.2-2.2,3-3.6  c0.8-1.4,1.5-2.9,2-4.5c0.6-1.6,1.1-3.4,1.8-5c1.3-3.3,2.7-6.6,4.1-9.8l2.2-4.8L124,59c0.2-0.3,0.2-0.4,0.4-0.7  c0.3-0.5,0.7-1,1.1-1.4c0.9-0.9,2.2-1.5,3.5-1.5c0.6,0,1.3,0.1,1.9,0.3h0.2l0.3,0.1c0.2,0.1,0.4,0.1,0.5,0.2  c1.4,0.8,2.5,2.2,2.7,3.8c0.2,1.2,0.1,2.4-0.3,3.5l-0.9,2.5l-3.5,10l-7,19.9l0.1-0.3c-0.1,0.6-0.3,1.1-0.5,1.7  c-0.2,0.5-0.5,1-0.8,1.5c-0.6,1-1.4,1.9-2.3,2.6c-1.8,1.4-4.1,2.1-6.4,2.1c-1.8,0-3.6,0.1-5.4,0.3c-1.6,0.2-3.2,0.6-4.7,1.4  c-1.3,0.7-2.3,1.9-2.8,3.3c-0.6,1.5-0.8,3.1-0.8,4.8l0.1,11.3v11.3l-0.1,11.3c0,3.8-0.1,7.5-0.2,11.3l-0.2,11.3  c-0.1,3.8-0.1,7.5-0.1,11.3l-0.1,11.3v5.6v3.6v0.4l-0.1,0.5c-0.1,0.6-0.3,1.2-0.7,1.8c-1,1.6-2.6,2.7-4.4,2.9  c-0.3,0.1-0.6,0.1-0.9,0.1h-0.7c-0.6,0-1.1,0-1.7-0.1c-0.6-0.1-1.2-0.3-1.7-0.6c-1.1-0.6-2.1-1.5-2.7-2.6c-0.3-0.6-0.5-1.2-0.6-1.8  l-0.1-0.8l-0.1-0.7l-0.3-2.8l-0.6-5.6L83,180.6l-2.3-22.5v0.2l0,0l0,0h0.1l0,0c0,0,0.1-0.1,0.1-0.1c0.1-0.1,0.1-0.2,0.1-0.4v0.2  l-1.8,18.2l-1.9,18.3l-0.5,4.5l-0.3,2.3v0.3v0.1v0.3v0.1c0,0.1,0,0.1-0.1,0.3l-0.2,0.5c-0.2,0.6-0.4,1.1-0.8,1.6  c-1.3,2-3.4,3.2-5.8,3.3c-0.3,0-0.6,0-0.9,0h-0.2l0,0h-0.2h-0.1h-0.3c-0.1,0-0.3-0.1-0.4-0.1l-0.5-0.1c-0.3-0.1-0.5-0.2-0.8-0.3  c-2.2-0.9-3.9-3-4.3-5.4c0-0.3-0.1-0.6-0.1-0.9s0-0.6,0-0.8v-1.1v-4.6l0.1-9.1l0.4-36.5l0.2-18.3l0.1-9.1V118c0,0-0.1-0.1-0.1-0.1  c0,0-0.1,0-0.1,0h-0.2c-0.1,0-0.1,0-0.2,0.1v-0.1v0.2l-3,27.8v0.3v0.2c0,0.2-0.1,0.4-0.2,0.7c-0.1,0.4-0.3,0.8-0.5,1.1  c-0.5,0.7-1.1,1.2-1.8,1.6c-1.5,0.8-3.2,0.8-4.7,0c-0.7-0.4-1.4-1-1.8-1.7c-0.4-0.7-0.6-1.5-0.6-2.4v-3.5v-14v-7c0-1.2,0-2.3,0-3.5  c0-1.2,0-2.4,0.2-3.6c0.1-0.6,0.2-1.3,0.3-1.9l0.5-1.8l0.2-0.9l0.3-0.9l0.7-1.7c1-2.3,2.3-4.4,3.8-6.3c1.5-1.9,3.3-3.6,5.2-5.1  c2-1.4,4.1-2.7,6.3-3.6l1.7-0.7l1.7-0.6c1.2-0.4,2.4-0.7,3.6-0.9c0.6-0.1,1.2-0.3,1.8-0.3l1.8-0.2C78.8,88.8,80,88.8,81.3,88.8z   M81.3,92.1c-1.1,0.1-2.2,0.1-3.3,0.2l-1.7,0.2c-0.5,0.1-1.1,0.1-1.6,0.3c-1.1,0.2-2.2,0.5-3.2,0.8l-1.6,0.5l-1.5,0.7  c-2,0.9-4,2-5.8,3.3c-1.8,1.3-3.4,2.9-4.8,4.6c-1.4,1.7-2.6,3.6-3.5,5.6l-0.6,1.5l-0.3,0.8l-0.2,0.8l-0.4,1.6  c-0.1,0.5-0.2,1-0.3,1.6c-0.2,1.1-0.3,2.2-0.2,3.4c0,1.1,0,2.3,0,3.4v7v17.5c0,0.7,0.3,1.3,0.9,1.6c0.6,0.4,1.4,0.4,2,0  c0.3-0.2,0.6-0.4,0.8-0.7c0.1-0.1,0.2-0.3,0.2-0.4c0-0.1,0-0.1,0-0.2v-0.2c0-0.1,0,0.1,0,0.1v-0.2l2.7-27.8v0.2  c0-0.8,0.3-1.6,0.9-2.1c0.5-0.5,1.1-0.9,1.8-1c0.2,0,0.3-0.1,0.5-0.1h0.4c0.3,0,0.7,0.1,1,0.2c0.7,0.2,1.3,0.7,1.7,1.3  c0.2,0.3,0.4,0.6,0.5,1c0.1,0.3,0.1,0.7,0.1,1v1.2v2.3l0.1,9.1l0.2,18.3l0.4,36.5l0.1,9.1v4.6v1.1c0,0.2,0,0.3,0,0.4s0,0.2,0,0.3  c0.1,0.4,0.2,0.7,0.5,1c0.2,0.3,0.5,0.5,0.9,0.6l0.3,0.1h0.1c0.1,0,0.1,0,0.2,0l0.3,0.1H69c-0.2,0,0,0-0.1,0h0.3  c0.8-0.1,1.4-0.5,1.9-1.1c0.1-0.1,0.2-0.3,0.2-0.4l0,0c0,0,0-0.2,0-0.2V201l0,0c0-0.2,0,0.2,0,0.2v-0.1v-0.3l0.2-2.3L72,194  l2.1-18.1l2.2-18.1v0.3c0-0.6,0.2-1.2,0.5-1.8c0.3-0.5,0.7-0.9,1.2-1.2c0.4-0.3,0.8-0.5,1.3-0.7c0.2-0.1,0.5-0.1,0.7-0.2  c0.2,0,0.3-0.1,0.5-0.1h0.5h0.2l0.4,0.1c0.3,0,0.5,0.1,0.7,0.2c1.4,0.5,2.4,1.8,2.7,3.3v0.1v0.1l1.7,22.5l0.9,11.3l0.4,5.6l0.2,2.8  v0.7l0.1,0.6c0,0.3,0.1,0.6,0.2,0.9c0.3,0.6,0.7,1,1.3,1.3c0.3,0.2,0.6,0.3,0.9,0.3c0.4,0.1,0.7,0.1,1.1,0.1h0.7c0.2,0,0.3,0,0.5,0  c0.3,0,0.7-0.1,1-0.3c0.6-0.3,1.1-0.7,1.4-1.3c0.3-0.6,0.5-1.3,0.4-2v-2.8v-5.6l-0.1-11.3c0-3.8-0.1-7.5-0.1-11.3L95.5,158  c-0.1-3.8-0.1-7.5-0.2-11.3l-0.1-11.3v-11.3l0.1-11.3c0-2.1,0.4-4.3,1.2-6.3c0.9-2.1,2.5-3.9,4.5-5.1c1.9-1,4-1.6,6.1-1.8  c1.9-0.2,3.9-0.3,5.8-0.2c1.5,0.1,3-0.4,4.2-1.3c0.6-0.4,1.1-1,1.5-1.6c0.2-0.3,0.4-0.7,0.5-1c0.1-0.3,0.3-0.7,0.3-1v-0.2v-0.1  l7-19.9l3.6-9.9l0.9-2.5c0.2-0.5,0.3-1.1,0.2-1.7c-0.2-1-1-1.7-2-1.6c-0.5,0-0.9,0.2-1.2,0.6c-0.2,0.2-0.4,0.4-0.5,0.7  c-0.1,0.1-0.2,0.3-0.2,0.5l-0.3,0.6l-2.2,4.8c-1.4,3.2-2.8,6.4-4,9.6c-0.6,1.6-1.1,3.2-1.7,4.9c-0.6,1.8-1.4,3.5-2.3,5.1  c-1,1.7-2.3,3.2-3.8,4.5c-0.8,0.7-1.7,1.2-2.7,1.6c-0.5,0.2-1,0.4-1.6,0.5c-0.3,0.1-0.6,0.1-0.8,0.1c-0.3,0-0.7,0-1,0h0.2H81.3z"></path>
<path class="st0" d="M80.5,87.2c-7.8,0-14.1-6.3-14.1-14.1s6.3-14.1,14.1-14.1s14.1,6.3,14.1,14.1l0,0  C94.7,80.9,88.3,87.2,80.5,87.2z"></path>
<path class="st1" d="M80.5,87.5h-1c-0.3,0-0.7,0-1.2-0.1c-0.2,0-0.5,0-0.8-0.1l-0.9-0.2c-0.3,0-0.7-0.1-1-0.2  c-0.3-0.1-0.7-0.1-1.1-0.3l-1.2-0.4c-0.4-0.2-0.8-0.3-1.2-0.5c-2-0.9-3.7-2.2-5.1-3.8c-1.7-2-2.8-4.5-3-7.1c0-0.4,0-0.7,0-1.1v-0.5  V73c0,0.1,0-0.2,0-0.1v-0.1v-0.1c0.1-0.7,0.2-1.3,0.4-2c0.3-1.4,0.9-2.8,1.6-4.1c1.6-2.4,3.6-4.5,6-6.1c1.2-0.8,2.5-1.5,3.9-2.1  c1.4-0.5,2.9-0.9,4.4-1.1c0.8-0.1,1.5-0.1,2.3-0.1c0.8,0,1.6,0.1,2.4,0.3c1.6,0.3,3.1,0.9,4.5,1.7c1.4,0.8,2.6,1.8,3.7,3.1  c1,1.2,1.8,2.6,2.4,4c0.6,1.4,1,2.9,1.1,4.3c0.1,0.7,0.2,1.5,0.2,2.2v0.4v0.2l-0.1,0.5c0,0.3,0,0.6-0.1,0.9  c-0.1,0.7-0.3,1.4-0.5,2.1c-0.1,0.3-0.2,0.6-0.3,0.9s-0.3,0.6-0.4,0.9c-0.5,1.1-1.2,2.1-2,3.1c-1.4,1.6-3,2.9-4.9,3.8  c-1.4,0.7-2.8,1.2-4.3,1.5l-0.9,0.2c-0.3,0-0.5,0.1-0.8,0.1c-0.4,0.1-0.8,0.1-1.2,0.1L80.5,87.5L80.5,87.5z M80.5,86.9h1  c0.4,0,0.8-0.1,1.2-0.2c0.5-0.1,1-0.2,1.5-0.4c1.3-0.5,2.6-1.2,3.6-2.1c1.3-1.2,2.4-2.6,3.2-4.2c0.4-0.9,0.8-1.8,1-2.7  c0.2-0.9,0.4-1.9,0.4-2.8c0-0.2,0-0.6,0-0.9V73c0-0.1,0,0.1,0,0.1v-0.2c0-0.5-0.1-1-0.2-1.5c-0.2-1-0.5-2.1-1-3  c-0.5-1-1.1-1.9-1.8-2.7c-0.7-0.9-1.6-1.7-2.4-2.4c-1.4-1.1-2.9-1.9-4.6-2.4c-0.6-0.2-1.2-0.3-1.8-0.4c-1.3-0.2-2.5-0.1-3.8,0.1  c-1.3,0.3-2.5,0.8-3.6,1.4c-1.1,0.7-2,1.6-2.7,2.6c-0.6,1.1-1.1,2.2-1.5,3.4c-0.2,0.5-0.3,1.1-0.4,1.7l-0.1,0.8c0,0.3,0,0.5,0,0.8  c0,0.6,0,1.2,0.1,1.7l0.1,0.7c0.1,0.3,0.1,0.5,0.1,0.7c0.3,1.9,0.9,3.7,1.6,5.4c0.7,1.6,1.7,3,2.9,4.2c1,1,2.2,1.7,3.5,2.3  c0.5,0.2,1,0.4,1.5,0.5c0.4,0.1,0.8,0.2,1.2,0.2L80.5,86.9L80.5,86.9z"></path>
<path class="st1" d="M89.1,136.3c0-0.1,0-0.2,0-0.3c0-0.1,0-0.1-0.1-0.1c-0.1-0.1-0.2-0.2-0.2-0.2c-1-1.2-0.9-2.9,0.2-4  c0.4-0.4,0.8-0.6,1.3-0.7c0.2-0.1,0.5-0.1,0.8-0.1c0.1,0,0.1,0,0.1,0l0,0l0,0v-0.3c0-0.2,0-0.4,0-0.6c0-0.4,0-0.8-0.1-1.2v-0.3  c0,0,0-0.1,0,0s0-0.1,0,0v0.1c0,0,0,0.1,0.1,0.1c-0.2,0-0.5,0-0.8,0c-0.3,0-0.5-0.1-0.8-0.2c-0.5-0.2-1-0.6-1.3-1  c-0.2-0.2-0.3-0.5-0.5-0.8v-0.2l-0.1-0.2c0-0.1-0.1-0.3-0.1-0.4c-0.1-0.9,0.1-1.7,0.6-2.4c0.1-0.1,0.2-0.2,0.3-0.3  c0.1-0.1,0.3-0.3,0.2-0.2c0,0.1,0,0.2,0,0.3l0,0l-0.1-0.1l-0.2-0.2c-0.3-0.3-0.5-0.6-0.8-0.9s-0.8-0.7-0.5-0.5c0,0,0.1,0,0.1,0l0,0  l0,0l0,0l-0.1,0.1c-0.1,0.1-0.2,0.2-0.3,0.3c-0.1,0.1-0.2,0.2-0.3,0.2c-1.5,0.8-3.4,0.3-4.2-1.2c-0.2-0.4-0.4-0.9-0.4-1.4  c0-0.1,0-0.2,0-0.3c0,0,0-0.1,0-0.1c0,0,0-0.1-0.2-0.1c-0.4-0.1-0.8-0.1-1.2-0.1s-0.8,0-1.2,0c-0.1,0-0.2,0.1-0.2,0.2  c0,0,0,0.1,0,0.1c0,0.1,0,0.2,0,0.3c-0.1,1-0.7,1.8-1.5,2.3c-1.1,0.5-2.4,0.3-3.3-0.4c-0.1-0.1-0.2-0.2-0.2-0.2c0,0-0.1,0-0.1,0  c-0.1-0.1-0.4,0.3-0.7,0.6c-0.3,0.3-0.6,0.6-0.8,0.9l-0.2,0.2l-0.1,0.1c0,0.1,0,0.1,0.1,0.1l0.1,0.1c0.1,0,0.2,0.2,0.3,0.3  c0.5,0.6,0.7,1.4,0.7,2.3c-0.1,1.1-0.8,2.1-1.8,2.6c-0.3,0.1-0.5,0.2-0.8,0.3l-0.4,0.1H70c0.1,0,0.2,0,0.2-0.1c0.1-0.2,0,0.1,0,0.3  c0,0.4,0,0.8,0,1.2c0,0.2,0,0.4,0,0.6v0.2c0-0.1,0,0,0,0s0-0.1-0.1-0.2c0,0-0.1-0.1-0.1-0.1H70h0c0.1,0,0.3,0,0.4,0  c0.1,0,0.3,0,0.4,0.1c0.6,0.1,1.1,0.4,1.5,0.8c0.5,0.4,0.8,0.9,1,1.4c0.2,0.6,0.3,1.2,0.1,1.8c-0.1,0.6-0.4,1.1-0.7,1.6  c-0.1,0.1-0.2,0.2-0.3,0.3c0,0-0.1,0.1,0,0l0,0l0,0c0,0,0.1-0.1,0.1-0.1c0.1-0.1,0.1-0.3,0-0.4v-0.1l0.1,0.1l0.1,0.1l0.2,0.2  l0.4,0.5l0.9,0.8l0,0l0,0c0,0,0.1,0.1-0.1-0.1l0,0l-0.1-0.1c-0.1,0-0.1,0-0.2,0c-0.1,0-0.1,0-0.2,0.1l0.1-0.1l0.1-0.1  c1.4-1.3,3.6-1.2,4.9,0.2c0.4,0.4,0.7,0.9,0.8,1.5c0.1,0.3,0.1,0.6,0.1,0.9c0,0.2,0,0.3,0,0.1c0,0,0-0.1-0.1-0.1  c0,0-0.1-0.1-0.1-0.1l0,0h0.2l0.6,0.1c0.4,0,0.8,0.1,1.2,0.1h0.3c0.1,0,0.3,0,0.1,0c0,0,0,0.1,0,0.1v-0.1c0-0.1,0-0.3,0-0.4  c0-0.3,0.1-0.5,0.2-0.8c0.7-1.5,2.5-2.2,4-1.6c0.4,0.2,0.8,0.4,1.1,0.8l0,0c0.1,0.1,0.2,0.1,0.3,0.1l0.2-0.1l0.2-0.1l0.3-0.3  c0.4-0.4,0.8-0.8,1.2-1.2L89.1,136.3z M89.7,136.7c-0.4,0.5-0.8,0.9-1.2,1.3l-0.3,0.3l-0.2,0.1c-0.1,0.1-0.1,0.1-0.2,0.2  c-0.4,0.3-1,0.2-1.3-0.2l0,0c-0.5-0.5-1.2-0.7-1.9-0.6c-0.6,0.2-1.2,0.6-1.4,1.3c-0.1,0.1-0.1,0.3-0.1,0.5c0,0.1,0,0.1,0,0.2v0.2  c0,0.1,0,0.2,0,0.3c-0.1,0.5-0.4,0.8-0.9,1c-0.2,0-0.3,0.1-0.5,0.1h-0.3c-0.5,0.1-0.9,0.1-1.4,0.1h-0.7h-0.2c-0.1,0-0.2,0-0.3-0.1  c-0.2-0.1-0.5-0.2-0.7-0.4c-0.2-0.2-0.3-0.4-0.4-0.7c0-0.2-0.1-0.3-0.1-0.5c0-0.1,0-0.3-0.1-0.4c-0.1-0.3-0.2-0.5-0.4-0.7  c-0.4-0.4-0.9-0.5-1.4-0.4c-0.2,0.1-0.5,0.2-0.6,0.3l-0.1,0.1l-0.2,0.2c-0.4,0.4-1,0.5-1.6,0.3c-0.1,0-0.3-0.1-0.4-0.2l-0.1-0.1  l-0.2-0.1l-0.5-0.4l-0.2-0.2l-0.1-0.1l0,0l-0.1-0.1l-0.1-0.1l-0.4-0.5l-0.2-0.2l-0.1-0.1l-0.1-0.1c-0.1-0.1-0.1-0.1-0.2-0.2  c-0.3-0.5-0.4-1.1-0.1-1.6c0.1-0.1,0.1-0.3,0.2-0.4l0.1-0.1l0,0l0.1-0.1l0.1-0.1c0.2-0.2,0.3-0.4,0.3-0.7c0.1-0.2,0.1-0.5,0-0.7  c-0.1-0.3-0.2-0.5-0.4-0.6c-0.2-0.2-0.4-0.3-0.7-0.4h-0.2c-0.1,0-0.1,0-0.2,0h-0.3c-0.1,0-0.3,0-0.4-0.1c-0.3-0.1-0.5-0.2-0.7-0.4  c-0.2-0.2-0.3-0.5-0.4-0.7v-0.2v-0.1v-0.2c0-0.2,0-0.5,0-0.7c0-0.5,0-0.9,0-1.4v-0.3V128v-0.2c0-0.1,0.1-0.2,0.1-0.4  c0.2-0.5,0.7-0.8,1.3-0.8h0.5c0.1,0,0.3-0.1,0.4-0.1c0.6-0.2,1-0.7,1.1-1.3c0.1-0.3,0-0.6-0.1-0.9c0-0.1-0.1-0.3-0.2-0.4  c0-0.1-0.1-0.1-0.1-0.2c-0.1-0.1-0.2-0.2-0.3-0.4c-0.2-0.3-0.2-0.7-0.1-1.1c0.1-0.1,0.2-0.3,0.3-0.4l0.2-0.2c0.3-0.3,0.6-0.6,1-0.9  c0.2-0.1,0.3-0.3,0.5-0.4l0.1-0.1c0.1-0.1,0.1-0.1,0.2-0.1c0.2-0.1,0.3-0.1,0.5-0.1c0.2,0,0.4,0.1,0.5,0.2c0.1,0.1,0.2,0.2,0.3,0.3  c0.1,0.1,0.3,0.3,0.4,0.3c0.6,0.4,1.4,0.5,2.1,0.1c0.7-0.3,1.1-1,1.2-1.8c0-0.1,0-0.2,0-0.3c0-0.2,0-0.3,0.1-0.5  c0.1-0.3,0.4-0.5,0.8-0.6c0.4-0.1,0.9-0.1,1.3-0.1s0.9,0,1.3,0c0.4,0,0.7,0.2,0.9,0.5c0.1,0.2,0.1,0.3,0.2,0.5c0,0.1,0,0.2,0,0.3  c0.1,0.7,0.5,1.2,1.1,1.5c0.6,0.3,1.2,0.2,1.8-0.1c0.1,0,0.1-0.1,0.2-0.1c0.1,0,0.1-0.1,0.2-0.2l0.1-0.1c0.1-0.1,0.2-0.1,0.3-0.2  c0.2-0.1,0.4-0.2,0.7-0.2c0.2,0,0.5,0.1,0.7,0.2c0.1,0.1,0.3,0.2,0.4,0.3l0.5,0.4c0.4,0.3,0.7,0.6,1,1l0.2,0.3l0.1,0.2  c0.1,0.1,0.1,0.2,0.2,0.3c0.2,0.5,0.1,1-0.2,1.5c-0.1,0.1-0.2,0.2-0.3,0.3l-0.1,0.2c-0.1,0.1-0.1,0.2-0.2,0.4  c-0.1,0.3-0.1,0.5-0.1,0.8c0,0.1,0,0.1,0,0.2v0.1l0.1,0.2c0,0.1,0.1,0.2,0.2,0.3c0.2,0.2,0.4,0.4,0.7,0.6c0.1,0.1,0.3,0.1,0.4,0.2  c0.2,0,0.3,0.1,0.5,0.1c0.5,0,0.9,0.3,1.1,0.7c0.1,0.1,0.1,0.2,0.1,0.3c0,0,0,0.1,0,0.1c0,0,0,0.1,0,0.1v0.3c0,0.4,0,0.9,0,1.4  c0,0.2-0.1,0.4-0.1,0.7l-0.1,0.4c0,0.2-0.1,0.4-0.3,0.6c-0.1,0.2-0.3,0.3-0.5,0.3c-0.2,0.1-0.4,0.1-0.5,0.1c-0.2,0-0.3,0-0.5,0  c-0.3,0.1-0.7,0.2-0.9,0.4c-0.6,0.5-0.8,1.2-0.7,1.9c0,0.4,0.2,0.7,0.4,1l0.2,0.2c0.1,0.1,0.2,0.3,0.2,0.4  C89.8,136.1,89.8,136.4,89.7,136.7L89.7,136.7z"></path>
<path class="st1" d="M76.3,133.6l-0.3-0.3c-0.3-0.3-0.5-0.6-0.7-0.9c-0.3-0.5-0.6-1.1-0.8-1.7c-0.3-0.8-0.4-1.7-0.3-2.5  c0.1-1,0.6-2,1.3-2.8c0.2-0.2,0.4-0.4,0.6-0.6c0.2-0.2,0.4-0.3,0.7-0.4c0.5-0.3,1-0.5,1.6-0.7c2.9-0.8,6.1,0.3,7.8,2.8  c0.4,0.5,0.6,1.1,0.8,1.7c0.3,1.2,0.2,2.5-0.2,3.7c-0.4,1.1-1.1,2.1-2,2.8c-0.8,0.7-1.8,1.1-2.9,1.2c-0.9,0.1-1.7,0-2.5-0.3  c-0.6-0.2-1.2-0.5-1.7-0.9c-0.4-0.2-0.7-0.5-1-0.7L76.3,133.6L76.3,133.6z M76.8,133.1l0.3,0.2c0.3,0.2,0.6,0.4,0.9,0.6  c0.5,0.2,1,0.4,1.5,0.4c0.7,0,1.4,0,2-0.3c0.7-0.2,1.3-0.6,1.9-1c0.6-0.5,1.1-1.2,1.5-2c0.4-0.8,0.5-1.7,0.3-2.6  c-0.1-0.5-0.2-0.9-0.3-1.4c-0.2-0.5-0.4-0.9-0.7-1.3c-0.3-0.4-0.7-0.7-1.1-1c-0.4-0.3-0.9-0.5-1.4-0.6c-1-0.2-2,0-2.9,0.5  c-0.4,0.2-0.8,0.5-1.1,0.8c-0.1,0.1-0.3,0.3-0.5,0.5s-0.3,0.3-0.4,0.5c-0.4,0.6-0.8,1.3-1,2c-0.2,0.6-0.3,1.3-0.2,2  c0,0.5,0.2,1.1,0.4,1.5c0.1,0.3,0.3,0.6,0.6,0.9L76.8,133.1L76.8,133.1z"></path>
<path class="st0" d="M176.7,90.4h-25.6c0,0-6.7,0.7-10.6-11.3c-2.3-6.7-5-13.2-8.1-19.6c-0.6-1.8-2.5-2.9-4.4-2.5  c-2.3,0.6-3.3,2.9-2.6,5.1L136.9,95c0.8,3.8,4.2,6.4,8.1,6.3c6.7,0,15.4,0,15.8,11.1V201c0.1,2.5,2.2,4.5,4.8,4.4c0,0,0,0,0,0h1  c2.4,0.1,4.5-1.7,4.8-4.1l3.9-43.3c0.2-1,1-1.7,2-1.7c1,0,1.9,0.7,2,1.7l4.8,43.5c0.4,2.5,2.7,4.2,5.3,3.9c2.4-0.2,4.3-2.3,4.3-4.7  v-82.6c0-1,0.9-1.8,1.9-1.7c0.9-0.1,1.8,0.6,1.9,1.5c0,0,0,0,0,0.1l2.9,28c0.2,1.5,1.4,2.7,2.9,3c1.8,0.3,3.5-0.8,3.9-2.6  c0-0.2,0.1-0.4,0.1-0.5v-27.4C207.6,102.6,193.8,90.8,176.7,90.4z"></path>
<path class="st1" d="M176.7,91.9h-25.4c-0.3,0-0.7,0-1,0c-0.3,0-0.6-0.1-0.8-0.1c-0.5-0.1-1-0.3-1.5-0.5c-0.9-0.4-1.8-0.9-2.6-1.5  c-1.5-1.2-2.8-2.7-3.7-4.4c-0.9-1.6-1.7-3.3-2.3-5.1c-0.6-1.7-1.1-3.3-1.8-4.9c-1.2-3.2-2.6-6.4-4.1-9.6l-2.2-4.7l-0.3-0.6  c-0.1-0.2-0.2-0.3-0.3-0.5c-0.1-0.2-0.3-0.5-0.5-0.7c-0.7-0.7-1.9-0.7-2.7,0c-0.3,0.3-0.5,0.7-0.5,1.1c0,0.3,0,0.5,0,0.8  c0,0.1,0,0.3,0.1,0.4v0.1l0,0c0,0,0,0.1,0-0.1v0.1l0.1,0.3l0.9,2.5l3.7,9.9c1.2,3.3,2.4,6.6,3.6,9.9l3.6,9.9l0.1,0.3  c0,0,0.1,0.3,0.1,0.4c0.1,0.2,0.1,0.3,0.2,0.5c0.1,0.3,0.3,0.6,0.5,0.9c0.3,0.6,0.8,1.1,1.3,1.5c1.1,0.8,2.5,1.3,3.9,1.2  c2,0,3.9,0.1,5.9,0.3c2.2,0.2,4.3,0.9,6.2,1.9c2,1.2,3.6,3,4.5,5.2c0.8,2,1.2,4.2,1.1,6.3l-0.1,11.3l-0.5,45.2l-0.2,22.6v8.5  c-0.1,0.7,0.1,1.5,0.4,2.1c0.4,0.6,0.9,1.1,1.6,1.4c0.3,0.2,0.7,0.3,1,0.3c0.2,0,0.4,0,0.5,0h0.7c0.4,0,0.8,0,1.2-0.1  c0.3-0.1,0.7-0.2,1-0.4c0.6-0.3,1.1-0.8,1.4-1.4c0.2-0.3,0.2-0.7,0.3-1c0.1-0.4,0.1-0.9,0.1-1.4l0.3-2.8l0.5-5.6l1-11.3  c0.6-7.5,1.3-15,2-22.5v-0.1c0.1-0.8,0.6-1.5,1.2-2.1c0.3-0.3,0.6-0.5,1-0.6c0.2-0.1,0.4-0.1,0.6-0.2c0.2,0,0.4,0,0.7,0h0.2l0.4,0.1  c0.2,0,0.4,0.1,0.6,0.1c0.4,0.1,0.7,0.3,1,0.6c0.3,0.3,0.6,0.6,0.8,1c0.2,0.4,0.4,0.9,0.4,1.4v-0.1l4.1,36.3l0.5,4.5l0.3,2.3v0.3  v0.1c0,0,0-0.2,0-0.1l0,0v0.1c0,0.1,0,0.2,0,0.3c0,0,0,0.1,0.1,0.1c0.1,0.2,0.2,0.4,0.3,0.6c0.6,0.9,1.5,1.4,2.6,1.5  c0.1,0,0.2,0,0.4,0h0.1l0.3-0.1c0.2,0,0.2-0.1,0.4-0.1l0.4-0.1c0.5-0.2,0.9-0.5,1.2-0.9c0.3-0.4,0.5-0.9,0.6-1.4c0-0.1,0-0.2,0-0.4  c0-0.1,0-0.2,0-0.4v-1.1l-0.1-4.6l-0.1-9.1l-0.4-36.5c-0.1-6.1-0.1-12.2-0.1-18.3v-9.1v-3.4c0-0.4,0-0.8,0.1-1.2  c0.1-0.5,0.3-0.9,0.6-1.3c0.5-0.7,1.2-1.3,2.1-1.6c0.4-0.1,0.8-0.2,1.3-0.3h0.5c0.2,0,0.4,0,0.7,0.1c0.9,0.2,1.7,0.6,2.3,1.2  c0.7,0.7,1.1,1.7,1.1,2.8v-0.3l0.7,6.9l0.6,6.9c0.2,2.3,0.4,4.6,0.6,7l0.6,7v0.2c0-0.3,0-0.1,0-0.1v0.1v0.1c0,0.1,0,0,0,0.1  c0,0.1,0.1,0.2,0.1,0.3c0.1,0.2,0.3,0.4,0.5,0.6c0.1,0.1,0.2,0.1,0.4,0.2h0.1l0,0h-0.2h0.1h0.3c0.2,0,0.5,0,0.7-0.1  c0.5-0.2,0.7-0.7,0.8-1.1l0.1-3.5l0.2-14v-7c0-1.2,0-2.4,0-3.4c0-1.1,0-2.3-0.2-3.4c-0.1-0.5-0.1-1-0.2-1.6l-0.4-1.6l-0.2-0.8  l-0.3-0.8l-0.6-1.5c-0.9-2-2-3.9-3.4-5.6c-1.3-1.7-2.9-3.2-4.5-4.5c-1.8-1.3-3.7-2.4-5.8-3.3l-1.5-0.7l-1.6-0.5  c-1.1-0.4-2.1-0.6-3.2-0.9c-0.5-0.1-1.1-0.2-1.6-0.3l-1.7-0.3C179,92,177.8,92,176.7,91.9z M176.8,89c1.2,0.1,2.4,0.1,3.6,0.3  l1.8,0.3c0.6,0.1,1.2,0.2,1.8,0.3c1.2,0.3,2.4,0.6,3.5,1l1.7,0.6l1.7,0.7c2.2,1,4.3,2.2,6.3,3.6c2,1.5,3.7,3.2,5.3,5.1  c1.6,1.9,2.9,4,3.9,6.2l0.7,1.7l0.3,0.9l0.2,0.9l0.5,1.8c0.1,0.6,0.2,1.3,0.3,1.9c0.2,1.2,0.3,2.4,0.2,3.6c0,1.2,0,2.3,0,3.5v7  l0.2,14l0.1,3.5c0,0.9-0.2,1.8-0.7,2.6c-0.5,0.8-1.2,1.5-2,1.9c-1.6,0.9-3.6,0.9-5.3,0c-0.8-0.4-1.5-1-2-1.8  c-0.3-0.4-0.5-0.8-0.6-1.3c-0.1-0.2-0.2-0.5-0.2-0.8v-0.1l0,0v-0.2v-0.2l-0.9-6.9c-0.3-2.3-0.6-4.6-0.9-6.9l-0.8-6.9l-0.7-7V118  c0,0.3,0.1,0.5,0.3,0.7c0.1,0.1,0.2,0.2,0.3,0.2l0,0c0,0,0.1,0,0.1,0c0.1,0,0.2-0.1,0.3-0.2c0.1-0.1,0.1-0.2,0.1-0.3  c0.1-0.2,0-0.4,0-0.1v3.4v9.1c0,6.1-0.1,12.2-0.1,18.3l-0.4,36.5l-0.1,9.1v4.6v1.1c0,0.2,0,0.4,0,0.7c0,0.3-0.1,0.5-0.1,0.8  c-0.2,1-0.6,2-1.3,2.8c-0.6,0.8-1.5,1.4-2.4,1.8c-0.2,0.1-0.5,0.2-0.7,0.3s-0.6,0.2-0.8,0.2h-0.3h-0.1h-0.1h-0.2c-0.3,0-0.5,0-0.8,0  c-2-0.1-3.9-1.2-5-2.9c-0.3-0.4-0.5-0.9-0.7-1.4l-0.1-0.4l-0.1-0.3v-0.1v-0.2v-0.1v-0.3l-0.2-2.3l-0.4-4.6l-3.9-36.3v-0.3v0.1  c0-0.1-0.1-0.1-0.1-0.2c-0.1-0.1-0.2-0.1-0.3-0.1h-0.1h-0.2h-0.1c-0.1,0-0.2,0.1-0.2,0.1c-0.1,0.1-0.2,0.3-0.3,0.4v-0.1  c-0.7,7.5-1.4,15-2.1,22.5l-1.1,11.2l-0.5,5.6l-0.3,2.8c-0.1,0.5-0.1,0.9-0.1,1.4c-0.1,0.6-0.3,1.2-0.5,1.7  c-0.5,1.1-1.4,1.9-2.5,2.5c-0.5,0.3-1.1,0.5-1.6,0.6c-0.5,0.1-1.1,0.1-1.6,0.1h-0.7c-0.3,0-0.6,0-0.9-0.1c-0.6-0.1-1.1-0.2-1.7-0.5  c-1.1-0.5-2-1.3-2.6-2.3c-0.3-0.5-0.5-1.1-0.6-1.7l-0.1-0.5v-0.4V192l-0.2-22.6l-0.5-45.2l-0.1-11.3c0-1.6-0.3-3.2-0.9-4.7  c-0.6-1.4-1.6-2.5-3-3.2c-1.4-0.7-3-1.2-4.6-1.3c-1.8-0.2-3.6-0.2-5.4-0.2c-2.4,0.1-4.7-0.7-6.6-2.1c-1-0.7-1.8-1.6-2.4-2.7  c-0.3-0.5-0.6-1-0.8-1.6c-0.1-0.3-0.2-0.5-0.3-0.8c-0.1-0.3-0.2-0.7-0.3-1l0.1,0.3l-3.4-10c-1.2-3.3-2.3-6.7-3.4-10l-3.3-10  l-0.8-2.5l-0.1-0.3v-0.1v-0.1l0,0v-0.1v-0.2c-0.1-0.3-0.1-0.6-0.2-0.9c-0.1-0.6,0-1.2,0.1-1.8c0.3-1.6,1.3-3,2.8-3.8  c0.2-0.1,0.3-0.2,0.5-0.2l0.3-0.1l0.2,0c0.6-0.2,1.2-0.3,1.9-0.2c1.3,0.1,2.5,0.6,3.4,1.5c0.4,0.4,0.8,0.9,1.1,1.4  c0.2,0.3,0.2,0.4,0.4,0.7l0.3,0.6l2.2,4.8c1.4,3.2,2.8,6.5,4.1,9.8c0.6,1.7,1.2,3.4,1.8,5c0.5,1.6,1.2,3.1,2,4.5  c0.8,1.4,1.8,2.6,3,3.6c0.6,0.5,1.2,0.9,1.9,1.1c0.3,0.1,0.7,0.2,1,0.3c0.2,0,0.3,0.1,0.5,0.1c0.1,0,0.2,0,0.4,0L176.8,89L176.8,89z  "></path>
<path class="st0" d="M177.5,87.2c7.8,0,14.1-6.3,14.1-14.1s-6.3-14.1-14.1-14.1s-14.1,6.3-14.1,14.1l0,0  C163.3,80.9,169.7,87.2,177.5,87.2z"></path>
<path class="st1" d="M177.4,86.9l1-0.1c0.4,0,0.8-0.1,1.2-0.2c0.5-0.1,1-0.2,1.5-0.4c1.3-0.5,2.5-1.3,3.5-2.3  c1.2-1.2,2.2-2.6,2.9-4.2c0.8-1.7,1.4-3.5,1.8-5.4c0.1-0.5,0.1-1,0.2-1.5s0.1-1.3,0.1-1.7c0-1.1-0.1-2.3-0.4-3.3  c-0.3-1.2-0.9-2.3-1.6-3.3c-0.8-1-1.7-1.9-2.8-2.6c-1.1-0.7-2.3-1.2-3.6-1.5c-1.3-0.2-2.6-0.3-3.8-0.1c-0.6,0.1-1.3,0.2-1.9,0.4  c-0.6,0.2-1.1,0.4-1.7,0.6c-1.1,0.5-2.1,1.1-3,1.8c-1.8,1.4-3.2,3.2-4,5.3c-0.4,1-0.6,2-0.8,3c-0.1,0.5-0.1,1-0.1,1.5V73  c0,0,0-0.2,0-0.1v0.7c0,0.3,0,0.6,0,0.8c0.1,0.9,0.2,1.8,0.5,2.7c0.2,0.9,0.6,1.7,0.9,2.6c0.7,1.6,1.7,3,2.9,4.2  c1,1,2.2,1.8,3.5,2.3c0.5,0.2,1,0.4,1.5,0.5c0.4,0.1,0.8,0.2,1.2,0.2L177.4,86.9L177.4,86.9z M177.4,87.4h-1c-0.4,0-0.8,0-1.2-0.1  c-0.2,0-0.5,0-0.8-0.1l-0.9-0.1c-1.5-0.3-3-0.7-4.5-1.3c-2-0.9-3.7-2.1-5.1-3.8c-0.8-1-1.5-2-2-3.2c-0.1-0.3-0.3-0.6-0.4-0.9  s-0.2-0.7-0.3-1c-0.2-0.7-0.4-1.4-0.5-2.2c-0.1-0.4-0.1-0.6-0.1-0.9v-0.4v-0.2v-0.4c0-0.7,0.1-1.5,0.2-2.2c0.2-1.5,0.7-3,1.3-4.3  c0.7-1.4,1.6-2.7,2.6-3.9c1.1-1.2,2.3-2.2,3.6-3c1.4-0.8,2.9-1.4,4.4-1.7c0.8-0.1,1.6-0.2,2.4-0.3c0.8,0,1.5,0,2.3,0.1  c1.5,0.2,3,0.6,4.4,1.1c1.4,0.5,2.6,1.2,3.9,2c2.4,1.6,4.4,3.7,5.9,6.1c0.8,1.2,1.3,2.6,1.7,4c0.2,0.7,0.3,1.3,0.4,2v1.1  c0,0.3,0,0.7,0,1c-0.2,2.6-1.2,5.1-2.9,7.2c-1.4,1.6-3.1,2.9-5.1,3.8c-1.4,0.6-2.9,1-4.4,1.3l-0.9,0.2l-0.8,0.1  c-0.5,0.1-0.9,0.1-1.2,0.1L177.4,87.4L177.4,87.4z"></path>
<path class="st1" d="M168.3,90.4l4.7,10.7l4.6,10.7h-1.5l2.1-5.2c0.4-0.9,0.7-1.7,1.1-2.6s0.8-1.7,1.2-2.6c1.6-3.4,3.4-6.7,5.4-9.9  l0.2,0.1c-1.1,3.6-2.3,7.2-3.8,10.7c-0.4,0.9-0.7,1.7-1.1,2.6s-0.8,1.7-1.2,2.6l-2.5,5.1l-0.8,1.7l-0.7-1.8l-4.1-11l-4-11  L168.3,90.4z"></path>
<path class="st1" d="M173.1,90.4c0.8,1.1,1.6,2.1,2.4,3.2l-0.5-0.3c0.8-0.1,1.6-0.2,2.4-0.2c0.8-0.1,1.6-0.2,2.4-0.2l-0.9,0.6  c0.3-0.5,0.6-1,1-1.4c0.4-0.5,0.8-0.9,1.4-1.3l0.2,0.1c0,0.6,0,1.2-0.2,1.8c-0.1,0.6-0.3,1.1-0.5,1.7l-0.2,0.5l-0.7,0.1  c-0.8,0-1.6-0.1-2.4-0.2c-0.8-0.1-1.6-0.1-2.4-0.2h-0.4l-0.1-0.3c-0.5-1.2-1-2.5-1.5-3.7L173.1,90.4z"></path>
<path class="st1" d="M175.9,93.9c0,0,0.1,3-0.1,5.9c0,0.7,0,1.5-0.1,2.2c-0.1,0.6-0.3,1.2-0.5,1.8c-0.2,0.6-0.5,1.2-0.9,1.7h-0.2  c-0.2-0.6-0.4-1.3-0.4-1.9c-0.1-0.6-0.1-1.3,0-1.9c0.1-0.7,0.4-1.4,0.5-2.1c0.6-2.9,1.5-5.7,1.5-5.7L175.9,93.9z"></path>
<path class="st1" d="M179,93.9c0,0,0.8,2.6,1.4,5.2c0.1,0.6,0.4,1.3,0.5,1.9c0.1,0.6,0.1,1.1,0,1.7c-0.1,0.6-0.2,1.2-0.5,1.7h-0.2  c-0.4-0.5-0.7-1-0.9-1.5c-0.2-0.5-0.4-1.1-0.5-1.7c-0.1-0.6,0-1.3,0-2c-0.1-2.7,0-5.3,0-5.3L179,93.9z"></path>
<path class="st0" d="M180.7,139v-5.9h5.9c1.1,0,2-0.9,2-2v-3.5c0-1.1-0.9-2-2-2h-5.9v-5.9c0-1.1-0.9-2-2-2h-3.4c-1.1,0-2,0.9-2,2  v5.9h-5.9c-1.1,0-2,0.9-2,2v3.5c0,1.1,0.9,2,2,2h5.9v5.9c0,1.1,0.9,2,2,2h3.5C179.9,141,180.7,140.1,180.7,139z"></path>
<path class="st1" d="M180.4,139c0-2,0.1-4,0-5.9v-0.3h0.3c1.8-0.2,3.6-0.3,5.4-0.4c0.2,0,0.5,0,0.6,0c0.1,0,0.1,0,0.2,0l0.2-0.1  c0.2-0.1,0.4-0.3,0.5-0.6c0-0.1,0.1-0.2,0.1-0.4c0-0.1,0-0.1,0-0.2v-0.3v-1.4v-1.7c0-0.1,0-0.2,0-0.2c0-0.1-0.1-0.2-0.1-0.3  c-0.2-0.3-0.5-0.6-0.9-0.6h-0.6c-1.8,0-3.6-0.2-5.4-0.3l0,0h-0.5v-0.5c0-1.8,0-3.6,0-5.4c0-0.2,0-0.5,0-0.6c0-0.1,0-0.2,0-0.3  c0-0.1,0-0.2-0.1-0.2c-0.1-0.3-0.4-0.6-0.7-0.7c-0.3-0.1-0.7-0.2-1.1-0.2h-1.4h-1.3c-0.2,0-0.4,0-0.6,0c-0.1,0-0.3,0.1-0.4,0.2  c-0.3,0.2-0.5,0.4-0.6,0.7c-0.1,0.1-0.1,0.3-0.1,0.4v0.6l0.1,5.4l0,0v0.8h-0.8c-1.8,0.1-3.6,0.1-5.4,0.1c-0.2,0-0.5,0-0.6,0  c-0.1,0-0.1,0-0.2,0H167c-0.2,0.1-0.4,0.3-0.5,0.5c0,0.1-0.1,0.2-0.1,0.3c0,0.1,0,0.1,0,0.2v3.4c0,0.1,0,0.2,0,0.2  c0,0.1,0.1,0.2,0.1,0.3c0.1,0.2,0.3,0.4,0.5,0.4c0.1,0,0.2,0.1,0.3,0.1h3.3c0.9,0,1.8,0,2.7,0l0,0l1,0.1v0.9l-0.2,4l-0.1,1.9  c0,0,0,0.1,0,0.1v0.1c0,0,0,0.1,0,0.1c0,0.1,0,0.2,0.1,0.3c0.1,0.2,0.2,0.4,0.4,0.5c0.2,0.1,0.4,0.2,0.6,0.3c0.3,0,0.6,0,0.9,0  l1.9,0.1c0.3,0,0.7,0,1,0c0.3,0,0.5-0.1,0.7-0.2C180.1,140,180.4,139.5,180.4,139z M181.1,139c0,1.2-0.9,2.3-2.1,2.4  c-0.4,0-0.7,0-1,0.1l-1.9,0.1c-0.4,0-0.6,0-1,0c-0.9-0.1-1.6-0.6-2-1.4c-0.1-0.2-0.2-0.4-0.2-0.6c0-0.1,0-0.2,0-0.3v-0.3l-0.1-1.9  l-0.2-3.9l0.9,0.9l0,0c-0.9,0.1-1.8,0-2.7,0h-3.4c-0.3,0-0.7-0.1-1-0.2c-0.6-0.3-1.1-0.7-1.4-1.3c-0.2-0.3-0.3-0.7-0.3-1  c0-0.1,0-0.3,0-0.4v-3.4c0-0.2,0-0.3,0-0.5c0-0.3,0.2-0.6,0.3-0.9c0.3-0.5,0.8-1,1.3-1.2c0.2-0.1,0.3-0.1,0.5-0.2  c0.2,0,0.3-0.1,0.5-0.1c0.3,0,0.5,0,0.7,0c1.8,0,3.6,0,5.4,0.1l-0.8,0.8l0,0l0.1-5.4c0-0.3,0-0.4,0-0.7c0.1-0.9,0.6-1.7,1.4-2.1  c0.3-0.1,0.6-0.2,0.9-0.3c0.2,0,0.5,0,0.7,0h1.3h1.4c0.2,0,0.5,0,0.8,0c0.3,0,0.6,0.1,0.8,0.3c0.5,0.3,0.9,0.7,1.1,1.3  c0.1,0.1,0.1,0.3,0.1,0.4c0,0.1,0,0.3,0,0.4c0,0.3,0,0.5,0,0.7c0,1.8,0,3.6,0,5.4l-0.5-0.5l0,0c1.8-0.2,3.6-0.3,5.4-0.3  c0.3,0,0.4,0,0.7,0c0.3,0,0.7,0.1,1,0.2c0.6,0.2,1.1,0.7,1.4,1.3c0.2,0.3,0.3,0.7,0.3,1c0,0.1,0,0.3,0,0.4v1.7v1.4v0.3  c0,0.5-0.1,0.9-0.4,1.4c-0.3,0.6-0.8,1-1.4,1.2c-0.1,0.1-0.3,0.1-0.4,0.1c-0.2,0-0.3,0-0.5,0c-0.3,0-0.5,0-0.7,0  c-1.8-0.1-3.6-0.2-5.4-0.4l0.3-0.3C181,135.1,181,137,181.1,139z"></path>
</svg>