<svg xmlns="http://www.w3.org/2000/svg" id="Layer_1" data-name="Layer 1" viewBox="0 0 256 256"><defs><style>.cls-1{fill:#2f8ffd;}.cls-2{fill:#fff;}</style></defs><title>time_license_icon</title><path class="cls-1" d="M220.73,167.49l-3.91,0c-2.55,0-6.29-.07-11,0l-7.89.05-9.29.16c-6.63.13-14.11.36-22.27.61l-6.25.2-1.67,0h-.6l-.27,0a7.33,7.33,0,0,1-1-.18,7.55,7.55,0,0,1-3.51-2,7.69,7.69,0,0,1-2.07-3.58,7.23,7.23,0,0,1-.21-1c0-.33-.06-.75-.06-1,0-.56,0-1.13,0-1.7q-.08-3.4-.15-6.91c-.2-9.35-.28-19.21-.44-29.41s-.29-20.75-.43-31.46c-.08-5.35-.15-10.75-.23-16.17L149.31,71l0-2v-.51l0-.66a9.39,9.39,0,0,1,3.49-6.68,9.43,9.43,0,0,1,5.72-2L191,58.5l15.92-.28,7.82-.09,3.87,0h3l.23,0c.32,0,.64.08,1,.14l.79.19A10.32,10.32,0,0,1,231,67.76c0,.23,0,.57,0,.73v3.27c0,1.24,0,2.47,0,3.7-.05,4.91-.11,9.71-.22,14.39-.24,9.35-.66,18.19-1.1,26.35s-.9,15.64-1.28,22.27-.63,12.41-.76,17.18c0,1.19-.07,2.31-.11,3.37a19.35,19.35,0,0,1-.18,3.06,6.67,6.67,0,0,1-2.69,4.18,6.57,6.57,0,0,1-2.86,1.15,4.64,4.64,0,0,1-.79.07Zm0-.8.23,0a4.94,4.94,0,0,0,.7-.08,5.68,5.68,0,0,0,4.59-4.68,22.8,22.8,0,0,0,0-2.89c0-1.06-.07-2.18-.11-3.37-.13-4.77-.41-10.55-.76-17.18s-.81-14.11-1.28-22.27-.86-17-1.1-26.35c-.11-4.68-.17-9.48-.22-14.39q0-3.55-.07-7.18a2,2,0,0,0-1.46-1.79l-62.77-1a3,3,0,0,0-3,2.22,1,1,0,0,0-.05.18.14.14,0,0,0,0,.06l0,0v.5s0,.24,0,0v.51l0,2L155.31,75c-.07,5.42-.15,10.82-.22,16.17-.15,10.71-.29,21.25-.43,31.46s-.24,20.06-.45,29.41c-.05,2.34-.09,4.64-.14,6.91,0,.57,0,1.14,0,1.7,0,.32,0,.46,0,.68a3.89,3.89,0,0,0,.09.61,4.56,4.56,0,0,0,1.09,2.18,4.73,4.73,0,0,0,2.07,1.31,5,5,0,0,0,.55.14l.13,0h.2l.4,0,1.52,0,6.25.2c8.16.25,15.64.47,22.27.61l9.29.16,7.89.05c4.76,0,8.5,0,11,0Z"></path><path class="cls-1" d="M163.21,131.75a16.36,16.36,0,0,1,1.43-.8,26,26,0,0,1,3.76-1.5,33.7,33.7,0,0,1,5.32-1.23,39,39,0,0,1,6.09-.47,41.79,41.79,0,0,1,6.1.45,35,35,0,0,1,5.31,1.23A25.76,25.76,0,0,1,195,131a16.36,16.36,0,0,1,1.43.8s-.52.34-1.43.81a27.09,27.09,0,0,1-3.76,1.51,36.18,36.18,0,0,1-5.31,1.24,40.46,40.46,0,0,1-6.1.44,39,39,0,0,1-6.09-.46,33.7,33.7,0,0,1-5.32-1.23,25.89,25.89,0,0,1-3.76-1.51A16.36,16.36,0,0,1,163.21,131.75Z"></path><path class="cls-1" d="M163.21,117.37s3.3-.47,8.25-1c2.48-.28,5.37-.61,8.46-.91s6.4-.57,9.7-.85c1.65-.13,3.3-.33,4.92-.54a39.79,39.79,0,0,1,4.77-.42,30.6,30.6,0,0,1,4.46.28c1.42.17,2.76.4,4,.67s2.37.57,3.38.87,1.88.63,2.6.91,1.29.54,1.68.73l.59.3v.8s-.2.12-.59.31-1,.45-1.68.73-1.6.61-2.6.91-2.14.61-3.38.87-2.58.49-4,.67a30.6,30.6,0,0,1-4.46.28,39.79,39.79,0,0,1-4.77-.42c-1.62-.21-3.27-.41-4.92-.55-3.3-.27-6.61-.51-9.7-.85s-6-.62-8.46-.9c-5-.57-8.25-1-8.25-1Z"></path><path class="cls-1" d="M163.21,103.39a14.44,14.44,0,0,1,2.27-1.3,21,21,0,0,1,6-1.7,16,16,0,0,1,4-.11,20.12,20.12,0,0,1,4.46,1.39,11.67,11.67,0,0,0,4.77.91,15.54,15.54,0,0,0,4.93-1,28,28,0,0,1,4.92-1.35c1.63-.23,3.22-.47,4.77-.63a26.13,26.13,0,0,1,8.46.6,29.77,29.77,0,0,1,6,2,16.79,16.79,0,0,1,2.27,1.2v.8a16,16,0,0,1-2.27,1.21,29.21,29.21,0,0,1-6,2,25.84,25.84,0,0,1-8.46.61c-1.55-.17-3.14-.4-4.77-.63a27.22,27.22,0,0,1-4.92-1.36,15.82,15.82,0,0,0-4.93-1,11.85,11.85,0,0,0-4.77.92,20.12,20.12,0,0,1-4.46,1.39,15.51,15.51,0,0,1-4-.12,20.74,20.74,0,0,1-6-1.69,13.93,13.93,0,0,1-2.27-1.31Z"></path><path class="cls-1" d="M163.21,89.81s.83-.33,2.27-.79a56,56,0,0,1,6-1.51,82.27,82.27,0,0,1,8.46-1.23c1.55-.15,3.15-.27,4.77-.34s3.28-.1,4.93-.12,3.3,0,4.92.11,3.22.19,4.77.34a81.86,81.86,0,0,1,8.46,1.23,55.41,55.41,0,0,1,6,1.51c1.45.46,2.27.8,2.27.8s-.82.35-2.27.81a57.89,57.89,0,0,1-6,1.51,81.86,81.86,0,0,1-8.46,1.23c-1.55.15-3.14.28-4.77.33s-3.27.1-4.92.12-3.3,0-4.93-.12-3.22-.19-4.77-.34a82.27,82.27,0,0,1-8.46-1.23,56,56,0,0,1-6-1.51C164,90.15,163.21,89.81,163.21,89.81Z"></path><path class="cls-1" d="M163.21,75.44s3.3-.48,8.25-1c2.48-.28,5.37-.61,8.46-.91s6.4-.57,9.7-.84c1.65-.14,3.3-.34,4.92-.55a39.79,39.79,0,0,1,4.77-.42,30.6,30.6,0,0,1,4.46.28c1.42.17,2.76.41,4,.67s2.37.57,3.38.87,1.88.63,2.6.91,1.29.54,1.68.73.59.31.59.31v.8l-.59.3c-.39.19-1,.45-1.68.73s-1.6.62-2.6.91-2.14.61-3.38.87-2.58.5-4,.67a30.6,30.6,0,0,1-4.46.28,39.79,39.79,0,0,1-4.77-.42c-1.62-.21-3.27-.41-4.92-.54-3.3-.28-6.61-.52-9.7-.85s-6-.63-8.46-.91c-5-.57-8.25-1-8.25-1Z"></path><path class="cls-1" d="M79,107.54l-1.37.84,0,0-.17.08-.18,0a.47.47,0,0,0,.17,0c.06,0,0,0,0,0h0l0,0-.05,0-.11.07-.21.14-.44.28.28-.47c.28,3.91.47,7.81.69,11.72l.07,1.46v.09s0-.07,0-.1a.44.44,0,0,0-.06-.16.41.41,0,0,0-.25-.17.48.48,0,0,0-.34.07l.56-.49c.35-.32.75-.64,1.16-1a32.81,32.81,0,0,1,5.15-3.37,34.19,34.19,0,0,1,11.79-3.71q1.56-.18,3.12-.24h1.54c.46,0,1,0,1.57,0a37.1,37.1,0,0,1,6.24.91,35.66,35.66,0,0,1,20.51,14,36.22,36.22,0,0,1,5.31,11.57,35.49,35.49,0,0,1,1,6.31,28.68,28.68,0,0,1,.09,3.21l-.07,1.66-.13,1.46a35.91,35.91,0,0,1-1.31,6.35,32.55,32.55,0,0,1-2.43,5.93,35.27,35.27,0,0,1-18.56,16.51A34.36,34.36,0,0,1,100.28,183c-1.13,0-1.93,0-3.06-.13s-2.09-.23-3.1-.39a35.11,35.11,0,0,1-16.51-7.58,37.8,37.8,0,0,1-4.32-4.26l-1-1.17c-.18-.21-.28-.33-.39-.44a3.19,3.19,0,0,0-.4-.33,3,3,0,0,0-1-.41,3.09,3.09,0,0,0-.52-.07h-.7c-3.9,0-7.81-.07-11.71,0l1-1.51.51,1.06c.17.34.38.71.56,1.07l.58,1,.6,1c.41.69.84,1.32,1.31,2l.34.51.34.44.74,1,.18.24.06.08.1.11.4.47.79.93.2.23.16.18.42.45.84.89c.2.22.55.56.83.83l.84.8.92.81.46.4.4.35,0,0h0a39.49,39.49,0,0,0,3.81,2.77l1,.64,1,.59,1,.57.54.29.27.14h0l0,0,.07,0,.14.07a38.86,38.86,0,0,0,4.35,1.88l1.14.4,1.12.36L87,190a46.39,46.39,0,0,0,4.62.88l1.12.13,1.22.1.61.06h.51l1.22.06h.34s.14,0-.07,0h2.07c.72,0,1.52-.06,2.29-.12a40.33,40.33,0,0,0,4.6-.63,43.18,43.18,0,0,0,16.81-7.05,42.13,42.13,0,0,0,6.87-5.95c.55-.6,1.14-1.21,1.57-1.76s.94-1.11,1.39-1.74.91-1.21,1.33-1.84.83-1.27,1.22-1.91a41.5,41.5,0,0,0,5.72-17c.1-.75.15-1.5.19-2.25s.06-1.51.07-2.26v-.77l0-.31,0-1.22c0-.42,0-.79-.07-1.14l-.09-1.08a43.08,43.08,0,0,0-1.84-8.76A41.82,41.82,0,0,0,129.72,120l-1.52-1.62c-.62-.62-1.08-1.06-1.64-1.57a41.19,41.19,0,0,0-3.49-2.84,42.67,42.67,0,0,0-3.77-2.45c-.65-.37-1.32-.72-2-1.06l-1-.5-.51-.23-.26-.12-.12,0-.07,0c.22.09-.4-.19,0,0s-.25.07-1.19-.79l1.16.78-.75-.32-.37-.16-.19-.08h0l.1,0h0l0,0-.1,0-1.6-.6-.1,0h0l.13,0h0l-.06,0-.2-.06-.4-.13-.81-.26-.4-.14-.3-.09-.82-.24-2.59-.77,0-2.57.1-5.12,0-1.28v-.49l0-.26.06-.41c.05-.19.1-.39.17-.58a4.54,4.54,0,0,1,1.36-2,4.63,4.63,0,0,1,2.17-1,4,4,0,0,1,.59,0h.6l1.27,0,1.28,0h.8c-.32,0,.13,0-.11,0a2,2,0,0,0-.65.15,2,2,0,0,0-1.22,1.65c0,.06,0,.23,0,.2v-.47l0-.64.1-5.12,0-1.28,0-.64c0-.3,0-.23.1.25a1.78,1.78,0,0,0,1.36,1.21l.23,0h-.26l-.64,0-5.11-.13-10.24-.28L88.63,87.5l-5.11-.18-.64,0c-.17,0-.61,0-.24,0a.7.7,0,0,0,.52-.53.62.62,0,0,0,0-.19v.26l0,.64-.06,1.28-.2,5.12,0,1.17a.36.36,0,0,0,0-.16l-.06-.07a.37.37,0,0,0-.14-.07h.06l.64,0,1.28.07,1.27.06h.63l.2,0a2.46,2.46,0,0,1,1.18.57,2.38,2.38,0,0,1,.7,1.07,2.27,2.27,0,0,1,.12.63,3.79,3.79,0,0,1,0,.4l-.06,1.28L88.36,104l0,.7-.61.13a52.38,52.38,0,0,0-5.3,1.4l-.13,0h-.09l.22,0-1.56.55-.78.29-.38.15-.19.08-.1,0,0,0h0s0,0,0,0a.18.18,0,0,0,.07,0l-.49-.5a.31.31,0,0,1,.09-.07h0l0,0,.1-.05.18-.1.37-.2c.24-.14.48-.27.74-.4l1.5-.74.07,0h.16l-.21,0a41.09,41.09,0,0,1,5.28-2l-.65.84-.25-5.12-.06-1.28c0-.3,0-.23,0-.23s0,0,0,0,0,0,0,0h-.08c.12,0,0,0,0,0h-.1l-.32,0-1.27.06-1.28.06-.64,0h-.5a2.86,2.86,0,0,1-.7-.17,2.7,2.7,0,0,1-1.71-2.24c0-.15,0,0,0-.27v-.47l0-.64-.2-5.12,0-1.28,0-.64v-.38a3.32,3.32,0,0,1,.12-.82,3.15,3.15,0,0,1,2.33-2.17,6.36,6.36,0,0,1,1-.1l.64,0,5.11-.18,10.23-.34,10.24-.28,5.11-.13.64,0h.7a5.17,5.17,0,0,1,.55.07,4.23,4.23,0,0,1,3.17,2.85,5.28,5.28,0,0,1,.2,1.52l0,.64,0,1.28.1,5.12v1.11c0,.09,0,.36,0,.53a4.44,4.44,0,0,1-2.69,3.59,4.5,4.5,0,0,1-1.27.32,4.26,4.26,0,0,1-.43,0h-.8l-1.28,0-1.27,0h-.37l.27,0a2.07,2.07,0,0,0,1-.46,2.21,2.21,0,0,0,.65-.91,2.29,2.29,0,0,0,.08-.28c0-.07,0-.16,0-.24v-.13s0,0,0,0v.08s0-.31,0-.15v.22l0,1.28.1,5.12-2.54-3.34.82.21.93.26.81.24.41.13.2.06.34.11,1.6.56.31.11.2.08.42.17.82.33,1.16.78c-.92-.84-1.53-.88-1.12-.76l.07,0,.07,0,.15.06.31.13.6.27,1.2.55c.79.38,1.58.78,2.35,1.2q2.31,1.28,4.49,2.78a48.51,48.51,0,0,1,4.16,3.26c.66.56,1.39,1.24,1.93,1.77s1.25,1.27,1.87,1.91a49,49,0,0,1,10.47,18.22,45.79,45.79,0,0,1,2,10.38l.09,1.37c0,.46.05.9.05,1.3v1.93l0,.65c0,.88-.05,1.76-.14,2.63s-.15,1.76-.28,2.62a47.87,47.87,0,0,1-7.17,19.62c-.47.73-.94,1.47-1.47,2.16s-1,1.42-1.58,2.09a46,46,0,0,1-3.47,3.87,48.08,48.08,0,0,1-8.13,6.56,46.29,46.29,0,0,1-19.38,7,43.59,43.59,0,0,1-5.12.36c-.86,0-1.69,0-2.6,0l-1.22-.07-.62,0-.41,0-.3,0-1.22-.13-.71-.08-.61-.09L92.22,195l-1.29-.24A48.14,48.14,0,0,1,86,193.48l-2.43-.84-1.18-.47-1.14-.48a48.64,48.64,0,0,1-4.51-2.26l-.32-.18-.26-.16-.53-.31-1.07-.66-1.08-.72-1-.71a48.65,48.65,0,0,1-3.95-3.18l.06.05-.51-.46-.45-.42-.89-.84-.91-.91c-.29-.31-.53-.54-.87-.93l-.81-.92-.4-.46-.24-.28-.19-.24-.76-.95-.38-.48-.1-.12a1.49,1.49,0,0,1-.12-.17l-.18-.25-.71-1-.39-.54-.34-.5c-.45-.67-.93-1.39-1.35-2.11l-.62-1.09-.6-1.11c-.19-.37-.37-.71-.56-1.1l-.55-1.15L55.92,166h1.71c3.9.05,7.81,0,11.71,0h.77a4.72,4.72,0,0,1,.92.11,4.88,4.88,0,0,1,1.72.7,4.21,4.21,0,0,1,.74.58,6.07,6.07,0,0,1,.59.65L75,169.1a33.26,33.26,0,0,0,4.17,3.79,34.14,34.14,0,0,0,4.76,3,31.76,31.76,0,0,0,5.21,2A32.6,32.6,0,0,0,94.6,179c.92.07,1.84.14,2.73.13s2-.05,2.79-.09a30.11,30.11,0,0,0,10.5-2.8,31.93,31.93,0,0,0,15-14.79,34.06,34.06,0,0,0,1.91-4.94,29.86,29.86,0,0,0,1-5.11l.12-1.46,0-1.26c0-.88,0-1.77,0-2.65a29,29,0,0,0-.76-5.24,30.09,30.09,0,0,0-4.25-9.69,31.63,31.63,0,0,0-7.31-7.74,30.83,30.83,0,0,0-14.87-5.88c-.44,0-.83-.11-1.35-.13l-1.39-.07c-.91,0-1.82,0-2.73,0a31.22,31.22,0,0,0-10.67,2.52,34.25,34.25,0,0,0-4.89,2.62c-.38.24-.77.5-1.17.8l-.59.42a2.31,2.31,0,0,1-1.71.47,2.34,2.34,0,0,1-1.5-.85,2.38,2.38,0,0,1-.41-.79l-.06-.28v-.46l.07-1.46c.22-3.91.41-7.81.69-11.72l0-.35.25-.12.46-.22.23-.11.12-.06.06,0H77l0,0a.39.39,0,0,1,.18,0l-.18,0,.18-.07,0,0,1.47-.65Z"></path><path class="cls-1" d="M98.68,147.76s1-1.3,2.67-3.15c.82-.93,1.77-2,2.82-3.13s2.18-2.3,3.32-3.48c.57-.59,1.11-1.21,1.63-1.83a10.77,10.77,0,0,1,5.32-3.76,13.74,13.74,0,0,1,1.71-.53,14.39,14.39,0,0,1,1.42-.27,8.77,8.77,0,0,1,1-.08h.36l.38.47-.09.36a8.16,8.16,0,0,1-.29.94,13.52,13.52,0,0,1-.58,1.33,14,14,0,0,1-.88,1.55,10.93,10.93,0,0,1-4.82,4.38c-.73.38-1.45.77-2.15,1.19-1.39.86-2.77,1.73-4.11,2.49s-2.59,1.47-3.67,2.07c-2.17,1.19-3.66,1.93-3.66,1.93Z"></path><path class="cls-2" d="M98.87,138.09a9.91,9.91,0,1,0,9.9,9.9,9.91,9.91,0,0,0-9.9-9.9Zm0,0"></path><path class="cls-1" d="M98.87,138.23l-.69,0a9.75,9.75,0,0,0-1.92.32,8.22,8.22,0,0,0-2.7,1.31A9.15,9.15,0,0,0,91,142.74,10.13,10.13,0,0,0,89.72,147c0,.37,0,.81,0,1.15a9.2,9.2,0,0,0,.14,1.24,8.54,8.54,0,0,0,.75,2.31A9.5,9.5,0,0,0,92,153.74a9.65,9.65,0,0,0,2,1.64,9.52,9.52,0,0,0,2.36,1,9.92,9.92,0,0,0,2.54.3,10.91,10.91,0,0,0,1.31-.16,9.51,9.51,0,0,0,1.19-.31,8.72,8.72,0,0,0,2.2-1.16,9.23,9.23,0,0,0,2.93-3.7,9.4,9.4,0,0,0,.65-2.16,8.07,8.07,0,0,0,.12-1.09V148h0s0,.13,0,.05v-.47c0-.2,0-.45,0-.61,0-.33,0-.63-.12-1a6.83,6.83,0,0,0-.21-1,11.83,11.83,0,0,0-.7-1.89,9.24,9.24,0,0,0-2.26-2.89,7.92,7.92,0,0,0-2.55-1.46,5.23,5.23,0,0,0-1.07-.29,4.79,4.79,0,0,0-.81-.13l-.68-.06Zm0-.29h.71a10.92,10.92,0,0,1,2,.24,11.88,11.88,0,0,1,3,1.07,10.83,10.83,0,0,1,3.36,2.66,10,10,0,0,1,1.36,2.15,9.15,9.15,0,0,1,.82,2.71c0,.26,0,.43.08.66l0,.31,0,.16v.26a10.9,10.9,0,0,1-.1,1.5,10.06,10.06,0,0,1-.83,3,11.06,11.06,0,0,1-1.73,2.68,11.62,11.62,0,0,1-2.49,2.09,12.35,12.35,0,0,1-3,1.3,10.49,10.49,0,0,1-1.65.31,10.85,10.85,0,0,1-4.79-.48A11,11,0,0,1,90.55,155a11.45,11.45,0,0,1-1.53-2.6,10.16,10.16,0,0,1-.73-2.84,10.93,10.93,0,0,1-.08-1.35,11.63,11.63,0,0,1,.12-1.38,10.07,10.07,0,0,1,1.94-4.54,10.73,10.73,0,0,1,3.06-2.71,10.85,10.85,0,0,1,2.86-1.21,10,10,0,0,1,2-.35l.7,0Z"></path><path class="cls-1" d="M52.71,154.56s1-.36,2.5-.79c.75-.21,1.63-.45,2.57-.68s1.94-.42,2.94-.63a13.17,13.17,0,0,0,1.49-.41,5.27,5.27,0,0,1,1.45-.32,5.48,5.48,0,0,1,2.56.72,7,7,0,0,1,1,.65,9.76,9.76,0,0,1,.79.68,7.19,7.19,0,0,1,.51.55l.18.23v.6l-.18.22a5.7,5.7,0,0,1-.51.55,8.11,8.11,0,0,1-.79.68,7,7,0,0,1-1,.66,5.47,5.47,0,0,1-2.56.71,5.24,5.24,0,0,1-1.45-.31,13.17,13.17,0,0,0-1.49-.41c-1-.21-2-.39-2.94-.64s-1.82-.47-2.57-.68c-1.5-.43-2.5-.78-2.5-.78Z"></path><path class="cls-1" d="M41.64,135.48s1.7-.36,4.23-.78c1.27-.21,2.76-.46,4.34-.68s3.28-.43,5-.64c.84-.1,1.69-.25,2.52-.41a14,14,0,0,1,2.45-.31,14.55,14.55,0,0,1,4.34.71,14.92,14.92,0,0,1,1.73.66,13.52,13.52,0,0,1,1.33.68,7.35,7.35,0,0,1,.86.55l.31.22v.6l-.31.23c-.19.14-.49.33-.86.55s-.82.44-1.33.68a15,15,0,0,1-1.73.65,14.55,14.55,0,0,1-4.34.72,15.1,15.1,0,0,1-2.45-.32c-.83-.16-1.68-.31-2.52-.41-1.7-.21-3.39-.38-5-.64s-3.07-.46-4.34-.67c-2.53-.43-4.23-.79-4.23-.79Z"></path><path class="cls-1" d="M25.33,116.41s2.72-.36,6.78-.79c2-.21,4.41-.46,7-.68s5.26-.43,8-.63c1.36-.11,2.71-.26,4-.41a35.67,35.67,0,0,1,3.92-.32,35.43,35.43,0,0,1,7,.72,31.49,31.49,0,0,1,4.91,1.33,17.47,17.47,0,0,1,1.87.78v.6a19.19,19.19,0,0,1-1.87.77A31.49,31.49,0,0,1,62,119.11a35.43,35.43,0,0,1-7,.72,38.24,38.24,0,0,1-3.92-.31c-1.34-.16-2.69-.31-4-.41-2.71-.21-5.42-.39-8-.64s-4.91-.47-7-.68c-4.06-.43-6.78-.78-6.78-.78Z"></path><path class="cls-2" d="M211,149.76a4.38,4.38,0,1,1-4.38-4.38A4.39,4.39,0,0,1,211,149.76Z"></path><polygon class="cls-2" points="215.31 193.76 206.58 180.27 197.86 193.76 197.86 155.26 215.31 155.26 215.31 193.76"></polygon><path class="cls-1" d="M215.92,195.72,206,180.67h1.23l-8.31,13.75-2.39,4,.14-4.61c.05-1.61.07-3.21.09-4.82s.05-3.2,0-4.81l0-9.62c0-3.21-.07-6.42-.14-9.62,0-1.61,0-3.21-.15-4.81a29.57,29.57,0,0,0-.67-4.82l-.49-2,2.56-.06,17.45-.43,3.6-.08-1.1,2.58a14.15,14.15,0,0,0-.74,2.41,21.92,21.92,0,0,0-.37,2.41c-.15,1.6-.17,3.2-.26,4.81-.15,3.2-.26,6.41-.37,9.62s-.17,6.42-.21,9.62-.05,6.42,0,9.63Zm-1.18-3.93c0-2.55,0-5.11,0-7.66,0-3.2-.12-6.41-.21-9.62s-.21-6.42-.37-9.62c-.09-1.61-.11-3.21-.26-4.81a21.92,21.92,0,0,0-.37-2.41,15,15,0,0,0-.73-2.41l2.5,2.5-17.45-.42,2.08-2.08a28.54,28.54,0,0,0-.68,4.82c-.11,1.6-.12,3.2-.15,4.81-.07,3.2-.11,6.41-.14,9.62l0,9.62c0,1.61,0,3.21.05,4.81s0,3.21.08,4.82l-2.25-.67L206,179.87l.64-.93.59.93Z"></path><path class="cls-2" d="M196.84,161.33a.92.92,0,0,0,1.11.86l3.21-.67a.92.92,0,0,1,1,.4l1.81,2.73a.9.9,0,0,0,1.37.19l2.47-2.19a.91.91,0,0,1,1-.13l2.94,1.47a.9.9,0,0,0,1.28-.54l1-3.12a.93.93,0,0,1,.82-.63l3.28-.2a.92.92,0,0,0,.85-1.11l-.67-3.21a.92.92,0,0,1,.4-1l2.73-1.81a.91.91,0,0,0,.19-1.38l-2.18-2.46a.91.91,0,0,1-.13-1l1.46-2.94a.91.91,0,0,0-.54-1.28l-3.12-1a.92.92,0,0,1-.63-.82l-.19-3.27a.91.91,0,0,0-1.11-.85L212,138a.91.91,0,0,1-.95-.39l-1.82-2.75a.9.9,0,0,0-1.37-.18l-2.46,2.18a.93.93,0,0,1-1,.14l-2.94-1.47a.93.93,0,0,0-1.3.54l-1,3.12a.92.92,0,0,1-.82.63L195,140a.91.91,0,0,0-.85,1.11l.66,3.22a.89.89,0,0,1-.39.94l-2.76,1.82a.91.91,0,0,0-.17,1.37l2.18,2.46a.93.93,0,0,1,.14,1l-1.47,2.95a.91.91,0,0,0,.53,1.28l3.13,1a.9.9,0,0,1,.62.82Zm6.1-14.36a4.59,4.59,0,1,1,.86,6.43A4.6,4.6,0,0,1,202.94,147Z"></path><path class="cls-1" d="M197.91,161.24v.08c0,.05,0,0,0,0s0,0,0,0a.16.16,0,0,0-.12-.09l3.07-.62a2.61,2.61,0,0,1,.49-.06,2.21,2.21,0,0,1,.62.09,2,2,0,0,1,1,.8l.72,1.08.81,1.17.21.31.09.12,0,.06,0-.06a.21.21,0,0,0-.14-.07l-.09,0h0l.15-.14.61-.57,1.27-1.17.33-.31a2.8,2.8,0,0,1,.32-.26,2.28,2.28,0,0,1,.47-.23,2.12,2.12,0,0,1,1.06-.09,2.86,2.86,0,0,1,.52.16l.23.11,1.74.81.89.41.12.05.05,0c-.11-.05,0,0,0,0l0,0c.08,0,0,0-.05,0l-.07,0a.65.65,0,0,0-.24,0,.54.54,0,0,0-.21.16l-.06.11.09-.27c.1-.33.2-.66.31-1s.21-.67.31-1l.16-.52a3.55,3.55,0,0,1,.28-.74,2.38,2.38,0,0,1,1-1,2.61,2.61,0,0,1,.66-.24l.33,0h.14l1.11-.09,1.12-.1.57,0,.28,0h.09a.75.75,0,0,0-.19,0,.61.61,0,0,0-.43.58c0,.27,0-.12-.07-.26l-.12-.58c-.17-.79-.34-1.59-.5-2.39a2.47,2.47,0,0,1,.3-1.6,2.44,2.44,0,0,1,.52-.64c.28-.22.32-.22.4-.29l1-.67,1-.67.51-.34.08,0a.6.6,0,0,0-.27.32.67.67,0,0,0,0,.42.44.44,0,0,0,.1.19l0,0-.05-.06-.1-.11-.83-.94-.83-.95-.47-.54a2.38,2.38,0,0,1-.51-1.64,2.34,2.34,0,0,1,.19-.83l.18-.36.28-.57.57-1.15.47-.93a.63.63,0,0,0,.33.77l-2.29-.73-.61-.19-.16-.05-.11,0-.26-.11a2.72,2.72,0,0,1-.71-.54,2.52,2.52,0,0,1-.65-1.56l-.05-.65-.18-2.59a.71.71,0,0,0,.63.67h.18l-.32.07-.63.15-1.27.29-.63.15-.31.08-.13,0-.3,0a2.57,2.57,0,0,1-.48,0,2.64,2.64,0,0,1-1.68-.88c-.27-.33-.25-.34-.33-.44l-.19-.26-.76-1.05-.76-1-.1-.13c.06.1-.09-.12,0,0a.47.47,0,0,0,.11.13l.07.07.16.12a1.13,1.13,0,0,0,.74.14.87.87,0,0,0,.35-.13l.16-.1-.12.12-.46.44-.91.89-1,.93a3.1,3.1,0,0,1-2,.74,3.19,3.19,0,0,1-1.06-.18c-.44-.17-.38-.16-.51-.21l-2.28-1-.29-.13-.14-.06-.07,0,0,0c.19.09,0,0,.06,0l-.05,0a.7.7,0,0,0,.2.08,1.11,1.11,0,0,0,.27.06,1.69,1.69,0,0,0,.5,0,1.48,1.48,0,0,0,.83-.51,1.38,1.38,0,0,0,.24-.42s-.05.17-.07.24c-.24.78-.47,1.55-.71,2.31l-.22.69a3.39,3.39,0,0,1-1.3,1.65,3.29,3.29,0,0,1-1,.45,4.49,4.49,0,0,1-.81.13l-.59,0-2.32.14h-.22l.18,0a1.14,1.14,0,0,0,.28-.09,1.55,1.55,0,0,0,.72-.62,1.54,1.54,0,0,0,.23-.94,1,1,0,0,0,0-.24l0,.18,0,.27c.13.74.26,1.46.39,2.17l.08.54,0,.18,0,.1c0,.11,0,.23,0,.32a3.52,3.52,0,0,1-.1,1,3.2,3.2,0,0,1-1,1.62,2.82,2.82,0,0,1-.39.29l-.11.07-.23.13-1.78,1-.44.25-.22.12-.06,0,.07,0,0,0-.05,0,.11-.09a1.18,1.18,0,0,0,.31-1.23.84.84,0,0,0-.13-.27.94.94,0,0,0-.09-.12l0,0,0,.06.3.38.57.75,1.14,1.5a2.69,2.69,0,0,1,.5,2.4,2.75,2.75,0,0,1-.22.54l-.11.18-.21.37-.84,1.41-.39.68-.1.16c0-.1-.08.16,0,0a.47.47,0,0,0,0-.26.55.55,0,0,0-.24-.33s-.16-.07-.12,0l.33.13L196,156a5.25,5.25,0,0,1,.7.3,2.1,2.1,0,0,1,.83.84,2.06,2.06,0,0,1,.2.54,2.7,2.7,0,0,1,0,.28v.15c0,.16,0,.31,0,.46,0,.59,0,1.09.05,1.5,0,.81,0,1.24,0,1.24Zm-2.12.24v-.09s0-.43-.11-1.24c0-.4-.09-.9-.14-1.49l0-.46v-.1h0v0l0,.08c0,.09.3.21-.25,0l-2.43-.67-.33-.08a2.5,2.5,0,0,1-.74-.36,2.35,2.35,0,0,1-.85-2.57,3.34,3.34,0,0,1,.13-.36l.08-.18.29-.72c.21-.49.41-1,.63-1.52l.16-.39.08-.2a.49.49,0,0,0-.06.14.86.86,0,0,0,.1.75c-.41-.4-.84-.81-1.27-1.24-.23-.21-.45-.43-.68-.66l-.35-.33,0,0-.12-.15a2.49,2.49,0,0,1-.23-.31,3.35,3.35,0,0,1-.32-.72,3,3,0,0,1,.82-3l.25-.21,0,0,.13-.09.05,0,.2-.15.4-.3c.54-.41,1.1-.82,1.67-1.23l.21-.16.11-.08a1.09,1.09,0,0,0-.17.13,1.47,1.47,0,0,0-.47.73,2,2,0,0,0-.05.43,1.54,1.54,0,0,0,0,.19s0,0,0,0,0-.06,0-.08l-.13-.52c-.16-.71-.33-1.43-.5-2.15l-.06-.28,0-.1a3,3,0,0,1-.08-.51,3.42,3.42,0,0,1,2.08-3.36,3.22,3.22,0,0,1,.55-.18l.32,0h.07l.43,0,2.32-.13.58,0c.22,0-.09,0-.22,0a1.59,1.59,0,0,0-.46.21,1.54,1.54,0,0,0-.57.72l.15-.44c.27-.76.53-1.52.8-2.29l.12-.34a3.47,3.47,0,0,1,.54-1,3.28,3.28,0,0,1,1.85-1.16,3.13,3.13,0,0,1,1.1-.06,3.17,3.17,0,0,1,.57.11l.36.13.08,0,.17.08.07,0,.14.07.27.15,2.19,1.2c.38.2-.14,0-.39,0a1.28,1.28,0,0,0-.84.33l.94-.75,1-.79.5-.4.12-.1a2.34,2.34,0,0,1,.41-.29,2.84,2.84,0,0,1,.94-.37,2.9,2.9,0,0,1,2,.33,2.42,2.42,0,0,1,.42.29l.19.18a2.8,2.8,0,0,1,.22.25,3.1,3.1,0,0,1,.18.26l.08.13.66,1.11.66,1.11.17.28c0,.07.17.26,0,.09a.91.91,0,0,0-.56-.28h-.16l-.14,0h0l.32-.05.64-.11,1.28-.23.64-.11.32-.06.14,0a.91.91,0,0,1,.23,0,2.36,2.36,0,0,1,.46,0,2.56,2.56,0,0,1,2.26,2.42l.13,2.6,0,.65a.7.7,0,0,0-.17-.38.75.75,0,0,0-.2-.15l-.11,0s.08,0,0,0l.15,0,.62.21,1.22.42.61.21.31.11a4.28,4.28,0,0,1,.48.17,2.46,2.46,0,0,1,1.28,2.94,1.46,1.46,0,0,1-.11.3l-.1.21-.14.29-.29.58-.57,1.14-.28.57-.07.14s-.06.13,0,.07a1.19,1.19,0,0,0,0-.22.65.65,0,0,0-.15-.44l.36.41.84.94.83.93.1.12.06.05.13.17a2.73,2.73,0,0,1,.38.74,2.56,2.56,0,0,1-.06,1.64,2.33,2.33,0,0,1-.44.72,3.23,3.23,0,0,1-.37.34l-.18.13-.51.34-1,.68-1,.66c-.3.21,0,0,0-.12a.61.61,0,0,0,.07-.44c.16.76.31,1.51.46,2.26l.11.57a4.66,4.66,0,0,1,.13.88,2.45,2.45,0,0,1-1.69,2.34,2.28,2.28,0,0,1-.46.1l-.2,0h-.28l-.57,0-1.13.05-1.11,0H215l.15-.05a.53.53,0,0,0,.2-.22c-.21.6-.42,1.19-.62,1.78-.12.33-.24.66-.35,1l-.08.22a2.51,2.51,0,0,1-.28.57,2.27,2.27,0,0,1-2.2,1,2,2,0,0,1-.31-.07l-.29-.11-.12,0,0,0-.11-.06-.87-.47-1.68-.91-.18-.1.07,0a.27.27,0,0,0,.16,0l.06,0c.06,0,0,0,0,0l-.34.29L206.85,165l-.64.54-.15.13a3.53,3.53,0,0,1-.35.25,2.1,2.1,0,0,1-.84.25,2,2,0,0,1-1.57-.57,1.63,1.63,0,0,1-.17-.2l-.07-.1-.13-.19-.2-.32c-.26-.41-.51-.82-.76-1.2l-.73-1.12a.11.11,0,0,0,.08.06h0s0,0-.08,0l-2,.42-.8.18-.38.08a2,2,0,0,1-2.19-1.2,1.49,1.49,0,0,1-.09-.3,1.3,1.3,0,0,1,0-.23Z"></path><path class="cls-1" d="M202.13,146.27l.22-.23A6.89,6.89,0,0,1,207,143.9a5.36,5.36,0,0,1,2.75.65,6.58,6.58,0,0,1,.7.45,6.23,6.23,0,0,1,1.56,1.82,6.32,6.32,0,0,1,.72,3.36,7.58,7.58,0,0,1-.37,1.75,8.67,8.67,0,0,1-.36.83,3.11,3.11,0,0,1-.22.4l-.12.19-.06.1,0,.05,0,0h0l0,.07a8.16,8.16,0,0,1-1.18,1.33,7.86,7.86,0,0,1-1.57,1.06,6.3,6.3,0,0,1-3.78.6,5.69,5.69,0,0,1-1.8-.64,5.81,5.81,0,0,1-.78-.51l0,0-.14-.11-.06-.05-.1-.1-.24-.24a5.26,5.26,0,0,1-1-1.51,5.83,5.83,0,0,1-.45-1.5,6.35,6.35,0,0,1,.19-2.6,7.45,7.45,0,0,1,.73-1.72,7.93,7.93,0,0,1,.64-1l.25-.31Zm1.66,1.35-.12.22a2.32,2.32,0,0,0-.21.66,2.22,2.22,0,0,0,.09,1,2.77,2.77,0,0,0,.65,1,4.14,4.14,0,0,0,.46.39,2.11,2.11,0,0,0,.37.25l.2.15.12.08.05.05h0l-.09-.07h0l.24.14c.15.1.32.18.5.28a3,3,0,0,0,1.35.36,2.08,2.08,0,0,0,.8-.16,1.7,1.7,0,0,0,.76-.54l0,.05h0l0,0,0-.05.07-.08.13-.18a1.83,1.83,0,0,0,.21-.39,2.3,2.3,0,0,0,.2-.85,2.94,2.94,0,0,0-.39-1.66,3.93,3.93,0,0,0-.44-.64,2.49,2.49,0,0,0-.36-.34,2.56,2.56,0,0,0-.26-.22,4,4,0,0,0-1.37-.64,3,3,0,0,0-1.37,0,2.76,2.76,0,0,0-1,.46,1.58,1.58,0,0,0-.29.25,2.54,2.54,0,0,0-.2.23l-.19.26Z"></path></svg>