<svg xmlns="http://www.w3.org/2000/svg" viewBox="0 0 48 48"><title>bed, sleep, hotel</title><g><rect x="14" y="18" width="6" height="4" fill="#646464"></rect><rect x="28" y="18" width="6" height="4" fill="#646464"></rect><path d="M12,17a1,1,0,0,1,1-1h8a1,1,0,0,1,1,1v5h4V17a1,1,0,0,1,1-1h8a1,1,0,0,1,1,1v5h6V11a1,1,0,0,0-1-1H7a1,1,0,0,0-1,1V22h6Z" fill="#646464"></path><path d="M42,24H6a4.3016,4.3016,0,0,0-4,4V39a1,1,0,0,0,1,1H5a1,1,0,0,0,1-1V34H42v5a1,1,0,0,0,1,1h2a1,1,0,0,0,1-1V28A4.3016,4.3016,0,0,0,42,24Z" fill="#646464"></path></g></svg>