<svg xmlns="http://www.w3.org/2000/svg" viewBox="0 0 48 48"><title>shower, bathroom, hotel</title><g><path d="M28,4A10.0117,10.0117,0,0,0,18,14v.1011A8.9805,8.9805,0,0,0,10,23v2a1,1,0,0,0,1,1H27a1,1,0,0,0,1-1V23a8.9805,8.9805,0,0,0-8-8.8989V14a8,8,0,0,1,16,0V43a1,1,0,0,0,2,0V14A10.0117,10.0117,0,0,0,28,4Z" fill="#646464"></path><path d="M13,30a1,1,0,0,0-1,1v2a1,1,0,0,0,2,0V31A1,1,0,0,0,13,30Z" fill="#646464"></path><path d="M13,38a1,1,0,0,0-1,1v2a1,1,0,0,0,2,0V39A1,1,0,0,0,13,38Z" fill="#646464"></path><path d="M19,30a1,1,0,0,0-1,1v2a1,1,0,0,0,2,0V31A1,1,0,0,0,19,30Z" fill="#646464"></path><path d="M25,30a1,1,0,0,0-1,1v2a1,1,0,0,0,2,0V31A1,1,0,0,0,25,30Z" fill="#646464"></path><path d="M19,38a1,1,0,0,0-1,1v2a1,1,0,0,0,2,0V39A1,1,0,0,0,19,38Z" fill="#646464"></path><path d="M25,38a1,1,0,0,0-1,1v2a1,1,0,0,0,2,0V39A1,1,0,0,0,25,38Z" fill="#646464"></path></g></svg>