<svg xmlns="http://www.w3.org/2000/svg" viewBox="0 0 198.04 82.53"><defs><style>.a{fill:#2f8ffd;}.b{fill:#ff6e00;}</style></defs><title>gd_logo</title><path class="a" d="M63.59,29.71c-11.2,1.08-20.39-6.46-28.15-13.53-10-9.13-19.65-13-26.21,3.19-5.74,14.19-.64,35,1.8,49.88-.24.07,0,.14-.22.21C3.7,51.81-7,25.59,6.5,8.46,14.5-1.69,24.6-2.8,34,5.65,42.89,16,49.93,27.27,63.59,29.71Zm-45.42,26H38.86a13.41,13.41,0,0,1,4.13.55A4.7,4.7,0,0,1,45.46,58a5.34,5.34,0,0,1,.9,3,16.06,16.06,0,0,1-.62,4.52l-1.9,7.09a18,18,0,0,1-2.45,5.69,9,9,0,0,1-3.87,3.21,14.37,14.37,0,0,1-5.8,1H11l7.17-26.8Zm.66,21.47H30.37a11.89,11.89,0,0,0,3.75-.47,4.26,4.26,0,0,0,2.12-1.43,7.67,7.67,0,0,0,1.18-2.66l1.89-7c.42-1.6.32-2.76-.32-3.48S36.93,61,34.69,61H23.16L18.83,77.15Zm25.48,5.33,7.18-26.8H78.86L77.5,60.78h-21l-1.57,5.87h20.3L74,71.29H53.72L52,77.42H73l-1.35,5.06Zm30,0,7.18-26.8H92.25l10.58,21.47h.89l5.75-21.47h6.41l-7.18,26.8h-11L87.35,61h-.89L80.71,82.48Zm44.33-26.8h28.92L146.12,61H134.81L129,82.48h-6.4L128.41,61h-11.2l1.42-5.33Zm32.2,15h10.69l-2.43-9.95h-.3l-8,9.95Zm-9.23,11.82h-7.48l21.38-26.8H165l6.9,26.8h-7.52l-1.63-6.76h-15.9l-5.29,6.76Zm32,0,7.18-26.8h6.4L181.49,77.2H198l-1.43,5.33Z" transform="translate(0 0)"></path><path class="b" d="M31.89,40.07l-.74,2.76h6.16l-.53,1.91a2,2,0,0,1-.57.92,2.28,2.28,0,0,1-1.05.47,9.63,9.63,0,0,1-1.78.13h-5.5A5,5,0,0,1,26,46a1,1,0,0,1-.65-.82,4.72,4.72,0,0,1,.18-1.67l1-3.76a4.94,4.94,0,0,1,1.35-2.47,3.77,3.77,0,0,1,2.51-.71H36a3.33,3.33,0,0,1,2.09.43,1.32,1.32,0,0,1,.24,1.41h3.87A6.54,6.54,0,0,0,42.48,36a2.32,2.32,0,0,0-.68-1.46,3.19,3.19,0,0,0-1.54-.73,11.53,11.53,0,0,0-2.49-.21H30.29a9.45,9.45,0,0,0-3.45.55A5.23,5.23,0,0,0,24.53,36,10.25,10.25,0,0,0,23,39.3l-1.23,4.58a6,6,0,0,0-.17,3A2.61,2.61,0,0,0,23,48.66a7,7,0,0,0,3,.55h7.55A10.32,10.32,0,0,0,37,48.73a4.73,4.73,0,0,0,2.22-1.56,8.35,8.35,0,0,0,1.37-3L41.74,40Z" transform="translate(0 0)"></path><polygon class="b" points="58.98 42.7 59.7 39.98 47.9 39.98 48.8 36.56 61.01 36.56 61.8 33.62 45.87 33.62 41.69 49.21 57.62 49.21 58.41 46.26 46.2 46.26 47.16 42.7 58.98 42.7"></polygon><polygon class="b" points="135.03 36.72 135.54 36.72 141.56 49.21 147.97 49.21 152.15 33.62 148.41 33.62 145.06 46.11 144.56 46.11 138.4 33.62 132.13 33.62 127.95 49.21 131.69 49.21 135.03 36.72"></polygon><path class="b" d="M94.66,33.29l.74-2.92c7.43-29.15-31.75-14.83-43.64-9.23C66.85,19.49,91.83,9.67,94.66,33.29Z" transform="translate(0 0)"></path><path class="b" d="M117,33.62,104.58,49.21h4.35L112,45.28h9.23l1,3.93h4.38l-4-15.59Zm-2.72,8.71L119,36.54h.17l1.41,5.79Z" transform="translate(0 0)"></path><polygon class="b" points="100.78 33.62 92.27 46.11 92.03 46.11 90.22 33.62 83.28 33.62 79.11 49.21 82.83 49.21 86.17 36.72 86.67 36.72 88.67 49.21 93.97 49.21 102.66 36.72 103.16 36.72 99.81 49.21 103.53 49.21 107.72 33.62 100.78 33.62"></polygon><path class="b" d="M79.72,39.1A7.48,7.48,0,0,0,80,36.4a2.81,2.81,0,0,0-.67-1.68,3.15,3.15,0,0,0-1.5-.86,9.29,9.29,0,0,0-2.23-.24H63.8L59.62,49.21h3.76l1.23-4.63h7.22A3.18,3.18,0,0,1,74,45.1a1.62,1.62,0,0,1,.23,1.69l-.65,2.42H77.3L78.17,46a2.39,2.39,0,0,0,0-1.45,1.46,1.46,0,0,0-.57-.75c-.25-.14-.68-.34-1.28-.6a7.31,7.31,0,0,0,2.07-1.54A5.83,5.83,0,0,0,79.72,39.1ZM76,39.1a3.71,3.71,0,0,1-1,1.83,2.58,2.58,0,0,1-1.79.55h-7.8l1.28-4.76h7.79c.81,0,1.32.18,1.53.55A2.57,2.57,0,0,1,76,39.1Z" transform="translate(0 0)"></path></svg>